<svg width="281" height="280" viewBox="0 0 281 280" fill="none" xmlns="http://www.w3.org/2000/svg">
<path d="M81.7603 65.6935C86.6186 57.408 95.4799 52.2919 105.085 52.2272L176.304 51.7476C186.106 51.6816 195.187 56.8842 200.088 65.3725L234.916 125.697C239.817 134.185 239.782 144.651 234.824 153.107L198.799 214.545C193.94 222.83 185.079 227.947 175.474 228.011L104.255 228.491C94.4534 228.557 85.3718 223.354 80.4711 214.866L45.6427 154.541C40.742 146.053 40.7773 135.587 45.735 127.132L81.7603 65.6935Z" fill="url(#paint0_radial_32_2)"/>
<path opacity="0.6" d="M119.061 186.361L110.236 181.266C115.669 177.679 118.216 173.267 123.675 163.812C129.134 154.357 131.681 149.944 132.071 143.446L140.896 148.541C136.094 152.492 132.916 156.54 127.457 165.995C121.998 175.45 120.081 180.227 119.061 186.361Z" fill="#FCFCFC"/>
<path d="M119.061 186.361L110.236 181.266C115.669 177.679 118.846 173.631 124.305 164.176C129.764 154.721 131.681 149.944 132.071 143.446L140.896 148.541C136.094 152.492 132.285 156.176 126.827 165.631C121.368 175.086 120.081 180.227 119.061 186.361Z" fill="#FCFCFC"/>
<path opacity="0.6" d="M147.811 136.564L138.986 131.469C144.419 127.882 146.966 123.47 152.425 114.015C157.884 104.56 160.431 100.148 160.821 93.6493L169.646 98.7442C164.844 102.695 161.666 106.744 156.207 116.199C150.748 125.654 148.831 130.43 147.811 136.564Z" fill="#FCFCFC"/>
<path d="M147.811 136.564L138.986 131.469C144.419 127.882 147.596 123.834 153.055 114.379C158.514 104.924 160.431 100.148 160.821 93.6493L169.646 98.7442C164.844 102.695 161.035 106.38 155.577 115.835C150.118 125.29 148.831 130.43 147.811 136.564Z" fill="#FCFCFC"/>
<path fill-rule="evenodd" clip-rule="evenodd" d="M137.878 138.814C137.22 139.953 137.611 141.41 138.75 142.068C139.889 142.726 141.346 142.335 142.004 141.196C142.662 140.057 142.271 138.6 141.132 137.942C139.993 137.284 138.536 137.675 137.878 138.814ZM135.574 147.569C131.396 145.157 129.965 139.815 132.377 135.638C134.789 131.46 140.13 130.029 144.308 132.441C148.485 134.853 149.917 140.195 147.505 144.372C145.093 148.55 139.751 149.981 135.574 147.569Z" fill="#FCFCFC"/>
<path fill-rule="evenodd" clip-rule="evenodd" d="M109.128 188.61C108.47 189.75 108.861 191.206 110 191.864C111.139 192.522 112.596 192.132 113.254 190.992C113.912 189.853 113.521 188.396 112.382 187.738C111.243 187.081 109.786 187.471 109.128 188.61ZM106.824 197.365C102.646 194.954 101.215 189.612 103.627 185.434C106.039 181.257 111.38 179.825 115.558 182.237C119.735 184.649 121.167 189.991 118.755 194.168C116.343 198.346 111.001 199.777 106.824 197.365Z" fill="#FCFCFC"/>
<path fill-rule="evenodd" clip-rule="evenodd" d="M166.628 89.0176C165.97 90.1569 166.361 91.6137 167.5 92.2715C168.639 92.9293 170.096 92.5389 170.754 91.3996C171.412 90.2603 171.021 88.8035 169.882 88.1457C168.743 87.4879 167.286 87.8782 166.628 89.0176ZM164.324 97.7726C160.146 95.3607 158.715 90.019 161.127 85.8415C163.539 81.664 168.88 80.2327 173.058 82.6446C177.235 85.0564 178.667 90.3982 176.255 94.5757C173.843 98.7532 168.501 100.184 164.324 97.7726Z" fill="#FCFCFC"/>
<path fill-rule="evenodd" clip-rule="evenodd" d="M139.941 137.623C138.626 137.623 137.559 138.689 137.559 140.005C137.559 141.32 138.626 142.387 139.941 142.387C141.257 142.387 142.323 141.32 142.323 140.005C142.323 138.689 141.257 137.623 139.941 137.623ZM131.207 140.005C131.207 135.181 135.117 131.271 139.941 131.271C144.765 131.271 148.675 135.181 148.675 140.005C148.675 144.828 144.765 148.739 139.941 148.739C135.117 148.739 131.207 144.828 131.207 140.005Z" fill="#FCFCFC"/>
<path fill-rule="evenodd" clip-rule="evenodd" d="M82.4412 137.623C81.1256 137.623 80.0592 138.689 80.0592 140.005C80.0592 141.32 81.1256 142.387 82.4412 142.387C83.7568 142.387 84.8233 141.32 84.8233 140.005C84.8233 138.689 83.7568 137.623 82.4412 137.623ZM73.707 140.005C73.707 135.181 77.6175 131.271 82.4412 131.271C87.265 131.271 91.1754 135.181 91.1754 140.005C91.1754 144.828 87.265 148.739 82.4412 148.739C77.6175 148.739 73.707 144.828 73.707 140.005Z" fill="#FCFCFC"/>
<path fill-rule="evenodd" clip-rule="evenodd" d="M197.441 137.623C196.126 137.623 195.059 138.689 195.059 140.005C195.059 141.32 196.126 142.387 197.441 142.387C198.757 142.387 199.823 141.32 199.823 140.005C199.823 138.689 198.757 137.623 197.441 137.623ZM188.707 140.005C188.707 135.181 192.617 131.271 197.441 131.271C202.265 131.271 206.175 135.181 206.175 140.005C206.175 144.828 202.265 148.739 197.441 148.739C192.617 148.739 188.707 144.828 188.707 140.005Z" fill="#FCFCFC"/>
<path opacity="0.6" d="M118.184 95.3818V85.192C124.006 88.1034 129.101 88.1034 140.019 88.1034C150.937 88.1034 156.032 88.1034 161.854 85.192V95.3818C156.032 93.1983 150.937 92.4704 140.019 92.4704C129.101 92.4704 124.006 93.1983 118.184 95.3818Z" fill="#FCFCFC"/>
<path d="M118.184 95.3818V85.192C124.006 88.1034 129.101 88.8312 140.019 88.8312C150.937 88.8312 156.032 88.1034 161.854 85.192V95.3818C156.032 93.1983 150.937 91.7426 140.019 91.7426C129.101 91.7426 124.006 93.1983 118.184 95.3818Z" fill="#FCFCFC"/>
<path opacity="0.6" d="M118.184 194.733V184.543C124.006 187.455 129.101 187.455 140.019 187.455C150.937 187.455 156.032 187.455 161.854 184.543V194.733C156.032 192.55 150.937 191.822 140.019 191.822C129.101 191.822 124.006 192.55 118.184 194.733Z" fill="#FCFCFC"/>
<path d="M118.184 194.733V184.543C124.006 187.455 129.101 188.183 140.019 188.183C150.937 188.183 156.032 187.455 161.854 184.543V194.733C156.032 192.55 150.937 191.094 140.019 191.094C129.101 191.094 124.006 192.55 118.184 194.733Z" fill="#FCFCFC"/>
<path opacity="0.6" d="M90.6162 136.477L81.7915 131.382C87.2243 127.795 89.7717 123.383 95.2306 113.928C100.689 104.473 103.237 100.06 103.627 93.562L112.452 98.6569C107.649 102.608 104.471 106.656 99.0126 116.111C93.5537 125.566 91.6366 130.343 90.6162 136.477Z" fill="#FCFCFC"/>
<path d="M90.6162 136.477L81.7915 131.382C87.2243 127.795 90.4021 123.747 95.8609 114.292C101.32 104.837 103.237 100.06 103.627 93.562L112.452 98.6569C107.649 102.608 103.841 106.292 98.3823 115.747C92.9234 125.202 91.6366 130.343 90.6162 136.477Z" fill="#FCFCFC"/>
<path opacity="0.6" d="M176.866 186.335L168.042 181.24C173.474 177.653 176.022 173.24 181.481 163.785C186.939 154.33 189.487 149.918 189.877 143.42L198.702 148.515C193.899 152.466 190.721 156.514 185.263 165.969C179.804 175.424 177.887 180.2 176.866 186.335Z" fill="#FCFCFC"/>
<path d="M176.866 186.335L168.042 181.24C173.474 177.653 176.652 173.604 182.111 164.149C187.57 154.694 189.487 149.918 189.877 143.42L198.702 148.515C193.899 152.466 190.091 156.15 184.632 165.605C179.173 175.06 177.887 180.2 176.866 186.335Z" fill="#FCFCFC"/>
<path fill-rule="evenodd" clip-rule="evenodd" d="M168.769 187.256C167.454 187.256 166.387 188.322 166.387 189.638C166.387 190.954 167.454 192.02 168.769 192.02C170.085 192.02 171.151 190.954 171.151 189.638C171.151 188.322 170.085 187.256 168.769 187.256ZM160.035 189.638C160.035 184.814 163.946 180.904 168.769 180.904C173.593 180.904 177.504 184.814 177.504 189.638C177.504 194.462 173.593 198.372 168.769 198.372C163.946 198.372 160.035 194.462 160.035 189.638Z" fill="#FCFCFC"/>
<path fill-rule="evenodd" clip-rule="evenodd" d="M111.269 87.9046C109.954 87.9046 108.887 88.9711 108.887 90.2867C108.887 91.6022 109.954 92.6687 111.269 92.6687C112.585 92.6687 113.651 91.6022 113.651 90.2867C113.651 88.9711 112.585 87.9046 111.269 87.9046ZM102.535 90.2867C102.535 85.4629 106.446 81.5525 111.269 81.5525C116.093 81.5525 120.004 85.4629 120.004 90.2867C120.004 95.1104 116.093 99.0208 111.269 99.0208C106.446 99.0208 102.535 95.1104 102.535 90.2867Z" fill="#FCFCFC"/>
<g opacity="0.75">
<path opacity="0.8" d="M148.754 139.326L189.513 137.961V142.328L148.754 140.963V139.326Z" fill="url(#paint1_linear_32_2)"/>
<path opacity="0.8" d="M145.167 147.013L166.729 181.63L162.947 183.813L143.749 147.832L145.167 147.013Z" fill="url(#paint2_linear_32_2)"/>
<path opacity="0.8" d="M134.171 150.016L114.973 185.997L111.191 183.814L132.753 149.197L134.171 150.016Z" fill="url(#paint3_linear_32_2)"/>
<path opacity="0.8" d="M135.015 132.91L113.454 98.2933L117.236 96.1097L136.434 132.091L135.015 132.91Z" fill="url(#paint4_linear_32_2)"/>
<path opacity="0.8" d="M145.126 131.363L164.324 95.3819L168.106 97.5654L146.544 132.182L145.126 131.363Z" fill="url(#paint5_linear_32_2)"/>
<path opacity="0.8" d="M131.285 139.326L90.5257 137.961V142.328L131.285 140.963V139.326Z" fill="url(#paint6_linear_32_2)"/>
</g>
<defs>
<radialGradient id="paint0_radial_32_2" cx="0" cy="0" r="1" gradientUnits="userSpaceOnUse" gradientTransform="translate(195.226 234.735) rotate(-119.701) scale(304.711 309.506)">
<stop stop-color="#151E28"/>
<stop offset="1" stop-color="#151E28" stop-opacity="0.75"/>
</radialGradient>
<linearGradient id="paint1_linear_32_2" x1="189.513" y1="140.144" x2="148.754" y2="140.144" gradientUnits="userSpaceOnUse">
<stop offset="0.352083" stop-color="#FCFCFC"/>
<stop offset="1" stop-color="white" stop-opacity="0"/>
</linearGradient>
<linearGradient id="paint2_linear_32_2" x1="164.838" y1="182.722" x2="144.458" y2="147.423" gradientUnits="userSpaceOnUse">
<stop offset="0.352083" stop-color="#FCFCFC"/>
<stop offset="1" stop-color="white" stop-opacity="0"/>
</linearGradient>
<linearGradient id="paint3_linear_32_2" x1="113.082" y1="184.905" x2="133.462" y2="149.607" gradientUnits="userSpaceOnUse">
<stop offset="0.352083" stop-color="#FCFCFC"/>
<stop offset="1" stop-color="white" stop-opacity="0"/>
</linearGradient>
<linearGradient id="paint4_linear_32_2" x1="115.345" y1="97.2015" x2="135.724" y2="132.5" gradientUnits="userSpaceOnUse">
<stop offset="0.352083" stop-color="#FCFCFC"/>
<stop offset="1" stop-color="white" stop-opacity="0"/>
</linearGradient>
<linearGradient id="paint5_linear_32_2" x1="166.215" y1="96.4737" x2="145.835" y2="131.772" gradientUnits="userSpaceOnUse">
<stop offset="0.352083" stop-color="#FCFCFC"/>
<stop offset="1" stop-color="white" stop-opacity="0"/>
</linearGradient>
<linearGradient id="paint6_linear_32_2" x1="90.5257" y1="140.144" x2="131.285" y2="140.144" gradientUnits="userSpaceOnUse">
<stop offset="0.352083" stop-color="#FCFCFC"/>
<stop offset="1" stop-color="white" stop-opacity="0"/>
</linearGradient>
</defs>
</svg>
