<svg width="818" height="298" viewBox="0 0 818 298" fill="none" xmlns="http://www.w3.org/2000/svg">
<path d="M125.529 74.5741C130.387 66.2886 139.248 61.1725 148.853 61.1078L220.073 60.6283C229.874 60.5623 238.956 65.7648 243.856 74.2531L278.685 134.578C283.585 143.066 283.55 153.532 278.592 161.987L242.567 223.426C237.709 231.711 228.848 236.827 219.243 236.892L148.023 237.371C138.222 237.437 129.14 232.235 124.24 223.747L89.4113 163.422C84.5106 154.934 84.5458 144.468 89.5036 136.013L125.529 74.5741Z" fill="url(#paint0_radial_11_2)"/>
<path opacity="0.6" d="M162.829 195.242L154.004 190.147C159.437 186.56 161.985 182.147 167.443 172.692C172.902 163.237 175.45 158.825 175.84 152.327L184.665 157.421C179.862 161.372 176.684 165.421 171.225 174.876C165.767 184.331 163.849 189.107 162.829 195.242Z" fill="#FCFCFC"/>
<path d="M162.829 195.242L154.004 190.147C159.437 186.56 162.615 182.511 168.074 173.056C173.533 163.601 175.45 158.825 175.84 152.327L184.665 157.421C179.862 161.372 176.054 165.057 170.595 174.512C165.136 183.967 163.849 189.107 162.829 195.242Z" fill="#FCFCFC"/>
<path opacity="0.6" d="M191.579 145.445L182.754 140.35C188.187 136.763 190.735 132.351 196.193 122.896C201.652 113.441 204.2 109.028 204.59 102.53L213.415 107.625C208.612 111.576 205.434 115.624 199.975 125.079C194.517 134.534 192.599 139.31 191.579 145.445Z" fill="#FCFCFC"/>
<path d="M191.579 145.445L182.754 140.35C188.187 136.763 191.365 132.715 196.824 123.26C202.283 113.805 204.2 109.028 204.59 102.53L213.415 107.625C208.612 111.576 204.804 115.26 199.345 124.715C193.886 134.17 192.599 139.31 191.579 145.445Z" fill="#FCFCFC"/>
<path fill-rule="evenodd" clip-rule="evenodd" d="M181.647 147.695C180.989 148.834 181.379 150.291 182.518 150.949C183.658 151.606 185.115 151.216 185.772 150.077C186.43 148.937 186.04 147.48 184.9 146.823C183.761 146.165 182.304 146.555 181.647 147.695ZM179.342 156.45C175.165 154.038 173.734 148.696 176.145 144.518C178.557 140.341 183.899 138.91 188.077 141.322C192.254 143.733 193.685 149.075 191.273 153.253C188.862 157.43 183.52 158.861 179.342 156.45Z" fill="#FCFCFC"/>
<path fill-rule="evenodd" clip-rule="evenodd" d="M152.897 197.491C152.239 198.63 152.629 200.087 153.768 200.745C154.908 201.403 156.365 201.012 157.022 199.873C157.68 198.734 157.29 197.277 156.15 196.619C155.011 195.961 153.554 196.352 152.897 197.491ZM150.592 206.246C146.415 203.834 144.984 198.492 147.395 194.315C149.807 190.137 155.149 188.706 159.327 191.118C163.504 193.53 164.935 198.872 162.523 203.049C160.112 207.227 154.77 208.658 150.592 206.246Z" fill="#FCFCFC"/>
<path fill-rule="evenodd" clip-rule="evenodd" d="M210.397 97.8982C209.739 99.0375 210.129 100.494 211.268 101.152C212.408 101.81 213.865 101.42 214.522 100.28C215.18 99.1409 214.79 97.6841 213.65 97.0263C212.511 96.3685 211.054 96.7589 210.397 97.8982ZM208.092 106.653C203.915 104.241 202.484 98.8996 204.895 94.7221C207.307 90.5446 212.649 89.1133 216.827 91.5252C221.004 93.9371 222.435 99.2788 220.023 103.456C217.612 107.634 212.27 109.065 208.092 106.653Z" fill="#FCFCFC"/>
<path fill-rule="evenodd" clip-rule="evenodd" d="M183.71 146.503C182.394 146.503 181.328 147.57 181.328 148.885C181.328 150.201 182.394 151.267 183.71 151.267C185.025 151.267 186.092 150.201 186.092 148.885C186.092 147.57 185.025 146.503 183.71 146.503ZM174.976 148.885C174.976 144.062 178.886 140.151 183.71 140.151C188.534 140.151 192.444 144.062 192.444 148.885C192.444 153.709 188.534 157.619 183.71 157.619C178.886 157.619 174.976 153.709 174.976 148.885Z" fill="#FCFCFC"/>
<path fill-rule="evenodd" clip-rule="evenodd" d="M126.21 146.503C124.894 146.503 123.828 147.57 123.828 148.885C123.828 150.201 124.894 151.267 126.21 151.267C127.525 151.267 128.592 150.201 128.592 148.885C128.592 147.57 127.525 146.503 126.21 146.503ZM117.476 148.885C117.476 144.062 121.386 140.151 126.21 140.151C131.034 140.151 134.944 144.062 134.944 148.885C134.944 153.709 131.034 157.619 126.21 157.619C121.386 157.619 117.476 153.709 117.476 148.885Z" fill="#FCFCFC"/>
<path fill-rule="evenodd" clip-rule="evenodd" d="M241.21 146.503C239.894 146.503 238.828 147.57 238.828 148.885C238.828 150.201 239.894 151.267 241.21 151.267C242.525 151.267 243.592 150.201 243.592 148.885C243.592 147.57 242.525 146.503 241.21 146.503ZM232.476 148.885C232.476 144.062 236.386 140.151 241.21 140.151C246.034 140.151 249.944 144.062 249.944 148.885C249.944 153.709 246.034 157.619 241.21 157.619C236.386 157.619 232.476 153.709 232.476 148.885Z" fill="#FCFCFC"/>
<path opacity="0.6" d="M161.952 104.262V94.0726C167.775 96.984 172.87 96.984 183.788 96.984C194.705 96.984 199.8 96.984 205.623 94.0726V104.262C199.8 102.079 194.705 101.351 183.788 101.351C172.87 101.351 167.775 102.079 161.952 104.262Z" fill="#FCFCFC"/>
<path d="M161.952 104.262V94.0726C167.775 96.984 172.87 97.7118 183.788 97.7118C194.705 97.7118 199.8 96.984 205.623 94.0726V104.262C199.8 102.079 194.705 100.623 183.788 100.623C172.87 100.623 167.775 102.079 161.952 104.262Z" fill="#FCFCFC"/>
<path opacity="0.6" d="M161.952 203.614V193.424C167.775 196.335 172.87 196.335 183.788 196.335C194.705 196.335 199.8 196.335 205.623 193.424V203.614C199.8 201.43 194.705 200.702 183.788 200.702C172.87 200.702 167.775 201.43 161.952 203.614Z" fill="#FCFCFC"/>
<path d="M161.952 203.614V193.424C167.775 196.335 172.87 197.063 183.788 197.063C194.705 197.063 199.8 196.335 205.623 193.424V203.614C199.8 201.43 194.705 199.975 183.788 199.975C172.87 199.975 167.775 201.43 161.952 203.614Z" fill="#FCFCFC"/>
<path opacity="0.6" d="M134.385 145.358L125.56 140.263C130.993 136.676 133.54 132.263 138.999 122.808C144.458 113.353 147.005 108.941 147.396 102.443L156.22 107.538C151.418 111.488 148.24 115.537 142.781 124.992C137.322 134.447 135.405 139.223 134.385 145.358Z" fill="#FCFCFC"/>
<path d="M134.385 145.358L125.56 140.263C130.993 136.676 134.171 132.627 139.629 123.172C145.088 113.717 147.005 108.941 147.396 102.443L156.22 107.538C151.418 111.488 147.61 115.173 142.151 124.628C136.692 134.083 135.405 139.223 134.385 145.358Z" fill="#FCFCFC"/>
<path opacity="0.6" d="M220.635 195.215L211.81 190.12C217.243 186.533 219.79 182.121 225.249 172.666C230.708 163.211 233.255 158.799 233.646 152.3L242.47 157.395C237.668 161.346 234.49 165.395 229.031 174.85C223.572 184.305 221.655 189.081 220.635 195.215Z" fill="#FCFCFC"/>
<path d="M220.635 195.215L211.81 190.12C217.243 186.533 220.421 182.485 225.879 173.03C231.338 163.575 233.255 158.799 233.646 152.3L242.47 157.395C237.668 161.346 233.86 165.031 228.401 174.486C222.942 183.941 221.655 189.081 220.635 195.215Z" fill="#FCFCFC"/>
<path fill-rule="evenodd" clip-rule="evenodd" d="M212.538 196.137C211.222 196.137 210.156 197.203 210.156 198.519C210.156 199.834 211.222 200.901 212.538 200.901C213.853 200.901 214.92 199.834 214.92 198.519C214.92 197.203 213.853 196.137 212.538 196.137ZM203.804 198.519C203.804 193.695 207.714 189.784 212.538 189.784C217.362 189.784 221.272 193.695 221.272 198.519C221.272 203.342 217.362 207.253 212.538 207.253C207.714 207.253 203.804 203.342 203.804 198.519Z" fill="#FCFCFC"/>
<path fill-rule="evenodd" clip-rule="evenodd" d="M155.038 96.7852C153.722 96.7852 152.656 97.8517 152.656 99.1673C152.656 100.483 153.722 101.549 155.038 101.549C156.353 101.549 157.42 100.483 157.42 99.1673C157.42 97.8517 156.353 96.7852 155.038 96.7852ZM146.304 99.1673C146.304 94.3435 150.214 90.4331 155.038 90.4331C159.862 90.4331 163.772 94.3435 163.772 99.1673C163.772 103.991 159.862 107.901 155.038 107.901C150.214 107.901 146.304 103.991 146.304 99.1673Z" fill="#FCFCFC"/>
<g opacity="0.75">
<path opacity="0.8" d="M192.522 148.206L233.282 146.842V151.209L192.522 149.844V148.206Z" fill="url(#paint1_linear_11_2)"/>
<path opacity="0.8" d="M188.936 155.894L210.497 190.511L206.715 192.694L187.518 156.713L188.936 155.894Z" fill="url(#paint2_linear_11_2)"/>
<path opacity="0.8" d="M177.94 158.897L158.742 194.878L154.96 192.694L176.521 158.078L177.94 158.897Z" fill="url(#paint3_linear_11_2)"/>
<path opacity="0.8" d="M178.784 141.79L157.222 107.174L161.004 104.99L180.202 140.972L178.784 141.79Z" fill="url(#paint4_linear_11_2)"/>
<path opacity="0.8" d="M188.895 140.244L208.093 104.263L211.875 106.446L190.313 141.063L188.895 140.244Z" fill="url(#paint5_linear_11_2)"/>
<path opacity="0.8" d="M175.054 148.206L134.294 146.842V151.209L175.054 149.844V148.206Z" fill="url(#paint6_linear_11_2)"/>
</g>
<path d="M378.371 181.633C367.19 181.633 357.92 177.953 350.56 170.593C343.2 163.163 339.52 153.998 339.52 143.1C339.52 132.202 343.2 123.073 350.56 115.713C357.92 108.283 367.19 104.568 378.371 104.568C385.094 104.568 391.286 106.16 396.948 109.344C402.68 112.529 407.138 116.846 410.322 122.295L399.707 128.451C397.726 124.772 394.825 121.87 391.003 119.747C387.253 117.553 383.042 116.457 378.371 116.457C370.445 116.457 364.006 118.969 359.052 123.993C354.169 129.018 351.728 135.387 351.728 143.1C351.728 150.814 354.169 157.183 359.052 162.207C364.006 167.232 370.445 169.744 378.371 169.744C383.042 169.744 387.288 168.682 391.109 166.559C394.931 164.366 397.797 161.429 399.707 157.749L410.322 163.799C407.209 169.248 402.786 173.601 397.054 176.856C391.392 180.04 385.165 181.633 378.371 181.633ZM428.64 158.598C429.489 162.632 431.435 165.746 434.478 167.939C437.521 170.062 441.236 171.124 445.624 171.124C451.71 171.124 456.274 168.93 459.317 164.542L468.765 170.062C463.528 177.776 455.779 181.633 445.518 181.633C436.884 181.633 429.914 179.014 424.606 173.778C419.299 168.47 416.645 161.783 416.645 153.715C416.645 145.789 419.263 139.173 424.5 133.865C429.737 128.487 436.46 125.798 444.669 125.798C452.453 125.798 458.822 128.522 463.776 133.971C468.8 139.42 471.312 146.037 471.312 153.821C471.312 155.024 471.171 156.617 470.888 158.598H428.64ZM428.534 149.257H459.742C458.964 144.94 457.159 141.685 454.328 139.491C451.568 137.297 448.313 136.2 444.562 136.2C440.316 136.2 436.778 137.368 433.947 139.703C431.117 142.039 429.312 145.223 428.534 149.257ZM492.864 136.094C495.765 129.513 501.215 126.222 509.211 126.222V138.642C504.824 138.359 501.002 139.42 497.747 141.826C494.492 144.162 492.864 148.054 492.864 153.503V180.253H481.4V127.178H492.864V136.094ZM548.645 138.217H535.482V163.693C535.482 165.887 535.978 167.479 536.969 168.47C537.959 169.39 539.41 169.921 541.321 170.062C543.302 170.133 545.744 170.098 548.645 169.956V180.253C539.87 181.314 533.572 180.571 529.75 178.024C525.929 175.405 524.018 170.628 524.018 163.693V138.217H514.252V127.178H524.018V115.713L535.482 112.317V127.178H548.645V138.217ZM569.87 117.093C568.455 118.509 566.756 119.216 564.775 119.216C562.793 119.216 561.06 118.509 559.574 117.093C558.158 115.607 557.451 113.874 557.451 111.892C557.451 109.911 558.158 108.212 559.574 106.797C560.989 105.311 562.723 104.568 564.775 104.568C566.827 104.568 568.561 105.311 569.976 106.797C571.392 108.212 572.099 109.911 572.099 111.892C572.099 113.874 571.356 115.607 569.87 117.093ZM559.043 180.253V127.178H570.507V180.253H559.043ZM611.629 115.607C603.279 114.829 599.104 118.332 599.104 126.116V127.178H611.629V138.217H599.104V180.253H587.639V138.217H579.572V127.178H587.639V126.116C587.639 118.827 589.656 113.307 593.69 109.557C597.794 105.735 603.774 104.072 611.629 104.568V115.607ZM657.885 127.178H669.349V180.253H657.885V172.61C653.568 178.625 647.376 181.633 639.309 181.633C632.02 181.633 625.792 178.944 620.626 173.565C615.46 168.116 612.877 161.5 612.877 153.715C612.877 145.86 615.46 139.243 620.626 133.865C625.792 128.487 632.02 125.798 639.309 125.798C647.376 125.798 653.568 128.77 657.885 134.714V127.178ZM629.118 165.922C632.303 169.107 636.301 170.699 641.113 170.699C645.925 170.699 649.924 169.107 653.108 165.922C656.293 162.667 657.885 158.598 657.885 153.715C657.885 148.832 656.293 144.799 653.108 141.614C649.924 138.359 645.925 136.731 641.113 136.731C636.301 136.731 632.303 138.359 629.118 141.614C625.934 144.799 624.342 148.832 624.342 153.715C624.342 158.598 625.934 162.667 629.118 165.922ZM707.763 181.633C699.766 181.633 693.079 178.944 687.701 173.565C682.393 168.187 679.739 161.57 679.739 153.715C679.739 145.789 682.393 139.173 687.701 133.865C693.079 128.487 699.766 125.798 707.763 125.798C712.929 125.798 717.635 127.036 721.881 129.513C726.127 131.99 729.312 135.316 731.435 139.491L721.563 145.223C720.36 142.676 718.52 140.694 716.043 139.279C713.637 137.793 710.841 137.05 707.657 137.05C702.986 137.05 699.059 138.642 695.874 141.826C692.761 145.011 691.204 148.974 691.204 153.715C691.204 158.457 692.761 162.419 695.874 165.604C699.059 168.788 702.986 170.381 707.657 170.381C710.771 170.381 713.566 169.638 716.043 168.152C718.59 166.665 720.501 164.684 721.775 162.207L731.647 167.833C729.382 172.079 726.127 175.441 721.881 177.917C717.635 180.394 712.929 181.633 707.763 181.633ZM769.549 138.217H756.386V163.693C756.386 165.887 756.882 167.479 757.872 168.47C758.863 169.39 760.314 169.921 762.225 170.062C764.206 170.133 766.648 170.098 769.549 169.956V180.253C760.774 181.314 754.476 180.571 750.654 178.024C746.833 175.405 744.922 170.628 744.922 163.693V138.217H735.156V127.178H744.922V115.713L756.386 112.317V127.178H769.549V138.217Z" fill="#0E0E0F"/>
<defs>
<radialGradient id="paint0_radial_11_2" cx="0" cy="0" r="1" gradientUnits="userSpaceOnUse" gradientTransform="translate(238.994 243.616) rotate(-119.701) scale(304.711 309.506)">
<stop stop-color="#151E28"/>
<stop offset="1" stop-color="#151E28" stop-opacity="0.75"/>
</radialGradient>
<linearGradient id="paint1_linear_11_2" x1="233.282" y1="149.025" x2="192.522" y2="149.025" gradientUnits="userSpaceOnUse">
<stop offset="0.352083" stop-color="#FCFCFC"/>
<stop offset="1" stop-color="white" stop-opacity="0"/>
</linearGradient>
<linearGradient id="paint2_linear_11_2" x1="208.606" y1="191.602" x2="188.227" y2="156.304" gradientUnits="userSpaceOnUse">
<stop offset="0.352083" stop-color="#FCFCFC"/>
<stop offset="1" stop-color="white" stop-opacity="0"/>
</linearGradient>
<linearGradient id="paint3_linear_11_2" x1="156.851" y1="193.786" x2="177.231" y2="158.487" gradientUnits="userSpaceOnUse">
<stop offset="0.352083" stop-color="#FCFCFC"/>
<stop offset="1" stop-color="white" stop-opacity="0"/>
</linearGradient>
<linearGradient id="paint4_linear_11_2" x1="159.113" y1="106.082" x2="179.493" y2="141.381" gradientUnits="userSpaceOnUse">
<stop offset="0.352083" stop-color="#FCFCFC"/>
<stop offset="1" stop-color="white" stop-opacity="0"/>
</linearGradient>
<linearGradient id="paint5_linear_11_2" x1="209.984" y1="105.354" x2="189.604" y2="140.653" gradientUnits="userSpaceOnUse">
<stop offset="0.352083" stop-color="#FCFCFC"/>
<stop offset="1" stop-color="white" stop-opacity="0"/>
</linearGradient>
<linearGradient id="paint6_linear_11_2" x1="134.294" y1="149.025" x2="175.054" y2="149.025" gradientUnits="userSpaceOnUse">
<stop offset="0.352083" stop-color="#FCFCFC"/>
<stop offset="1" stop-color="white" stop-opacity="0"/>
</linearGradient>
</defs>
</svg>
