<svg width="25" height="26" viewBox="0 0 25 26" fill="none" xmlns="http://www.w3.org/2000/svg">
<path d="M4.56485 0.850098C2.03612 0.850098 0 2.88622 0 5.41495V21.2853C0 23.814 2.03612 25.8501 4.56485 25.8501H13.1664V16.0767H10.5821V12.5579H13.1664V9.55167C13.1664 7.1898 14.6934 5.0212 18.211 5.0212C19.6352 5.0212 20.6883 5.15792 20.6883 5.15792L20.6055 8.44387C20.6055 8.44387 19.5314 8.43372 18.3594 8.43372C17.0909 8.43372 16.8875 9.01817 16.8875 9.98842V12.5579H20.7063L20.5399 16.0767H16.8875V25.8501H20.4352C22.9639 25.8501 25 23.814 25 21.2853V5.41497C25 2.88625 22.9639 0.850123 20.4352 0.850123H4.56483L4.56485 0.850098Z" fill="white"/>
</svg>
