<svg width="372" height="385" viewBox="0 0 372 385" fill="none" xmlns="http://www.w3.org/2000/svg">
<rect x="176.513" y="43.8289" width="201.277" height="202.402" rx="100.639" transform="rotate(26.8588 176.513 43.8289)" fill="#97CEFF"/>
<g clip-path="url(#clip0_59_3)">
<path d="M316.096 52.8299C305.436 41.0549 289.652 35.1028 274.439 39.6137C274.305 39.5061 274.148 39.4296 273.981 39.3897C273.813 39.3498 273.639 39.3476 273.47 39.3832C273.301 39.4187 273.143 39.4912 273.005 39.5954C272.868 39.6995 272.756 39.8328 272.676 39.9857C241.443 90.1061 197.913 133.877 151.907 170.566C129.205 188.671 106.518 206.759 83.0329 223.852C64.4627 237.375 44.8479 249.284 25.9736 262.346C24.9524 262.759 23.9825 263.288 23.083 263.924C12.6506 271.523 18.5642 284.215 23.3809 293.862C34.1512 315.438 50.2485 331.649 69.679 345.71C78.6062 352.169 112.118 372.525 119.599 364.111C120.097 364.222 120.618 364.165 121.08 363.949C121.542 363.732 121.92 363.369 122.155 362.916C127.583 353.114 127.899 341.522 129.862 330.648C133.48 313.396 138.945 296.584 146.162 280.503C158.512 250.593 181.877 226.416 206.118 205.791C231.6 184.111 258.745 164.442 285.8 144.804C292.03 140.284 298.198 135.69 304.613 131.428C309.823 127.962 317.54 124.933 321.696 120.209C326.614 114.617 324.832 108.296 322.129 102.242C323.22 101.614 324.322 100.992 325.416 100.354C325.599 100.244 325.757 100.096 325.877 99.9193C326.236 99.9553 326.597 99.8653 326.897 99.6646C327.198 99.464 327.419 99.1651 327.523 98.8193C330.654 81.9078 327.849 65.8126 316.096 52.8299Z" fill="#4B1E0A"/>
<path d="M112.794 363.853C96.5588 361.774 81.0759 348.616 68.2105 339.344C56.7978 330.992 46.5746 321.125 37.8222 310.015C29.1102 299.149 7.63089 261.762 40.409 266.149C45.1675 266.805 49.859 267.879 54.4294 269.358C52.5651 270.846 50.801 272.456 49.1487 274.176C46.3221 276.837 43.9151 279.911 42.0095 283.293C41.4172 284.094 41.0235 285.024 40.8605 286.006C40.6976 286.988 40.7702 287.995 41.0724 288.944C42.7983 296.12 46.4985 302.668 51.754 307.848C51.7614 308.02 51.8277 308.185 51.9417 308.314C52.0558 308.443 52.2107 308.529 52.3806 308.558C52.5005 308.578 52.6232 308.595 52.7462 308.615C53.0277 308.625 53.302 308.525 53.5112 308.336C53.7204 308.148 53.8481 307.885 53.8673 307.604C59.4045 301.886 65.4448 296.677 71.9152 292.042C83.4537 299.994 92.7433 312.132 100.638 323.392C103.025 326.794 126.354 365.585 112.794 363.853Z" fill="#F4F4E6"/>
<path d="M112.794 363.853C96.5588 361.774 81.0759 348.616 68.2105 339.344C56.7978 330.992 46.5746 321.125 37.8222 310.015C29.1102 299.149 7.63089 261.762 40.409 266.149C45.1675 266.805 49.859 267.879 54.4294 269.358C52.5651 270.846 50.801 272.456 49.1487 274.176C46.3221 276.837 43.9151 279.911 42.0095 283.293C41.4172 284.094 41.0235 285.024 40.8605 286.006C40.6976 286.988 40.7702 287.995 41.0724 288.944C42.7983 296.12 46.4985 302.668 51.754 307.848C51.7614 308.02 51.8277 308.185 51.9417 308.314C52.0558 308.443 52.2107 308.529 52.3806 308.558C52.5005 308.578 52.6232 308.595 52.7462 308.615C53.0277 308.625 53.302 308.525 53.5112 308.336C53.7204 308.148 53.8481 307.885 53.8673 307.604C59.4045 301.886 65.4448 296.677 71.9152 292.042C83.4537 299.994 92.7433 312.132 100.638 323.392C103.025 326.794 126.354 365.585 112.794 363.853Z" fill="#D3C7A7"/>
<g style="mix-blend-mode:multiply">
<path d="M25.2888 283.177C26.9689 274.126 35.0946 276.257 43.309 281.15C44.9913 278.616 46.9499 276.277 49.1487 274.176C50.801 272.456 52.5651 270.846 54.4295 269.358C49.8591 267.879 45.1675 266.805 40.409 266.149C21.6822 263.643 20.6746 274.774 24.871 286.802C24.9479 285.587 25.0873 284.377 25.2888 283.177Z" fill="#D3C7A7"/>
</g>
<g style="mix-blend-mode:multiply">
<path d="M100.639 323.392C92.7434 312.132 83.4538 299.994 71.9153 292.042C69.3166 294.017 66.699 296.045 64.1309 298.137C80.2649 315.135 95.5082 336.262 103.434 358.322C103.75 359.201 104.168 360.456 104.598 361.888C107.258 362.815 110.004 363.473 112.794 363.853C126.354 365.585 103.025 326.794 100.639 323.392Z" fill="#D3C7A7"/>
</g>
<path d="M45.9602 283.489C46.3195 283.401 46.685 283.326 47.06 283.266C52.4371 283.466 57.7291 284.672 62.6624 286.821C63.6178 287.256 64.5395 287.688 65.4366 288.118C66.9233 288.867 68.3486 289.734 69.7648 290.624C66.296 292.164 63.0899 294.238 60.2632 296.771C56.7522 299.211 53.9379 302.524 52.0979 306.384C48.9897 302.62 46.4792 298.401 44.6544 293.873C43.7686 291.62 43.267 289.234 43.1706 286.815C43.1623 286.558 43.1767 286.301 43.2137 286.047C43.5239 286.394 44.2367 286.039 44.3625 285.61C44.5977 284.721 45.1711 283.96 45.9602 283.489Z" fill="#F4F4E6"/>
<g style="mix-blend-mode:multiply" opacity="0.5">
<path d="M45.9602 283.489C46.3195 283.401 46.685 283.326 47.06 283.266C52.4371 283.466 57.7291 284.672 62.6624 286.821C63.6178 287.256 64.5395 287.688 65.4366 288.118C66.9233 288.867 68.3486 289.734 69.7648 290.624C66.296 292.164 63.0899 294.238 60.2632 296.771C56.7522 299.211 53.9379 302.524 52.0979 306.384C48.9897 302.62 46.4792 298.401 44.6544 293.873C43.7686 291.62 43.267 289.234 43.1706 286.815C43.1623 286.558 43.1767 286.301 43.2137 286.047C43.5239 286.394 44.2367 286.039 44.3625 285.61C44.5977 284.721 45.1711 283.96 45.9602 283.489Z" fill="#D3C7A7"/>
</g>
<g style="mix-blend-mode:multiply">
<path d="M43.6959 288.288C50.7833 284.181 58.5645 288.262 65.0434 293.156C66.503 292.114 68.0897 291.263 69.7648 290.624C68.3486 289.734 66.9233 288.867 65.4366 288.118C64.5395 287.688 63.6178 287.256 62.6624 286.821C57.7291 284.672 52.4371 283.466 47.06 283.266C46.685 283.326 46.3195 283.401 45.9602 283.489C45.1711 283.96 44.5977 284.721 44.3625 285.61C44.2367 286.039 43.5239 286.394 43.2137 286.047C43.1767 286.301 43.1623 286.558 43.1706 286.815C43.1952 287.388 43.315 287.947 43.3826 288.516C43.4934 288.443 43.5792 288.357 43.6959 288.288Z" fill="#D3C7A7"/>
</g>
<path d="M288.663 138.047C275.92 147.28 263.19 156.531 250.567 165.924C227.16 182.714 204.884 201.027 183.883 220.745C165.379 238.55 150.682 259.93 140.685 283.587C135.523 295.322 131.256 307.431 127.921 319.811C125.125 331.252 125.11 345.1 120.822 356.398C120.158 353.23 119.138 350.148 117.78 347.209C108.601 326.234 90.974 298.13 68.0172 286.752C63.7832 284.039 59.1598 281.989 54.3069 280.674C51.9522 280.059 49.4975 279.927 47.0906 280.287C48.1626 279.068 49.241 277.855 50.3807 276.708C51.8372 275.274 53.3913 273.942 55.0316 272.723C56.0332 271.958 57.1238 271.354 58.1037 270.621C78.9504 278.214 97.5205 293.074 114.008 306.951C113.94 307.475 113.848 308 113.799 308.521C113.71 309.417 114.828 309.406 115.273 308.913C115.44 308.73 115.605 308.546 115.771 308.366C115.883 308.236 115.951 308.073 115.965 307.902C116.711 307.608 117.277 306.57 116.585 305.941C116.518 305.877 116.447 305.817 116.383 305.754C121.734 299.764 125.749 285.516 128.922 279.36C135.959 266.412 144.027 254.051 153.047 242.397C167.107 223.982 182.548 206.663 199.234 190.59C217.585 172.356 237.31 155.561 258.235 140.353C277.677 126.204 299.135 115.377 319.966 103.482C321.211 121.808 301.565 128.698 288.663 138.047Z" fill="#F4F4E6"/>
<g style="mix-blend-mode:multiply">
<path d="M258.235 140.353C237.31 155.561 217.585 172.356 199.234 190.59C182.547 206.663 167.107 223.982 153.046 242.397C144.026 254.051 135.959 266.412 128.922 279.36C125.749 285.516 121.734 299.764 116.382 305.754C116.447 305.817 116.517 305.877 116.585 305.941C117.277 306.57 116.711 307.608 115.965 307.902C115.951 308.073 115.883 308.236 115.771 308.366C115.605 308.546 115.439 308.73 115.273 308.913C114.828 309.406 113.71 309.417 113.799 308.521C113.848 308 113.94 307.475 114.008 306.951C111.787 305.081 109.526 303.201 107.225 301.311C111.771 306.361 115.205 312.31 117.304 318.774C117.474 319.456 117.418 320.174 117.145 320.822C116.872 321.469 116.396 322.011 115.789 322.364C115.181 322.718 114.476 322.865 113.778 322.783C113.08 322.701 112.427 322.394 111.919 321.909C99.5019 310.612 88.1846 297.018 73.1443 289.096C70.6956 287.807 68.0539 286.457 65.2922 285.175C66.2136 285.684 67.129 286.202 68.0171 286.752C90.9739 298.13 108.601 326.234 117.78 347.209C119.138 350.148 120.158 353.23 120.821 356.398C125.11 345.1 125.125 331.252 127.921 319.811C131.256 307.431 135.523 295.322 140.685 283.587C150.682 259.93 165.378 238.55 183.883 220.745C204.884 201.027 227.16 182.714 250.567 165.924C263.19 156.531 275.92 147.28 288.663 138.047C301.565 128.698 321.211 121.808 319.966 103.482C299.135 115.377 277.677 126.204 258.235 140.353Z" fill="#D3C7A7"/>
</g>
<path d="M325.146 97.61C324.882 97.5701 324.613 97.6125 324.375 97.7315C276.576 119.929 232.986 150.245 195.539 187.334C176.337 206.198 158.808 226.693 143.149 248.588C132.256 263.953 118.02 284.473 114.45 304.002C99.6587 290.563 85.0204 278.007 66.1923 270.51C64.3766 269.792 62.2356 268.876 59.91 267.916C59.8407 267.74 59.714 267.593 59.5505 267.499C59.387 267.405 59.1965 267.369 59.01 267.398C58.927 267.401 58.8411 267.435 58.7549 267.442C50.9645 264.243 41.1769 260.634 32.8889 260.913C50.8815 253.108 69.8571 238.332 85.1774 227.52C111.876 208.681 137.705 188.304 162.932 167.548C204.601 133.273 248.721 90.1385 273.979 41.7247C281.225 41.2873 288.478 42.4739 295.208 45.1979C301.938 47.9219 307.974 52.1146 312.877 57.4699C317.781 62.8252 321.426 69.208 323.549 76.1524C325.671 83.0969 326.217 90.4278 325.146 97.61Z" fill="#F4F4E6"/>
<path opacity="0.5" d="M198.426 141.932C198.927 141.459 199.567 141.16 200.251 141.079C216.242 125.392 231.398 108.875 245.655 91.5963C258.557 76.0574 269.279 60.1616 275.607 41.748C275.06 41.7493 274.529 41.708 273.979 41.7247C248.721 90.1385 204.601 133.273 162.932 167.548C137.705 188.304 111.876 208.681 85.1774 227.52C69.8571 238.332 50.8815 253.108 32.8889 260.913C39.2967 261.036 45.6299 262.313 51.5849 264.683C78.4784 245.871 104.147 225.366 128.434 203.29C151.606 182.671 175.478 162.755 198.426 141.932Z" fill="#D3C7A7"/>
<path opacity="0.5" d="M203.335 167.715C163.66 205.057 125.804 248.849 113.452 303.104C113.784 303.406 114.118 303.7 114.45 304.002C118.02 284.473 132.256 263.953 143.149 248.588C158.808 226.693 176.337 206.198 195.539 187.334C232.986 150.245 276.576 119.929 324.375 97.7315C324.613 97.6125 324.882 97.5701 325.146 97.61C325.305 96.3055 325.345 95.0289 325.41 93.7473C280.119 109.856 238.584 135.024 203.335 167.715Z" fill="#D3C7A7"/>
<path d="M159.903 187.173C134.486 208.206 104.122 230.765 88.1724 260.295C87.4105 261.707 89.3029 263.303 90.4517 262.053C101.747 249.715 112.023 236.485 123.304 224.117C129.331 217.514 135.751 211.247 142.046 204.906C148.067 198.842 155.633 194.935 161.292 188.565C161.466 188.379 161.561 188.132 161.557 187.877C161.553 187.622 161.451 187.378 161.27 187.197C161.09 187.017 160.847 186.913 160.592 186.909C160.337 186.904 160.09 186.999 159.903 187.173Z" fill="white"/>
<path d="M290.918 57.6743C278.488 74.8803 264.09 94.8307 246.328 106.974C245.658 107.432 246.064 108.7 246.914 108.366C255.233 105.104 262.459 96.9077 269.321 91.294C280.016 82.675 289.544 72.6998 297.664 61.6198C300.61 57.5082 293.836 53.6335 290.918 57.6743Z" fill="white"/>
<path d="M342.89 197.616C341.867 195.69 340.604 193.902 339.129 192.295C338.535 190.969 337.799 189.709 336.936 188.539C333.65 184.005 330.043 179.715 326.141 175.699C320.622 169.43 313.74 164.511 306.023 161.317C298.307 158.124 289.961 156.743 281.628 157.279C270.743 158.266 259.974 160.266 249.461 163.253C237.023 166.511 220.919 176.52 207.421 172.971C219.285 165.371 246.967 127.324 248.739 125.268C255.992 116.858 244.66 109.88 238.666 106.034C225.183 97.3826 208.828 100.285 194.365 104.124C191.081 104.995 177.752 107.818 179.318 114.388C180.959 121.254 187.803 127.324 190.07 134.441C193.31 145.104 194.942 156.191 194.912 167.335C194.85 167.326 194.783 167.309 194.721 167.3C194.448 167.268 194.193 167.306 193.926 167.298C193.903 167.21 193.864 167.127 193.812 167.052C188.894 160.731 181.764 152.51 173.497 150.76C165.854 149.142 161.66 153.779 156.982 159.095C154.982 161.372 149.459 167.672 152.865 170.973C155.501 173.528 159.79 174.104 163.108 175.529C169.422 178.417 174.869 182.911 178.904 188.563C178.944 188.628 179.011 188.631 179.07 188.667C179.201 189.039 179.364 189.399 179.555 189.745C168.499 205.065 165.94 231.263 165.587 247.531C165.476 252.736 165.098 267.573 169.181 271.789C175.226 278.037 186.679 270.905 193.431 269.179C198.844 267.793 205.166 268.303 209.381 264.313C213.116 260.773 204.543 243.095 203.845 240.481C201.28 230.844 198.961 221.208 196.319 211.629C203.052 230.138 212.373 247.861 215.9 267.332C219.397 286.248 218.447 305.718 213.123 324.203C211.101 331.579 206.896 340.431 207.737 348.22C207.78 348.409 207.882 348.58 208.028 348.708C208.173 348.836 208.355 348.915 208.548 348.933C215.633 350.003 222.938 336.086 226.142 331.411C231.187 324.563 235.337 317.098 238.491 309.199C243.578 294.976 251.464 323.787 253.012 329.642C253.676 332.16 256.892 330.432 257.025 328.49C258.671 303.895 258.287 274.219 248.386 251.117C243.058 238.677 234.947 227.628 224.676 218.818C222.059 216.492 196.697 198.404 194.098 190.869C195.932 189.593 197.529 187.768 199.292 186.545C200.527 185.692 201.686 185.025 202.715 184.269C206.991 194.181 237.41 191.836 244.199 191.304C265.687 189.617 286.801 188.763 305.476 201.365C312.965 206.421 319.607 218.632 328.276 220.779C328.621 220.806 328.967 220.727 329.267 220.554C329.567 220.381 329.807 220.12 329.956 219.808C334.718 208.377 327.152 195.514 320.301 186.648C313.62 177.999 326.817 187.499 330.614 189.471C331.959 190.171 334.101 191.573 335.922 192.581C337.504 194.889 339.007 197.187 340.395 199.409C341.36 200.933 343.639 199.055 342.89 197.616Z" fill="#4B1E0A"/>
<path d="M213.374 165.971C205.596 173.972 204.478 164.633 207.479 158.189C210.942 151.763 215.22 145.811 220.207 140.48C227.463 131.838 236.476 126.584 245.213 120.047C242.687 133.663 217.387 161.833 213.374 165.971Z" fill="#6F0028"/>
<path d="M169.792 177.145C167.514 175.279 164.971 173.762 162.247 172.642C160.874 172.055 159.482 171.516 158.072 171.025C154.276 169.629 154.647 165.771 156.745 162.939C160.972 157.239 166.462 151.409 174.151 154.055C181.383 156.542 185.355 163.025 190.854 167.705C187.034 169.364 183.964 172.378 182.234 176.166C181.002 178.469 177.638 185.248 181.1 187.073C180.824 187.288 180.588 187.549 180.403 187.846C180.07 187.592 179.772 187.296 179.515 186.966C179.49 186.936 179.457 186.933 179.432 186.913C177.303 182.656 173.343 180.344 169.792 177.145Z" fill="#DA243F"/>
<g style="mix-blend-mode:multiply">
<path d="M163.621 162.054C164.798 159.894 166.516 158.077 168.606 156.78C170.697 155.483 173.088 154.752 175.546 154.657C175.085 154.452 174.643 154.223 174.151 154.055C166.462 151.409 160.972 157.239 156.745 162.939C154.647 165.771 154.276 169.629 158.072 171.025C159.482 171.516 160.874 172.054 162.247 172.642C162.401 172.712 162.558 172.791 162.711 172.861C161.917 171.135 161.584 169.232 161.743 167.338C161.903 165.444 162.549 163.624 163.621 162.054Z" fill="#A8243F"/>
</g>
<g style="mix-blend-mode:multiply">
<path d="M176.682 181.777C176.612 182.11 176.483 182.429 176.302 182.717C177.57 183.933 178.627 185.351 179.432 186.913C179.457 186.933 179.49 186.936 179.515 186.965C179.772 187.296 180.07 187.592 180.403 187.846C180.588 187.549 180.824 187.288 181.1 187.073C177.638 185.248 181.002 178.469 182.234 176.166C183.63 173.37 185.658 170.937 188.156 169.06C180.986 169.685 178.142 174.813 176.682 181.777Z" fill="#A8243F"/>
</g>
<path d="M204.164 263.938C195.913 266.049 187.348 266.82 179.263 269.939C163.261 276.115 169.657 230.136 170.68 224.014C172.867 210.916 177.07 193.614 186.614 183.821C186.716 183.825 186.808 183.816 186.903 183.83C181.315 191.226 183.306 207.778 184.424 215.315C186.68 232.729 193.823 249.147 205.025 262.667C204.856 263.339 204.601 263.827 204.164 263.938Z" fill="#DA243F"/>
<g style="mix-blend-mode:multiply">
<path d="M184.424 215.315C183.306 207.778 181.315 191.226 186.903 183.83C186.808 183.816 186.716 183.825 186.614 183.821C177.143 193.537 172.941 210.635 170.738 223.695C170.963 223.18 171.233 222.667 171.515 222.154C172.598 216.528 174.289 211.037 176.56 205.777C177.85 202.912 180.735 197.978 180.394 201.111C179.217 211.966 183.426 223.75 186.16 234.411C187.732 240.551 192.347 250.115 192.976 256.437C193.388 260.573 181.773 262.893 181.364 258.797C180.512 253.009 179.269 247.286 177.644 241.666C177.239 247.876 177.183 254.111 177.06 260.37C177.04 261.068 176.795 261.74 176.363 262.288C175.931 262.835 175.334 263.23 174.661 263.412C173.988 263.594 173.274 263.555 172.624 263.301C171.975 263.046 171.425 262.589 171.055 261.997C170.154 260.806 169.468 259.466 169.027 258.04C170.02 266.451 172.821 272.425 179.263 269.939C187.348 266.82 195.913 266.049 204.164 263.938C204.601 263.827 204.856 263.339 205.025 262.667C193.823 249.147 186.68 232.729 184.424 215.315Z" fill="#A8243F"/>
</g>
<path d="M198.402 230.022C198.893 231.839 204.717 250.957 205.191 259.661C197.796 249.714 192.444 238.401 189.442 226.375C186.441 214.349 185.849 201.847 187.702 189.591C188.992 181.207 189.437 196.361 189.705 198.705C190.885 208.938 195.689 220.04 198.402 230.022Z" fill="#6F0028"/>
<path d="M238.377 240.598C252.358 261.642 254.401 291.877 253.522 317.741C250.739 310.307 247.031 302.835 241.336 298.342C240.568 297.731 239.52 298.389 239.278 299.224C236.44 308.823 232.195 317.948 226.682 326.302C223.942 330.349 221.053 334.285 218.013 338.109C217.144 339.232 208.779 347.789 211.027 341.263C217.054 324.752 220.466 307.4 221.14 289.835C221.749 254.598 201.47 224.792 192.709 191.696C193.159 191.475 193.59 191.218 193.999 190.928C202.936 211.695 225.834 221.716 238.377 240.598Z" fill="#DA243F"/>
<g style="mix-blend-mode:multiply">
<path d="M209.018 226.832C208.336 225.191 210.779 224.271 211.648 225.302C221.545 237.561 229.379 251.352 234.841 266.132C235.794 253.151 224.108 239.047 218.615 228.389C218.059 227.308 219.005 225.494 220.391 226.078C225.245 228.161 229.741 230.996 233.714 234.479C220.79 219.307 201.919 209.332 193.999 190.928C193.59 191.218 193.159 191.475 192.709 191.696C200.533 221.255 217.503 248.202 220.618 278.727C220.938 260.997 215.989 243.58 209.018 226.832Z" fill="#A8243F"/>
</g>
<g style="mix-blend-mode:multiply">
<path d="M251.507 277.653C251.212 282.586 250.241 287.454 248.623 292.123C248.543 292.384 248.399 292.62 248.203 292.81C248.006 292.999 247.765 293.135 247.502 293.204C247.238 293.274 246.961 293.275 246.697 293.207C246.433 293.14 246.19 293.006 245.993 292.818C244.058 290.512 242.564 287.87 241.585 285.023C238.89 280.09 237.505 288.354 236.931 290.548C235.567 295.744 233.809 300.896 232.015 305.957C229.61 312.746 224.867 331.251 215.254 331.037C214.937 331.018 214.633 330.909 214.376 330.722C213.341 334.276 212.224 337.79 211.028 341.263C208.779 347.789 217.144 339.232 218.013 338.109C221.054 334.285 223.944 330.349 226.682 326.302C232.195 317.948 236.44 308.823 239.278 299.224C239.52 298.389 240.568 297.731 241.336 298.342C247.031 302.835 250.739 310.307 253.522 317.741C254.113 304.345 253.438 290.923 251.507 277.653Z" fill="#A8243F"/>
</g>
<path d="M201.096 182.381C198.733 184.052 196.445 186.122 194.085 187.943C194.027 187.945 193.97 187.964 193.923 187.998C193.732 188.153 193.541 188.308 193.351 188.462C193.333 188.479 193.321 188.507 193.302 188.525C193.013 188.742 192.718 188.974 192.43 189.178C192.345 188.213 192.199 187.254 191.99 186.308C192.166 186.18 192.306 186.008 192.394 185.809C192.482 185.61 192.515 185.391 192.491 185.174C192.334 184.681 192.08 184.225 191.742 183.833C191.405 183.441 190.992 183.121 190.528 182.893C190.436 182.756 190.377 182.593 190.276 182.467C190.094 182.208 189.82 182.029 189.51 181.967C189.201 181.905 188.879 181.964 188.611 182.132C188.418 182.083 188.23 182.009 188.043 181.975C187.089 181.834 186.114 182.009 185.269 182.474C184.424 182.939 183.755 183.668 183.364 184.55C183.335 184.592 183.314 184.638 183.304 184.688C183.293 184.737 183.292 184.788 183.302 184.838C183.311 184.887 183.331 184.935 183.359 184.977C183.387 185.019 183.423 185.054 183.466 185.082C182.974 185.561 182.528 186.102 182.065 186.617C182.065 186.558 182.053 186.499 182.031 186.445C182.008 186.39 181.975 186.34 181.933 186.299C179.635 184.068 183.186 179.151 184.378 177.076C185.189 175.213 186.503 173.612 188.172 172.454C189.842 171.297 191.801 170.627 193.83 170.522C198.189 170.477 206.631 178.463 201.096 182.381Z" fill="#DA243F"/>
<g style="mix-blend-mode:multiply">
<path d="M201.231 175.045C200.944 176.183 200.399 177.241 199.639 178.135C198.879 179.03 197.924 179.738 196.847 180.205C195.351 180.929 194.347 180.106 192.915 179.789C190.436 179.24 187.99 180.204 185.478 179.815C184.553 179.672 184.273 178.648 184.378 177.881C184.442 177.449 184.54 177.022 184.67 176.605C184.571 176.764 184.47 176.914 184.378 177.076C183.186 179.151 179.635 184.068 181.933 186.299C181.975 186.34 182.008 186.39 182.031 186.445C182.053 186.499 182.065 186.558 182.065 186.617C182.528 186.102 182.974 185.561 183.466 185.082C183.423 185.054 183.387 185.019 183.359 184.977C183.331 184.935 183.311 184.887 183.302 184.838C183.292 184.788 183.293 184.737 183.304 184.688C183.314 184.638 183.335 184.591 183.364 184.55C183.755 183.668 184.424 182.939 185.269 182.474C186.114 182.009 187.089 181.834 188.043 181.975C188.23 182.009 188.418 182.083 188.611 182.132C188.879 181.964 189.201 181.905 189.51 181.967C189.82 182.029 190.094 182.208 190.276 182.467C190.377 182.593 190.436 182.756 190.528 182.893C190.992 183.121 191.405 183.441 191.742 183.833C192.08 184.225 192.334 184.681 192.491 185.174C192.515 185.391 192.482 185.61 192.394 185.809C192.306 186.008 192.166 186.18 191.99 186.308C192.199 187.254 192.345 188.213 192.43 189.178C192.718 188.974 193.013 188.742 193.302 188.525C193.321 188.507 193.333 188.479 193.351 188.462C193.542 188.308 193.732 188.154 193.923 187.998C193.97 187.964 194.027 187.944 194.085 187.943C196.445 186.122 198.733 184.052 201.096 182.381C203.833 180.442 203.148 177.509 201.231 175.045Z" fill="#A8243F"/>
</g>
<path d="M201.584 170.383C199.917 169.086 198.014 168.125 195.981 167.552C197.572 152.602 195.501 135.134 188.113 121.947C186.55 119.149 179.515 113.467 186.154 110.181C191.573 107.851 197.251 106.179 203.068 105.198C210.063 103.332 217.402 103.158 224.478 104.69C231.554 106.221 238.164 109.415 243.762 114.006C244.253 114.419 244.651 114.93 244.93 115.507C245.209 116.084 245.363 116.714 245.382 117.354C232.034 125.548 221.03 133.427 211.811 146.7C207.611 152.742 200.214 162.19 201.584 170.383Z" fill="#DA243F"/>
<g style="mix-blend-mode:multiply">
<path d="M243.762 114.006C238.164 109.415 231.554 106.221 224.478 104.69C217.402 103.158 210.063 103.332 203.068 105.198C197.251 106.179 191.573 107.851 186.154 110.181C179.515 113.467 186.55 119.149 188.113 121.947C192.838 130.919 195.591 140.798 196.187 150.921C197.025 138.902 190.716 128.324 189.293 116.626C189.059 116.194 188.918 115.716 188.882 115.226C188.845 114.735 188.913 114.243 189.081 113.78C189.249 113.318 189.513 112.897 189.855 112.544C190.198 112.191 190.612 111.915 191.069 111.734C204.38 106.652 225.868 101.637 236.931 114.4C237.53 115.007 237.866 115.825 237.866 116.678C237.866 117.531 237.53 118.35 236.931 118.957C230.617 123.905 222.848 126.056 216.901 131.738C210.22 138.125 206.303 146.165 202.045 154.228C201.731 154.698 201.305 155.083 200.805 155.346C200.305 155.609 199.747 155.743 199.182 155.735C198.616 155.727 198.062 155.578 197.57 155.3C197.077 155.023 196.662 154.627 196.362 154.148C196.564 158.619 196.437 163.099 195.981 167.552C198.014 168.125 199.917 169.086 201.584 170.383C200.214 162.19 207.611 152.742 211.811 146.7C221.03 133.427 232.034 125.548 245.382 117.354C245.363 116.714 245.209 116.084 244.93 115.507C244.651 114.93 244.253 114.419 243.762 114.006Z" fill="#A8243F"/>
</g>
<path d="M313.349 179.697C312.133 179.577 311.014 181.238 311.992 182.188C318.435 188.193 323.471 195.551 326.737 203.732C327.691 205.566 328.07 207.645 327.824 209.697C327.579 211.75 326.72 213.68 325.361 215.237C323.59 213.073 321.664 211.04 319.598 209.156C310.621 200.205 300.515 192.349 287.901 189.544C273.565 186.506 258.813 185.967 244.294 187.952C240.58 188.401 207.452 190.98 204.303 182.839C204.983 182.076 205.508 181.188 205.851 180.225C206.194 179.219 206.301 178.147 206.162 177.093C206.022 176.039 205.642 175.032 205.049 174.149C205.247 174.083 205.441 174.006 205.63 173.918C211.236 177.116 215.494 177.088 222.649 175.432C235.447 172.467 247.716 166.9 260.622 163.887C275.186 160.487 289.329 159.436 303.715 164.122C314.553 167.658 323.542 176.258 330.872 185.652C325.527 182.431 319.55 180.399 313.349 179.697Z" fill="#DA243F"/>
<g style="mix-blend-mode:multiply">
<path d="M313.349 179.697C319.55 180.399 325.527 182.43 330.872 185.652C330.817 185.581 330.755 185.512 330.7 185.442C326.607 182.572 322.297 180.024 317.81 177.821C309.642 174.074 300.661 172.445 291.698 173.086C304.069 180.848 315.113 188.488 320.974 202.79C321.052 203.091 321.04 203.408 320.94 203.702C320.839 203.997 320.654 204.254 320.407 204.444C320.161 204.633 319.864 204.746 319.554 204.768C319.244 204.79 318.934 204.72 318.664 204.567C310.671 198.528 303.12 191.165 293.48 187.812C283.818 184.097 273.576 182.119 263.227 181.969C247.031 182.287 230.974 187.545 214.837 183.879C214.511 183.78 214.226 183.58 214.024 183.307C213.821 183.034 213.712 182.703 213.712 182.363C213.712 182.022 213.821 181.691 214.024 181.418C214.226 181.145 214.511 180.945 214.837 180.846C226.209 177.4 237.267 172.989 247.888 167.659C248.066 167.565 248.248 167.489 248.426 167.395C239.833 170.199 231.364 173.413 222.649 175.432C215.494 177.088 211.236 177.116 205.63 173.918C205.441 174.006 205.247 174.083 205.049 174.149C205.642 175.032 206.022 176.039 206.162 177.093C206.301 178.147 206.194 179.219 205.851 180.225C205.508 181.188 204.983 182.076 204.303 182.839C207.452 190.98 240.58 188.401 244.294 187.952C258.813 185.967 273.565 186.506 287.901 189.544C300.515 192.349 310.621 200.205 319.598 209.156C321.664 211.04 323.59 213.073 325.361 215.237C326.72 213.68 327.579 211.749 327.824 209.697C328.07 207.645 327.691 205.566 326.737 203.732C323.471 195.551 318.435 188.193 311.992 182.187C311.014 181.238 312.133 179.577 313.349 179.697Z" fill="#A8243F"/>
</g>
<path d="M318.126 174.911C311.899 165.605 298.708 162.508 288.257 161.936C273.266 161.117 257.97 166.762 244.23 172.079C243.68 172.292 243.885 173.143 244.475 172.98C268.48 166.405 295.338 160.768 317.119 175.919C317.724 176.34 318.529 175.513 318.126 174.911Z" fill="#FF99AD"/>
<path d="M226.744 232.165C226.59 232.047 226.39 232.308 226.535 232.435C240.571 244.728 245.182 265.127 246.785 282.659C246.792 282.843 246.87 283.018 247.003 283.147C247.136 283.275 247.313 283.347 247.498 283.347C247.683 283.347 247.86 283.275 247.993 283.147C248.126 283.018 248.204 282.843 248.211 282.659C249.019 273.129 247.486 263.547 243.744 254.746C240.003 245.945 234.166 238.193 226.744 232.165Z" fill="#FF99AD"/>
<path d="M216.932 240.512C216.874 240.386 216.655 240.479 216.711 240.606C224.154 258.528 224.514 277.35 224.581 296.425C224.585 296.545 224.63 296.66 224.711 296.749C224.791 296.838 224.9 296.896 225.019 296.912C225.138 296.928 225.258 296.901 225.359 296.837C225.46 296.772 225.535 296.673 225.57 296.559C229.988 278.002 224.928 257.379 216.932 240.512Z" fill="#FF99AD"/>
<path d="M222.934 305.078V305.471C222.936 305.519 222.956 305.565 222.99 305.598C223.025 305.631 223.071 305.65 223.119 305.65C223.167 305.65 223.213 305.631 223.247 305.598C223.281 305.565 223.301 305.519 223.303 305.471V305.078C223.301 305.03 223.281 304.985 223.247 304.951C223.213 304.918 223.167 304.899 223.119 304.899C223.071 304.899 223.025 304.918 222.99 304.951C222.956 304.985 222.936 305.03 222.934 305.078Z" fill="#FF99AD"/>
<path d="M306.111 188.631C298.106 179.52 284.276 179.138 273.057 178.565C272.996 178.567 272.937 178.59 272.891 178.631C272.846 178.673 272.816 178.729 272.808 178.789C272.8 178.85 272.814 178.912 272.847 178.964C272.88 179.015 272.931 179.054 272.99 179.071C278.227 180.485 283.52 181.424 288.829 182.518C294.658 184.064 300.237 186.435 305.396 189.559C305.52 189.626 305.664 189.647 305.802 189.618C305.94 189.589 306.063 189.512 306.149 189.4C306.235 189.288 306.279 189.149 306.272 189.009C306.265 188.868 306.208 188.734 306.111 188.631Z" fill="#FF99AD"/>
<path d="M220.452 116.792C220.176 116.255 219.736 115.819 219.196 115.55C218.655 115.28 218.043 115.189 217.448 115.291C213.712 116.21 210.938 120.174 206.831 117.924C203.446 116.068 199.867 110.489 195.44 114.085C189.198 119.155 194.54 133.556 197.793 139.027C197.874 139.157 197.998 139.253 198.144 139.299C198.29 139.346 198.447 139.338 198.588 139.279C198.728 139.219 198.843 139.112 198.912 138.975C198.98 138.838 198.997 138.682 198.96 138.533C197.293 132.76 194.181 123.153 196.903 117.439C198.463 114.16 204.601 119.934 206.693 120.724C211.298 122.46 215.786 114.973 219.694 117.549C220.142 117.846 220.778 117.245 220.452 116.792Z" fill="#FF99AD"/>
<path d="M187.533 245.095C185.725 243.042 184.143 240.801 182.811 238.41C182.065 237.338 180.381 235.513 178.821 236.104C175.048 237.535 174.471 242.757 173.328 246.535C171.457 242.611 172.394 237.2 172.234 233.101C172.232 233.04 172.207 232.983 172.163 232.941C172.12 232.899 172.061 232.875 172.001 232.875C171.94 232.875 171.882 232.899 171.839 232.941C171.795 232.983 171.77 233.04 171.767 233.101C171.405 238.234 169.208 244.833 172.686 249.353C173.095 249.884 174.114 250.149 174.462 249.353C175.979 245.87 175.961 241.365 178.572 238.434C180.191 236.616 182.621 242.064 183.174 242.989C183.896 244.546 185.156 245.791 186.722 246.494C186.899 246.538 187.085 246.524 187.254 246.453C187.422 246.382 187.562 246.258 187.654 246.1C187.746 245.942 187.783 245.759 187.761 245.577C187.739 245.396 187.659 245.227 187.533 245.095Z" fill="#FF99AD"/>
<path d="M184.485 165.155C182.298 162.355 179.976 159.631 178.037 156.649C177.954 156.509 177.839 156.39 177.703 156.301C177.566 156.211 177.411 156.154 177.25 156.133C177.088 156.112 176.924 156.128 176.769 156.18C176.614 156.232 176.473 156.318 176.357 156.433C175.253 158.07 174.645 159.992 174.606 161.967C174.173 164.648 168.907 165.162 166.923 166.407C166.766 166.505 166.653 166.661 166.609 166.841C166.565 167.021 166.592 167.211 166.686 167.371C166.779 167.531 166.931 167.649 167.109 167.699C167.288 167.749 167.479 167.727 167.642 167.639C170.065 166.898 172.411 165.927 174.649 164.739C176.612 163.138 176.554 161.057 177.34 159.077C179.321 161.491 181.515 163.723 183.896 165.745C183.975 165.819 184.079 165.859 184.188 165.858C184.296 165.856 184.4 165.812 184.476 165.736C184.553 165.659 184.597 165.555 184.598 165.447C184.6 165.339 184.56 165.234 184.485 165.155Z" fill="#FF99AD"/>
<path d="M199.471 174.461C198.881 173.532 198.067 172.767 197.103 172.237C196.138 171.708 195.056 171.43 193.956 171.431C192.702 171.443 191.466 171.731 190.336 172.275C189.205 172.818 188.209 173.604 187.416 174.576C187.339 174.66 187.297 174.771 187.3 174.885C187.303 174.999 187.349 175.108 187.43 175.189C187.511 175.27 187.619 175.316 187.733 175.319C187.848 175.321 187.958 175.28 188.043 175.203C189.489 173.838 191.394 173.064 193.382 173.033C195.501 173.053 196.617 174.736 198.312 175.622C198.475 175.711 198.661 175.745 198.844 175.719C199.027 175.692 199.197 175.607 199.327 175.476C199.458 175.345 199.542 175.176 199.568 174.992C199.594 174.809 199.56 174.623 199.471 174.461Z" fill="#FF99AD"/>
<path d="M45.9089 106.509L34.6869 133.189L45.1839 128.671L48.9289 138.696L60.6589 109.884L45.9089 106.509Z" fill="url(#paint0_linear_59_3)"/>
<path d="M66.2798 108.157L44.1748 98.9036L28.7528 135.743L34.6868 133.189L45.9088 106.509L60.6588 109.884L48.9288 138.696L51.0068 144.258L66.2798 108.157Z" fill="#0E2F46"/>
<path d="M45.9089 106.509L34.6869 133.189L45.1839 128.671L48.9289 138.696L60.6589 109.884L45.9089 106.509Z" fill="#6ABEFF"/>
<path d="M82.2909 101.342L93.5119 128.022L83.0149 123.504L79.2699 133.529L67.5409 104.717L82.2909 101.342Z" fill="url(#paint1_linear_59_3)"/>
<path d="M61.9188 102.99L84.0238 93.7366L99.4458 130.577L93.5118 128.022L82.2908 101.342L67.5408 104.717L79.2698 133.529L77.1928 139.091L61.9188 102.99Z" fill="#0E2F46"/>
<path d="M82.2909 101.342L93.5119 128.022L83.0149 123.504L79.2699 133.529L67.5409 104.717L82.2909 101.342Z" fill="#6ABEFF"/>
<path d="M97.8117 97.3471C96.5461 98.7319 96.3019 103.058 94.8448 104.239C93.3878 105.42 89.1047 104.761 87.4874 105.711C85.8692 106.663 84.3625 110.726 82.6223 111.424C80.8811 112.124 76.9825 110.23 75.1563 110.662C73.3311 111.094 70.6817 114.432 68.8233 114.686C66.9649 114.94 63.7862 111.883 61.9142 111.757C60.0431 111.632 56.4825 114.236 54.6759 113.735C52.8692 113.235 50.6887 109.574 48.9377 108.902C47.1856 108.23 43.0695 109.583 41.4377 108.658C39.8059 107.732 38.8556 103.504 37.379 102.347C35.9035 101.188 31.5714 101.268 30.2843 99.9028C28.9981 98.5376 29.3341 94.2187 28.2657 92.6762C27.1974 91.1347 23.0343 89.9345 22.2061 88.2509C21.381 86.5669 22.9757 82.5376 22.4083 80.7495C21.8419 78.9614 18.2169 76.5864 17.9229 74.7343C17.63 72.8818 20.3409 69.5014 20.3263 67.6259C20.3116 65.7495 17.5489 62.414 17.8136 60.5566C18.0782 58.6987 21.6671 56.2695 22.2061 54.4726C22.7442 52.6758 21.087 48.6723 21.8878 46.9756C22.6876 45.2793 26.8331 44.0146 27.877 42.456C28.9229 40.8984 28.5196 36.5844 29.7843 35.1987C31.0499 33.8144 35.3819 33.8276 36.8399 32.6465C38.2979 31.4653 39.1838 27.2241 40.801 26.2734C42.4182 25.3227 46.5548 26.6118 48.296 25.9135C50.0373 25.2148 52.1329 21.4228 53.9591 20.9912C55.7843 20.56 59.3565 23.0112 61.2267 22.8564C63.0958 22.7016 66.2179 19.6967 68.089 19.8227C69.9601 19.9487 72.6524 23.3442 74.4845 23.747C76.3165 24.1509 80.1848 22.1992 81.9367 22.8706C83.6877 23.542 85.259 27.581 86.8918 28.5063C88.5227 29.4316 92.7932 28.707 94.2707 29.8647C95.7453 31.0229 96.0558 35.3447 97.3429 36.7104C98.6291 38.0752 102.924 38.6416 103.994 40.1836C105.063 41.7256 104.087 45.9467 104.912 47.6308C105.739 49.3144 109.677 51.122 110.243 52.9101C110.811 54.6977 108.633 58.4443 108.927 60.2968C109.221 62.1494 112.451 65.0381 112.466 66.914C112.481 68.7895 109.296 71.728 109.03 73.5844C108.764 75.4414 111 79.1533 110.461 80.9502C109.922 82.747 106.014 84.6152 105.212 86.3115C104.411 88.0078 105.452 92.2138 104.407 93.771C103.363 95.3296 99.0773 95.9624 97.8117 97.3471Z" fill="#28A0FF"/>
<path d="M99.1596 67.2592C99.1598 73.9893 97.1643 80.5683 93.4254 86.1643C89.6865 91.7603 84.3722 96.1219 78.1545 98.6976C71.9367 101.273 65.0949 101.947 58.4941 100.634C51.8932 99.3216 45.83 96.0809 41.071 91.3221C36.312 86.5633 33.071 80.5002 31.7579 73.8994C30.4448 67.2987 31.1185 60.4568 33.6939 54.2389C36.2693 48.0211 40.6306 42.7066 46.2264 38.9674C51.8223 35.2283 58.4012 33.2325 65.1313 33.2324C69.5999 33.2323 74.0247 34.1124 78.1531 35.8223C82.2816 37.5323 86.0328 40.0386 89.1927 43.1983C92.3525 46.358 94.859 50.1091 96.5691 54.2375C98.2793 58.3659 99.1595 62.7907 99.1596 67.2592Z" fill="white"/>
<path d="M65.1313 103.812C57.902 103.812 50.835 101.668 44.8241 97.6517C38.8132 93.6353 34.1283 87.9266 31.3618 81.2475C28.5953 74.5685 27.8715 67.2191 29.2818 60.1287C30.6922 53.0383 34.1735 46.5254 39.2854 41.4135C44.3972 36.3016 50.9102 32.8203 58.0006 31.4099C65.091 29.9995 72.4404 30.7233 79.1194 33.4898C85.7984 36.2563 91.5071 40.9412 95.5236 46.9521C99.54 52.963 101.684 60.0299 101.684 67.2592C101.673 76.9503 97.8185 86.2413 90.9659 93.0939C84.1133 99.9465 74.8223 103.801 65.1313 103.812ZM65.1313 31.2876C58.0167 31.2877 51.0618 33.3975 45.1463 37.3503C39.2308 41.303 34.6202 46.9212 31.8976 53.4943C29.1751 60.0674 28.4628 67.3002 29.8509 74.2781C31.239 81.256 34.6651 87.6656 39.6959 92.6963C44.7268 97.727 51.1365 101.153 58.1144 102.541C65.0924 103.929 72.3251 103.216 78.8982 100.494C85.4712 97.7708 91.0892 93.16 95.0418 87.2444C98.9944 81.3287 101.104 74.3739 101.104 67.2592C101.093 57.7221 97.2997 48.5787 90.5558 41.835C83.8119 35.0913 74.6684 31.2981 65.1313 31.2876Z" fill="white"/>
<path d="M65.1312 108.702C56.9348 108.702 48.9224 106.271 42.1074 101.717C35.2924 97.1635 29.9808 90.6911 26.8442 83.1185C23.7077 75.5459 22.8871 67.2133 24.4862 59.1744C26.0853 51.1354 30.0324 43.7512 35.8282 37.9554C41.624 32.1597 49.0082 28.2128 57.0472 26.6137C65.0862 25.0147 73.4188 25.8353 80.9913 28.9719C88.5639 32.1086 95.0363 37.4202 99.59 44.2353C104.144 51.0504 106.574 59.0627 106.575 67.2592C106.562 78.2468 102.192 88.7809 94.4224 96.5503C86.653 104.32 76.1189 108.69 65.1312 108.702ZM65.1312 27.0361C57.1758 27.0363 49.399 29.3955 42.7844 33.8155C36.1697 38.2355 31.0143 44.5177 27.9701 51.8676C24.9258 59.2176 24.1294 67.3052 25.6816 75.1078C27.2338 82.9104 31.0648 90.0774 36.6903 95.7027C42.3158 101.328 49.483 105.159 57.2856 106.711C65.0883 108.263 73.1759 107.466 80.5257 104.421C87.8756 101.377 94.1575 96.2211 98.5773 89.6063C102.997 82.9915 105.356 75.2147 105.356 67.2592C105.344 56.5948 101.102 46.3707 93.5609 38.83C86.0199 31.2893 75.7956 27.0478 65.1312 27.0361Z" fill="white"/>
<path d="M72.7581 42.6959C72.6391 42.6957 72.5228 42.7313 72.4245 42.7983C72.3261 42.8652 72.2503 42.9603 72.2069 43.0711C72.1635 43.1819 72.1546 43.3032 72.1813 43.4191C72.2081 43.535 72.2692 43.6402 72.3567 43.7208L68.3265 48.0836L69.0677 42.2061C69.0884 42.2086 69.1093 42.2099 69.1302 42.21C69.2782 42.2106 69.4211 42.1559 69.5309 42.0566C69.6408 41.9574 69.7096 41.8207 69.7239 41.6734C69.7383 41.526 69.6971 41.3786 69.6085 41.2601C69.5198 41.1415 69.3901 41.0603 69.2448 41.0323C69.0994 41.0044 68.9488 41.0317 68.8225 41.1089C68.6962 41.1862 68.6033 41.3078 68.562 41.4499C68.5207 41.5921 68.5339 41.7445 68.5991 41.8774C68.6642 42.0103 68.7767 42.1141 68.9144 42.1685L66.6868 47.8365L65.2483 40.1807C65.3934 40.1534 65.5232 40.073 65.6121 39.9551C65.7011 39.8372 65.7428 39.6903 65.7291 39.5432C65.7154 39.3961 65.6473 39.2595 65.5382 39.16C65.429 39.0605 65.2866 39.0054 65.1389 39.0054C64.9912 39.0054 64.8488 39.0605 64.7397 39.16C64.6305 39.2595 64.5624 39.3961 64.5487 39.5432C64.535 39.6903 64.5768 39.8372 64.6657 39.9551C64.7546 40.073 64.8844 40.1534 65.0296 40.1807L63.5911 47.837L61.3636 42.1685C61.5004 42.1143 61.6121 42.011 61.6768 41.8788C61.7415 41.7466 61.7546 41.595 61.7134 41.4537C61.6722 41.3124 61.5798 41.1915 61.4542 41.1147C61.3286 41.038 61.1789 41.0108 61.0344 41.0386C60.8899 41.0664 60.7609 41.1472 60.6727 41.265C60.5846 41.3829 60.5436 41.5294 60.5577 41.6759C60.5719 41.8224 60.6403 41.9584 60.7494 42.0572C60.8585 42.1559 61.0006 42.2104 61.1478 42.21C61.1686 42.2099 61.1895 42.2088 61.2103 42.2066L61.9515 48.0845L57.9144 43.7139C58.022 43.6092 58.0851 43.4671 58.0908 43.3171C58.0965 43.167 58.0442 43.0206 57.9448 42.9081C57.8454 42.7955 57.7065 42.7256 57.5569 42.7127C57.4073 42.6998 57.2585 42.745 57.1414 42.8388C57.0242 42.9327 56.9476 43.068 56.9275 43.2168C56.9074 43.3656 56.9453 43.5164 57.0334 43.638C57.1215 43.7595 57.253 43.8426 57.4007 43.8698C57.5483 43.897 57.7008 43.8664 57.8265 43.7843L61.4954 49.5714H65.139V49.5704H68.7825L72.4476 43.7906C72.5254 43.8388 72.6134 43.8683 72.7046 43.8768C72.7958 43.8852 72.8877 43.8724 72.9731 43.8393C73.0585 43.8062 73.135 43.7537 73.1967 43.686C73.2583 43.6183 73.3034 43.5372 73.3284 43.4491C73.3534 43.361 73.3576 43.2682 73.3407 43.1782C73.3238 43.0882 73.2862 43.0034 73.2309 42.9304C73.1756 42.8574 73.1041 42.7982 73.0221 42.7575C72.94 42.7168 72.8496 42.6957 72.7581 42.6959Z" fill="#40A1FF"/>
<path d="M69.0893 49.9141H61.1752V50.4322H69.0893V49.9141Z" fill="#40A1FF"/>
<path d="M68.8949 50.6909H61.3695V51.4306H68.8949V50.6909Z" fill="#40A1FF"/>
<path d="M66.7348 89.4653C66.7348 89.7826 66.6407 90.0928 66.4644 90.3567C66.2882 90.6205 66.0376 90.8261 65.7445 90.9476C65.4514 91.0691 65.1288 91.1009 64.8176 91.0391C64.5064 90.9773 64.2205 90.8245 63.9961 90.6003C63.7716 90.376 63.6187 90.0902 63.5567 89.779C63.4947 89.4678 63.5263 89.1452 63.6476 88.852C63.7689 88.5588 63.9744 88.3082 64.2381 88.1317C64.5018 87.9553 64.812 87.861 65.1293 87.8608C65.3401 87.8606 65.5489 87.9019 65.7437 87.9824C65.9386 88.063 66.1156 88.1811 66.2647 88.3302C66.4139 88.4792 66.5321 88.6562 66.6128 88.851C66.6934 89.0457 66.7349 89.2545 66.7348 89.4653Z" fill="#40A1FF"/>
<path d="M50.8929 89.3887L62.1219 90.3927V88.6978L50.8929 89.3887Z" fill="#40A1FF"/>
<path d="M79.3696 89.3887L68.1385 90.3927V88.6978L79.3696 89.3887Z" fill="#40A1FF"/>
<path d="M44.8816 72.0388C43.7229 72.0388 42.7659 71.6538 42.0106 70.8838C41.2552 70.1138 40.8776 69.1641 40.8776 68.0348C40.8776 66.8981 41.2552 65.9484 42.0106 65.1858C42.7659 64.4158 43.7229 64.0308 44.8816 64.0308C45.5782 64.0308 46.2199 64.1958 46.8066 64.5258C47.4006 64.8484 47.8626 65.2884 48.1926 65.8458L46.8836 66.6048C46.6929 66.2601 46.4216 65.9924 46.0696 65.8018C45.7176 65.6038 45.3216 65.5048 44.8816 65.5048C44.1336 65.5048 43.5286 65.7394 43.0666 66.2088C42.6119 66.6781 42.3846 67.2868 42.3846 68.0348C42.3846 68.7754 42.6119 69.3804 43.0666 69.8498C43.5286 70.3191 44.1336 70.5538 44.8816 70.5538C45.3216 70.5538 45.7176 70.4584 46.0696 70.2678C46.4289 70.0698 46.7002 69.8021 46.8836 69.4648L48.1926 70.2238C47.8626 70.7811 47.4042 71.2248 46.8176 71.5548C46.2309 71.8774 45.5856 72.0388 44.8816 72.0388Z" fill="black"/>
<path d="M50.6431 70.4328H53.8881V71.8848H49.1251V64.1848H53.8331V65.6368H50.6431V67.2758H53.5581V68.7058H50.6431V70.4328Z" fill="black"/>
<path d="M59.1821 71.8848L57.6311 69.2118H56.4761V71.8848H54.9581V64.1848H58.0381C58.7494 64.1848 59.3544 64.4341 59.8531 64.9328C60.3517 65.4314 60.6011 66.0328 60.6011 66.7368C60.6011 67.2134 60.4654 67.6571 60.1941 68.0678C59.9227 68.4711 59.5634 68.7754 59.1161 68.9808L60.8211 71.8848H59.1821ZM56.4761 65.6038V67.8808H58.0381C58.3241 67.8808 58.5697 67.7708 58.7751 67.5508C58.9804 67.3234 59.0831 67.0521 59.0831 66.7368C59.0831 66.4214 58.9804 66.1538 58.7751 65.9338C58.5697 65.7138 58.3241 65.6038 58.0381 65.6038H56.4761Z" fill="black"/>
<path d="M66.6468 64.1848V65.6368H64.5678V71.8848H63.0498V65.6368H60.9818V64.1848H66.6468Z" fill="black"/>
<path d="M67.4942 64.1848H69.0122V71.8848H67.4942V64.1848Z" fill="black"/>
<path d="M75.0356 65.6368H71.9556V67.4628H74.9476V68.9148H71.9556V71.8848H70.4376V64.1848H75.0356V65.6368Z" fill="black"/>
<path d="M76.1417 64.1848H77.6597V71.8848H76.1417V64.1848Z" fill="black"/>
<path d="M80.603 70.4328H83.848V71.8848H79.085V64.1848H83.793V65.6368H80.603V67.2758H83.518V68.7058H80.603V70.4328Z" fill="black"/>
<path d="M87.976 64.1848C89.032 64.1848 89.912 64.5551 90.616 65.2958C91.3274 66.0364 91.683 66.9494 91.683 68.0348C91.683 69.1201 91.3274 70.0331 90.616 70.7738C89.912 71.5144 89.032 71.8848 87.976 71.8848H84.918V64.1848H87.976ZM87.976 70.4328C88.6434 70.4328 89.186 70.2128 89.604 69.7728C90.022 69.3254 90.231 68.7461 90.231 68.0348C90.231 67.3234 90.022 66.7478 89.604 66.3078C89.186 65.8604 88.6434 65.6368 87.976 65.6368H86.436V70.4328H87.976Z" fill="black"/>
</g>
<defs>
<linearGradient id="paint0_linear_59_3" x1="55.3259" y1="103.595" x2="39.9046" y2="140.437" gradientUnits="userSpaceOnUse">
<stop stop-color="#3B2300"/>
<stop offset="0.49697" stop-color="#6E5530"/>
<stop offset="0.65622" stop-color="#6B522D"/>
<stop offset="0.78408" stop-color="#614824"/>
<stop offset="0.90068" stop-color="#503814"/>
<stop offset="1" stop-color="#3B2300"/>
</linearGradient>
<linearGradient id="paint1_linear_59_3" x1="72.8459" y1="98.4156" x2="88.2664" y2="135.256" gradientUnits="userSpaceOnUse">
<stop stop-color="#3B2300"/>
<stop offset="0.49697" stop-color="#6E5530"/>
<stop offset="0.65622" stop-color="#6B522D"/>
<stop offset="0.78408" stop-color="#614824"/>
<stop offset="0.90068" stop-color="#503814"/>
<stop offset="1" stop-color="#3B2300"/>
</linearGradient>
<clipPath id="clip0_59_3">
<rect width="367" height="365" fill="white" transform="translate(0 19.8188)"/>
</clipPath>
</defs>
</svg>
