<svg width="532" height="222" viewBox="0 0 532 222" fill="none" xmlns="http://www.w3.org/2000/svg">
<path d="M320.086 198.778L313.443 183.593C323.633 176.774 332.229 167.833 338.641 157.382L354.076 163.422C357.83 164.888 362.012 164.804 365.704 163.187C369.395 161.571 372.294 158.555 373.762 154.802C375.231 151.049 375.149 146.867 373.535 143.175C371.921 139.482 368.907 136.581 365.155 135.11L349.72 129.07C352.104 117.043 351.86 104.643 349.005 92.7193L364.19 86.0761C366.018 85.276 367.672 84.1235 369.055 82.6845C370.439 81.2454 371.525 79.548 372.253 77.689C372.98 75.8301 373.334 73.846 373.295 71.8502C373.256 69.8544 372.824 67.8859 372.024 66.057C371.224 64.2281 370.071 62.5747 368.632 61.1912C367.193 59.8077 365.496 58.7212 363.637 57.9937C361.778 57.2662 359.794 56.912 357.798 56.9513C355.802 56.9905 353.834 57.4225 352.005 58.2226L336.819 64.8657C330 54.6759 321.059 46.0804 310.609 39.6678L316.649 24.2334C317.377 22.3744 317.731 20.3903 317.692 18.3943C317.653 16.3983 317.221 14.4295 316.421 12.6004C315.621 10.7714 314.468 9.11781 313.029 7.73416C311.59 6.35051 309.893 5.26389 308.034 4.53635C306.174 3.8088 304.19 3.45458 302.194 3.49392C300.198 3.53326 298.23 3.96538 296.401 4.76561C294.572 5.56584 292.918 6.7185 291.535 8.15777C290.151 9.59705 289.065 11.2947 288.337 13.1539L282.297 28.589C270.27 26.2053 257.87 26.4494 245.946 29.3046L239.303 14.1197C238.503 12.2908 237.35 10.6374 235.911 9.25389C234.472 7.8704 232.775 6.7839 230.916 6.05644C229.057 5.32897 227.073 4.97478 225.077 5.0141C223.081 5.05342 221.113 5.48547 219.284 6.28558C215.59 7.90153 212.69 10.9185 211.221 14.6729C209.751 18.4273 209.834 22.6116 211.45 26.3052L218.093 41.4897C207.903 48.3089 199.308 57.2498 192.895 67.7001L177.46 61.6605C173.706 60.1933 169.523 60.2769 165.83 61.8931C162.138 63.5093 159.239 66.5258 157.77 70.2791C156.301 74.0325 156.383 78.2156 157.998 81.9085C159.613 85.6014 162.628 88.5019 166.381 89.9721L181.816 96.0124C179.432 108.039 179.676 120.44 182.532 132.364L167.347 139.007C165.518 139.807 163.864 140.959 162.481 142.398C161.097 143.837 160.011 145.535 159.283 147.393C158.556 149.252 158.202 151.236 158.241 153.232C158.28 155.228 158.712 157.196 159.512 159.025C160.312 160.854 161.465 162.508 162.904 163.891C164.343 165.275 166.04 166.361 167.899 167.089C169.758 167.816 171.742 168.17 173.738 168.131C175.734 168.092 177.703 167.66 179.532 166.859L194.717 160.217C201.536 170.407 210.477 179.002 220.927 185.415L214.887 200.849C213.418 204.604 213.5 208.788 215.116 212.482C216.732 216.175 219.749 219.076 223.503 220.545C227.258 222.014 231.442 221.931 235.136 220.315C238.829 218.7 241.73 215.683 243.199 211.928L249.239 196.494C261.266 198.877 273.666 198.633 285.59 195.778L292.233 210.963C293.849 214.657 296.866 217.557 300.62 219.026C304.375 220.495 308.559 220.413 312.252 218.797C315.946 217.181 318.846 214.164 320.316 210.41C321.785 206.656 321.702 202.471 320.086 198.778ZM215.388 134.313C211.037 124.368 209.733 113.357 211.641 102.672C213.548 91.9862 218.581 82.1063 226.104 74.2813C233.627 66.4564 243.301 61.0379 253.903 58.7111C264.505 56.3842 275.559 57.2535 285.667 61.209C295.775 65.1646 304.483 72.0286 310.69 80.9333C316.897 89.8379 320.324 100.383 320.538 111.235C320.751 122.088 317.742 132.76 311.891 141.902C306.039 151.044 297.608 158.246 287.664 162.596C281.061 165.485 273.954 167.045 266.748 167.187C259.542 167.329 252.379 166.05 245.668 163.424C238.956 160.797 232.828 156.875 227.632 151.88C222.437 146.885 218.276 140.916 215.388 134.313Z" fill="#01004C"/>
<path d="M323.319 196.827L316.676 181.642C326.866 174.823 335.461 165.882 341.874 155.432L357.308 161.472C359.168 162.201 361.153 162.557 363.15 162.519C365.146 162.481 367.116 162.05 368.946 161.25C370.777 160.45 372.431 159.298 373.816 157.858C375.2 156.419 376.288 154.72 377.015 152.86C377.743 151 378.097 149.015 378.058 147.018C378.018 145.021 377.585 143.052 376.784 141.222C375.983 139.393 374.829 137.739 373.388 136.356C371.947 134.973 370.248 133.887 368.388 133.16L352.953 127.12C355.337 115.093 355.092 102.693 352.237 90.7688L367.422 84.1257C369.251 83.3257 370.904 82.1733 372.288 80.7343C373.671 79.2953 374.758 77.5979 375.485 75.739C376.213 73.8801 376.567 71.8961 376.528 69.9003C376.488 67.9045 376.056 65.936 375.256 64.1071C373.64 60.4134 370.623 57.5129 366.869 56.0436C363.115 54.5743 358.93 54.6565 355.237 56.2722L340.052 62.9153C333.233 52.7257 324.292 44.1303 313.841 37.7178L319.881 22.2831C321.35 18.5287 321.268 14.3446 319.652 10.651C318.036 6.9574 315.02 4.05699 311.265 2.5878C309.406 1.86033 307.422 1.50613 305.426 1.54543C303.431 1.58472 301.462 2.01673 299.633 2.81681C295.939 4.43265 293.039 7.44957 291.57 11.2039L285.529 26.6386C273.502 24.255 261.102 24.4993 249.178 27.3545L242.535 12.1693C240.92 8.4758 237.903 5.57545 234.148 4.1063C230.394 2.63715 226.21 2.71953 222.516 4.33533C218.823 5.95112 215.922 8.96805 214.453 12.7224C212.984 16.4768 213.066 20.6611 214.682 24.3547L221.325 39.5393C211.135 46.3584 202.54 55.2994 196.127 65.7498L180.692 59.7102C176.938 58.241 172.753 58.3234 169.06 59.9393C165.366 61.5552 162.466 64.5721 160.996 68.3265C159.527 72.0809 159.61 76.2652 161.226 79.9588C162.841 83.6525 165.858 86.5529 169.613 88.0221L185.048 94.062C182.664 106.089 182.909 118.489 185.764 130.413L170.579 137.056C166.885 138.672 163.985 141.689 162.516 145.443C161.047 149.198 161.129 153.382 162.745 157.075C163.545 158.904 164.697 160.558 166.136 161.941C167.575 163.325 169.273 164.411 171.132 165.139C172.991 165.866 174.975 166.22 176.971 166.181C178.967 166.142 180.935 165.71 182.764 164.91L197.949 158.266C204.768 168.456 213.709 177.052 224.159 183.464L218.12 198.899C217.391 200.758 217.035 202.743 217.073 204.74C217.112 206.736 217.543 208.706 218.343 210.536C219.143 212.366 220.295 214.02 221.735 215.404C223.174 216.789 224.872 217.876 226.732 218.604C228.592 219.331 230.577 219.686 232.573 219.646C234.57 219.606 236.539 219.174 238.369 218.373C240.198 217.572 241.852 216.418 243.235 214.978C244.619 213.537 245.704 211.838 246.431 209.978L252.471 194.544C264.498 196.927 276.899 196.683 288.823 193.828L295.466 209.013C296.266 210.842 297.418 212.495 298.857 213.879C300.296 215.262 301.994 216.349 303.853 217.076C305.712 217.803 307.696 218.158 309.692 218.118C311.687 218.079 313.656 217.647 315.485 216.847C319.178 215.231 322.079 212.214 323.548 208.46C325.017 204.705 324.935 200.521 323.319 196.827ZM218.821 132.812C214.471 122.868 213.167 111.857 215.074 101.171C216.982 90.486 222.015 80.6061 229.538 72.7812C237.06 64.9563 246.734 59.5378 257.336 57.211C267.938 54.8841 278.992 55.7534 289.1 59.7089C299.208 63.6644 307.916 70.5284 314.123 79.433C320.33 88.3376 323.757 98.8828 323.971 109.735C324.185 120.587 321.176 131.259 315.324 140.401C309.473 149.544 301.042 156.745 291.097 161.096C284.494 163.984 277.387 165.544 270.182 165.686C262.976 165.828 255.813 164.549 249.102 161.923C242.39 159.297 236.262 155.374 231.066 150.379C225.871 145.384 221.71 139.415 218.821 132.812Z" fill="#7FD6C3"/>
<path d="M232.279 220.2C229.715 220.197 227.191 219.569 224.924 218.37C222.658 217.17 220.718 215.437 219.272 213.319C217.827 211.201 216.92 208.763 216.629 206.215C216.339 203.667 216.674 201.087 217.606 198.698L223.478 183.692C213.249 177.358 204.48 168.928 197.749 158.956L182.985 165.415C181.09 166.244 179.05 166.692 176.982 166.732C174.913 166.773 172.857 166.406 170.931 165.652C169.005 164.898 167.246 163.772 165.754 162.339C164.263 160.905 163.069 159.192 162.24 157.297C161.411 155.401 160.963 153.361 160.922 151.293C160.882 149.225 161.249 147.169 162.002 145.243C162.756 143.316 163.882 141.557 165.316 140.066C166.749 138.575 168.463 137.38 170.358 136.551L185.122 130.092C182.368 118.381 182.128 106.219 184.418 94.4081L169.412 88.5363C165.524 87.0122 162.4 84.0063 160.727 80.1796C159.054 76.3528 158.969 72.0183 160.491 68.129C162.013 64.2397 165.017 61.114 168.843 59.4389C172.668 57.7638 177.003 57.6766 180.893 59.1963L195.9 65.0687C202.234 54.84 210.664 46.0706 220.635 39.3389L214.177 24.5757C213.346 22.6803 212.897 20.6398 212.856 18.5708C212.814 16.5019 213.181 14.445 213.934 12.5176C214.688 10.5903 215.814 8.83039 217.248 7.33837C218.682 5.84635 220.395 4.6515 222.291 3.82209C224.187 2.99268 226.228 2.54496 228.297 2.50452C230.366 2.46407 232.423 2.8317 234.35 3.58639C236.276 4.34108 238.036 5.46804 239.527 6.90288C241.018 8.33772 242.212 10.0523 243.04 11.9487L249.499 26.7124C261.211 23.9586 273.373 23.7189 285.184 26.0089L291.056 11.0034C291.81 9.07696 292.936 7.31789 294.369 5.8266C295.803 4.3353 297.516 3.141 299.412 2.31186C301.307 1.48273 303.347 1.03501 305.415 0.994267C307.483 0.953523 309.539 1.32056 311.466 2.07441C313.392 2.82825 315.151 3.95415 316.643 5.38783C318.134 6.8215 319.328 8.53487 320.157 10.4301C320.986 12.3253 321.434 14.3653 321.475 16.4336C321.516 18.5019 321.149 20.5579 320.395 22.4843L314.522 37.4904C324.75 43.824 333.52 52.2544 340.252 62.2254L355.016 55.767C356.911 54.9379 358.951 54.4902 361.02 54.4494C363.088 54.4087 365.144 54.7758 367.07 55.5296C368.997 56.2835 370.756 57.4094 372.247 58.8431C373.738 60.2768 374.933 61.9901 375.762 63.8854C376.591 65.7806 377.039 67.8206 377.079 69.8888C377.12 71.9571 376.753 74.0131 375.999 75.9395C375.245 77.8659 374.119 79.6249 372.686 81.1162C371.252 82.6075 369.539 83.8018 367.643 84.6309L352.88 91.0897C355.634 102.801 355.873 114.964 353.582 126.775L368.589 132.646C372.477 134.171 375.601 137.177 377.273 141.004C378.946 144.83 379.031 149.165 377.509 153.054C375.987 156.943 372.983 160.068 369.157 161.743C365.331 163.418 360.997 163.505 357.107 161.986L342.102 156.114C335.768 166.342 327.337 175.111 317.366 181.843L323.825 196.607C324.654 198.502 325.101 200.542 325.142 202.61C325.183 204.678 324.816 206.734 324.062 208.661C323.308 210.587 322.182 212.346 320.749 213.837C319.315 215.329 317.602 216.523 315.706 217.352C313.811 218.181 311.771 218.629 309.703 218.67C307.635 218.711 305.579 218.344 303.652 217.59C301.726 216.836 299.967 215.71 298.475 214.276C296.984 212.843 295.79 211.129 294.961 209.234L288.502 194.47C276.79 197.224 264.628 197.464 252.817 195.174L246.945 210.18C245.788 213.128 243.77 215.661 241.155 217.448C238.539 219.235 235.447 220.194 232.279 220.2ZM198.151 157.576L198.408 157.959C205.17 168.094 214.055 176.636 224.448 182.994L224.841 183.236L218.634 199.1C217.933 200.892 217.591 202.804 217.629 204.727C217.667 206.65 218.084 208.548 218.855 210.31C219.626 212.072 220.736 213.666 222.123 214.999C223.51 216.332 225.146 217.379 226.937 218.08C228.729 218.781 230.641 219.123 232.564 219.085C234.487 219.047 236.385 218.631 238.147 217.86C239.91 217.089 241.503 215.978 242.836 214.591C244.169 213.204 245.216 211.568 245.917 209.777L252.125 193.913L252.578 194.003C264.526 196.386 276.849 196.143 288.695 193.291L289.143 193.184L295.971 208.792C297.528 212.352 300.436 215.147 304.054 216.563C307.673 217.979 311.705 217.899 315.265 216.342C318.824 214.784 321.62 211.877 323.035 208.258C324.451 204.64 324.372 200.608 322.814 197.048L315.986 181.441L316.369 181.184C326.503 174.421 335.046 165.536 341.405 155.144L341.646 154.75L357.51 160.958C361.128 162.374 365.161 162.295 368.72 160.737C372.279 159.18 375.075 156.272 376.49 152.654C377.906 149.036 377.827 145.004 376.269 141.444C374.712 137.885 371.804 135.09 368.186 133.674L352.322 127.466L352.412 127.013C354.795 115.065 354.553 102.742 351.701 90.8969L351.593 90.4483L367.202 83.6205C368.964 82.8493 370.558 81.7386 371.891 80.3517C373.224 78.9648 374.271 77.3289 374.972 75.5373C375.673 73.7458 376.015 71.8337 375.977 69.9102C375.939 67.9867 375.522 66.0896 374.751 64.327C373.98 62.5645 372.87 60.9711 371.483 59.6378C370.096 58.3045 368.46 57.2574 366.668 56.5564C364.877 55.8553 362.965 55.514 361.041 55.5519C359.118 55.5899 357.22 56.0063 355.458 56.7774L339.85 63.6052L339.594 63.2224C332.831 53.0886 323.945 44.5465 313.552 38.188L313.159 37.9461L319.367 22.0826C320.068 20.2911 320.41 18.3791 320.372 16.4557C320.334 14.5323 319.918 12.6352 319.147 10.8727C318.375 9.11018 317.265 7.5168 315.878 6.18352C314.491 4.85023 312.855 3.80316 311.064 3.10208C309.272 2.40099 307.36 2.05963 305.437 2.09747C303.514 2.13532 301.617 2.55164 299.854 3.32266C298.092 4.09368 296.498 5.2043 295.165 6.59111C293.832 7.97792 292.785 9.61376 292.083 11.4052L285.876 27.2693L285.423 27.1799C273.475 24.7965 261.151 25.0393 249.306 27.8914L248.858 27.9986L242.03 12.3904C241.259 10.6279 240.148 9.03452 238.761 7.70127C237.374 6.36802 235.738 5.321 233.947 4.61998C232.155 3.91895 230.243 3.57766 228.32 3.61559C226.396 3.65351 224.499 4.06991 222.737 4.84101C220.974 5.61211 219.381 6.72281 218.048 8.10969C216.714 9.49657 215.667 11.1325 214.966 12.924C214.265 14.7155 213.924 16.6276 213.962 18.551C214 20.4744 214.416 22.3715 215.187 24.134L222.016 39.7408L221.632 39.9977C211.498 46.7605 202.956 55.6461 196.598 66.0387L196.356 66.4318L180.491 60.2239C176.875 58.8177 172.849 58.9035 169.296 60.4624C165.743 62.0212 162.953 64.9259 161.54 68.539C160.126 72.1522 160.203 76.1786 161.754 79.735C163.305 83.2913 166.204 86.087 169.814 87.5087L185.679 93.7171L185.589 94.1695C183.205 106.117 183.448 118.441 186.301 130.285L186.408 130.734L170.8 137.562C169.037 138.333 167.444 139.444 166.11 140.83C164.777 142.217 163.73 143.853 163.029 145.645C161.613 149.263 161.693 153.295 163.25 156.855C164.808 160.414 167.715 163.21 171.333 164.625C174.951 166.041 178.984 165.962 182.543 164.404L198.151 157.576ZM269.18 166.247C255.463 166.266 242.227 161.198 232.03 152.023C221.833 142.849 215.4 130.22 213.975 116.577C212.549 102.935 216.233 89.2487 224.313 78.1646C232.393 67.0806 244.296 59.3861 257.72 56.5689C271.144 53.7518 285.136 56.012 296.99 62.9127C308.845 69.8134 317.72 80.8643 321.899 93.9287C326.078 106.993 325.265 121.143 319.616 133.643C313.968 146.142 303.885 156.104 291.319 161.601C284.336 164.653 276.8 166.234 269.18 166.247ZM269.024 56.4881C257.326 56.5052 245.946 60.2974 236.576 67.3008C227.207 74.3042 220.348 84.1448 217.02 95.3591C213.692 106.573 214.072 118.562 218.104 129.543C222.136 140.524 229.605 149.91 239.399 156.306C249.194 162.701 260.791 165.765 272.467 165.041C284.142 164.316 295.272 159.843 304.201 152.286C313.13 144.729 319.381 134.491 322.025 123.096C324.669 111.701 323.565 99.7573 318.876 89.0404C314.669 79.3272 307.702 71.0638 298.839 65.2766C289.976 59.4894 279.608 56.4334 269.024 56.4881Z" fill="#01004C"/>
<path d="M370.296 67.4135C370.296 67.4135 375.866 78.6922 360.416 80.7674L370.296 67.4135Z" fill="#7FD6C3"/>
<path d="M360.414 81.3189C360.274 81.3187 360.14 81.2653 360.038 81.1697C359.936 81.074 359.874 80.9431 359.865 80.8035C359.856 80.664 359.9 80.5261 359.988 80.4179C360.077 80.3097 360.203 80.2392 360.342 80.2207C365.289 79.5561 368.512 77.8778 369.921 75.2316C371.778 71.7436 369.821 67.6982 369.802 67.6578C369.77 67.5928 369.751 67.5221 369.746 67.4497C369.741 67.3774 369.75 67.3047 369.773 67.236C369.797 67.1672 369.833 67.1037 369.881 67.0491C369.929 66.9945 369.987 66.9499 370.052 66.9178C370.117 66.8857 370.188 66.8667 370.26 66.862C370.332 66.8573 370.405 66.8669 370.474 66.8903C370.542 66.9138 370.606 66.9505 370.66 66.9985C370.715 67.0464 370.759 67.1046 370.791 67.1698C370.883 67.3556 373.014 71.7684 370.894 75.7503C369.309 78.7277 365.808 80.5994 360.489 81.3141C360.464 81.3173 360.439 81.319 360.414 81.3189Z" fill="white"/>
<path d="M308.318 7.52881C308.318 7.52881 320.832 8.79909 314.385 22.9929L308.318 7.52881Z" fill="#7FD6C3"/>
<path d="M314.385 23.5442C314.293 23.5442 314.202 23.521 314.121 23.4768C314.04 23.4326 313.971 23.3688 313.922 23.2913C313.872 23.2138 313.842 23.1249 313.835 23.0329C313.828 22.941 313.845 22.8488 313.883 22.7648C315.945 18.2243 316.236 14.605 314.747 12.0067C312.786 8.58598 308.305 8.08187 308.261 8.07757C308.116 8.06235 307.982 7.99008 307.89 7.87661C307.797 7.76314 307.754 7.61772 307.769 7.47221C307.786 7.32766 307.858 7.19539 307.971 7.10348C308.084 7.01156 308.228 6.96724 308.373 6.97991C308.579 7.00087 313.451 7.53784 315.699 11.4497C317.38 14.3739 317.107 18.3342 314.887 23.2204C314.843 23.3169 314.773 23.3987 314.684 23.4561C314.595 23.5135 314.491 23.5441 314.385 23.5442Z" fill="white"/>
<path d="M240.399 119.861L236.909 126.779C236.66 127.231 236.288 127.603 235.836 127.851C235.384 128.099 234.87 128.214 234.356 128.181C232.823 128.181 231.518 127.316 231.518 125.984C231.518 125.608 231.616 125.237 231.802 124.91L245.11 99.6905C245.382 99.2562 245.759 98.8977 246.207 98.6485C246.655 98.3992 247.159 98.2673 247.671 98.265C248.184 98.2627 248.688 98.3901 249.138 98.6353C249.588 98.8805 249.969 99.2356 250.245 99.6675L263.411 124.91C263.584 125.242 263.681 125.61 263.695 125.984C263.659 126.31 263.56 126.625 263.402 126.912C263.244 127.199 263.032 127.451 262.776 127.656C262.52 127.86 262.226 128.011 261.912 128.102C261.597 128.192 261.268 128.219 260.942 128.181C260.425 128.195 259.914 128.075 259.457 127.833C258.999 127.592 258.612 127.237 258.332 126.802L254.785 119.861H240.399ZM252.402 115.21L247.549 105.697L242.754 115.21H252.402Z" fill="#01004C"/>
<path d="M260.942 128.733C260.329 128.748 259.723 128.604 259.182 128.314C258.642 128.025 258.185 127.601 257.857 127.083L254.448 120.413H240.739L237.401 127.027C237.109 127.572 236.667 128.022 236.127 128.324C235.588 128.626 234.973 128.768 234.356 128.733C232.423 128.733 230.966 127.551 230.966 125.984C230.967 125.512 231.089 125.049 231.322 124.638L244.622 99.4333C244.941 98.9095 245.389 98.4763 245.924 98.1752C246.458 97.8741 247.061 97.7151 247.674 97.7135C248.288 97.7119 248.891 97.8677 249.427 98.166C249.963 98.4643 250.414 98.8951 250.736 99.4172L263.9 124.654C264.115 125.066 264.233 125.521 264.246 125.984C264.215 126.384 264.104 126.773 263.921 127.129C263.737 127.485 263.483 127.8 263.175 128.057C262.867 128.313 262.511 128.505 262.127 128.621C261.744 128.737 261.341 128.775 260.942 128.733ZM240.4 119.31H254.785C254.887 119.31 254.986 119.338 255.073 119.391C255.159 119.444 255.23 119.52 255.276 119.61L258.824 126.551C259.058 126.894 259.375 127.173 259.745 127.361C260.115 127.55 260.527 127.642 260.942 127.63C262.197 127.63 263.143 126.923 263.143 125.984C263.129 125.693 263.051 125.408 262.915 125.15L249.756 99.923C249.526 99.5804 249.216 99.3 248.852 99.1069C248.488 98.9138 248.081 98.8141 247.669 98.8166C247.257 98.8192 246.852 98.9239 246.49 99.1215C246.128 99.3191 245.821 99.6033 245.596 99.9488L232.29 125.167C232.146 125.416 232.07 125.697 232.069 125.984C232.069 127.053 233.247 127.63 234.356 127.63C234.765 127.662 235.176 127.577 235.539 127.385C235.903 127.193 236.204 126.902 236.409 126.546L239.908 119.613C239.954 119.522 240.024 119.445 240.111 119.392C240.198 119.338 240.298 119.31 240.4 119.31ZM252.402 115.761H242.755C242.661 115.761 242.568 115.737 242.486 115.691C242.404 115.645 242.334 115.579 242.285 115.499C242.236 115.419 242.208 115.327 242.204 115.233C242.2 115.139 242.22 115.045 242.262 114.961L247.057 105.449C247.103 105.358 247.173 105.282 247.26 105.228C247.347 105.175 247.446 105.146 247.548 105.146H247.549C247.651 105.146 247.751 105.174 247.837 105.227C247.924 105.28 247.994 105.356 248.041 105.447L252.893 114.959C252.936 115.043 252.957 115.137 252.954 115.231C252.95 115.326 252.922 115.417 252.873 115.498C252.824 115.578 252.754 115.645 252.672 115.691C252.59 115.737 252.497 115.761 252.402 115.761ZM243.65 114.658H251.502L247.553 106.917L243.65 114.658Z" fill="#01004C"/>
<path d="M280.3 98.2652C286.371 98.2652 291.252 102.168 291.252 107.123C291.252 112.101 286.371 115.911 280.3 115.911H273.631V125.891C273.554 126.569 273.213 127.189 272.682 127.618C272.151 128.046 271.473 128.249 270.794 128.182C270.118 128.249 269.443 128.045 268.917 127.616C268.39 127.187 268.055 126.567 267.985 125.891V100.556C268.055 99.8801 268.39 99.26 268.917 98.8308C269.443 98.4017 270.118 98.1983 270.794 98.2652H280.3ZM273.631 102.87V111.26H280.328C283.222 111.26 285.605 109.25 285.605 107.007C285.605 104.669 283.194 102.87 280.3 102.87H273.631Z" fill="#01004C"/>
<path d="M270.793 128.733C270.386 128.768 269.975 128.723 269.585 128.599C269.196 128.476 268.834 128.276 268.522 128.012C268.209 127.747 267.952 127.424 267.766 127.06C267.579 126.696 267.466 126.299 267.434 125.891V100.555C267.466 100.147 267.579 99.7501 267.766 99.3861C267.952 99.0222 268.209 98.6988 268.522 98.4347C268.834 98.1705 269.196 97.9708 269.585 97.847C269.975 97.7232 270.386 97.6778 270.793 97.7134H280.3C286.751 97.7134 291.804 101.847 291.804 107.123C291.804 112.36 286.751 116.462 280.3 116.462H274.182V125.891C274.148 126.301 274.032 126.699 273.843 127.064C273.654 127.429 273.394 127.753 273.079 128.017C272.764 128.281 272.4 128.48 272.008 128.603C271.615 128.726 271.203 128.77 270.793 128.733ZM270.793 98.8165C269.528 98.8165 268.537 99.5803 268.537 100.555V125.891C268.537 126.866 269.528 127.63 270.793 127.63C271.325 127.692 271.86 127.545 272.286 127.221C272.713 126.897 272.997 126.42 273.079 125.891V115.911C273.079 115.838 273.093 115.767 273.121 115.7C273.149 115.633 273.19 115.572 273.241 115.521C273.292 115.469 273.353 115.429 273.42 115.401C273.487 115.373 273.558 115.359 273.631 115.359H280.3C286.133 115.359 290.701 111.741 290.701 107.123C290.701 102.465 286.133 98.8165 280.3 98.8165H270.793ZM280.328 111.811H273.631C273.558 111.812 273.487 111.797 273.42 111.77C273.353 111.742 273.292 111.701 273.241 111.65C273.19 111.599 273.149 111.538 273.121 111.471C273.093 111.404 273.079 111.332 273.079 111.26V102.869C273.079 102.797 273.094 102.725 273.121 102.658C273.149 102.591 273.19 102.531 273.241 102.479C273.292 102.428 273.353 102.388 273.42 102.36C273.487 102.332 273.558 102.318 273.631 102.318H280.3C283.584 102.318 286.157 104.378 286.157 107.007C286.157 109.611 283.487 111.811 280.328 111.811ZM274.182 110.708H280.328C282.845 110.708 285.054 108.978 285.054 107.007C285.054 105.029 282.921 103.421 280.3 103.421H274.182V110.708Z" fill="#01004C"/>
<path d="M296.422 100.556C296.493 99.88 296.828 99.2599 297.354 98.8308C297.881 98.4016 298.556 98.1982 299.231 98.2651C299.91 98.1978 300.589 98.4004 301.119 98.8289C301.65 99.2575 301.991 99.8777 302.069 100.556V125.891C301.991 126.569 301.65 127.189 301.12 127.618C300.589 128.046 299.91 128.249 299.231 128.181C298.556 128.248 297.881 128.045 297.354 127.616C296.828 127.187 296.493 126.567 296.422 125.891V100.556Z" fill="#01004C"/>
<path d="M299.231 128.733C298.823 128.769 298.413 128.723 298.023 128.599C297.633 128.476 297.272 128.276 296.959 128.012C296.647 127.748 296.39 127.424 296.203 127.06C296.016 126.696 295.904 126.299 295.871 125.891V100.555C296.008 99.7598 296.422 99.0385 297.04 98.5186C297.657 97.9986 298.438 97.7135 299.245 97.7135C300.053 97.7135 300.834 97.9986 301.451 98.5186C302.069 99.0385 302.483 99.7598 302.62 100.555V125.891C302.585 126.301 302.47 126.699 302.281 127.064C302.091 127.429 301.831 127.753 301.517 128.017C301.202 128.281 300.837 128.48 300.445 128.603C300.053 128.726 299.64 128.77 299.231 128.733ZM299.231 98.8166C297.965 98.8166 296.974 99.5803 296.974 100.555V125.891C296.974 126.866 297.965 127.63 299.231 127.63C299.763 127.692 300.298 127.545 300.724 127.221C301.15 126.897 301.434 126.42 301.517 125.891V100.555C301.434 100.026 301.15 99.5497 300.724 99.2256C300.298 98.9015 299.763 98.7549 299.231 98.8166Z" fill="#01004C"/>
<path d="M368.015 57.9336C367.908 57.9335 367.804 57.9025 367.715 57.8443C367.625 57.7861 367.554 57.7033 367.511 57.6058C367.468 57.5082 367.454 57.4003 367.47 57.2949C367.487 57.1895 367.534 57.0913 367.606 57.0121L398.71 22.5979C398.808 22.4893 398.946 22.4242 399.092 22.4168C399.238 22.4095 399.381 22.4605 399.49 22.5586C399.598 22.6567 399.663 22.794 399.671 22.9401C399.678 23.0863 399.627 23.2294 399.529 23.3379L368.425 57.7521C368.373 57.8093 368.31 57.8551 368.239 57.8863C368.169 57.9176 368.092 57.9337 368.015 57.9336Z" fill="#01004C"/>
<path d="M365.53 55.1992L365.067 59.229L369.097 59.6913L369.559 55.6615L365.53 55.1992Z" fill="#F2F1F6"/>
<path d="M369.099 60.2427C369.077 60.2428 369.056 60.2416 369.035 60.239L365.005 59.7768C364.86 59.7602 364.727 59.6865 364.636 59.572C364.545 59.4575 364.503 59.3114 364.519 59.166L364.982 55.1362C365.001 54.9922 365.076 54.8614 365.189 54.7711C365.303 54.6808 365.448 54.6379 365.592 54.6515L369.622 55.1136C369.768 55.1302 369.9 55.2038 369.992 55.3184C370.083 55.4329 370.125 55.5789 370.108 55.7244L369.646 59.7542C369.63 59.8885 369.566 60.0124 369.465 60.1025C369.364 60.1926 369.234 60.2424 369.099 60.2427ZM365.678 58.7438L368.613 59.0804L368.949 56.1466L366.015 55.81L365.678 58.7438Z" fill="#01004C"/>
<path d="M416.223 28.7741C419.095 19.8426 414.183 10.2739 405.251 7.40188C396.32 4.52982 386.751 9.44194 383.879 18.3734C381.007 27.3049 385.919 36.8736 394.851 39.7456C403.782 42.6177 413.351 37.7056 416.223 28.7741Z" fill="#2AAFEB"/>
<path d="M400.086 41.1153C399.406 41.1151 398.728 41.0761 398.053 40.9984C395.765 40.736 393.55 40.0255 391.537 38.9074C389.523 37.7893 387.749 36.2855 386.317 34.4819C384.884 32.6783 383.821 30.6101 383.188 28.3956C382.555 26.1811 382.364 23.8635 382.626 21.5752C383.012 18.2157 384.362 15.0396 386.511 12.4293C388.661 9.81896 391.52 7.8858 394.743 6.86266C397.966 5.83951 401.416 5.77 404.677 6.6625C407.939 7.555 410.873 9.37145 413.126 11.8931C415.379 14.4147 416.855 17.5339 417.377 20.8751C417.898 24.2162 417.442 27.6368 416.064 30.7248C414.686 33.8129 412.444 36.4367 409.609 38.2801C406.775 40.1236 403.467 41.1082 400.086 41.1153ZM400.019 7.13574C395.99 7.14489 392.104 8.63333 389.1 11.3184C386.096 14.0035 384.182 17.6983 383.723 21.7013C383.352 24.9307 383.948 28.1974 385.434 31.0882C386.921 33.9791 389.231 36.3643 392.073 37.9423C394.915 39.5202 398.161 40.2201 401.4 39.9533C404.64 39.6865 407.728 38.465 410.273 36.4434C412.818 34.4218 414.707 31.6907 415.7 28.5957C416.694 25.5006 416.747 22.1805 415.853 19.0551C414.96 15.9298 413.159 13.1397 410.68 11.0375C408.201 8.93531 405.154 7.61554 401.924 7.24505C401.292 7.17257 400.656 7.13607 400.019 7.13574Z" fill="#01004C"/>
<path d="M394.374 24.14L395.544 20.5905L398.048 21.4396L397.988 18.7279L401.718 18.6443L401.779 21.3522L404.242 20.3944L405.572 23.8879L403.138 24.8188L404.895 26.7866L402.066 29.2815L400.038 26.939L398.106 29.3707L395.166 27.006L396.869 24.9555L394.374 24.14Z" fill="#F2F1F6"/>
<path d="M398.106 29.9219C397.98 29.9219 397.858 29.879 397.76 29.8002L394.82 27.4357C394.764 27.3897 394.716 27.333 394.682 27.2687C394.647 27.2044 394.625 27.1338 394.618 27.0611C394.611 26.9884 394.618 26.9149 394.639 26.845C394.66 26.775 394.695 26.71 394.742 26.6536L395.927 25.2274L394.203 24.664C394.134 24.6416 394.07 24.6058 394.015 24.5586C393.96 24.5114 393.915 24.4538 393.882 24.3891C393.85 24.3244 393.83 24.2538 393.825 24.1815C393.819 24.1092 393.828 24.0365 393.851 23.9677L395.02 20.4182C395.042 20.349 395.078 20.285 395.126 20.2299C395.173 20.1747 395.231 20.1296 395.296 20.0972C395.428 20.0325 395.58 20.022 395.72 20.0681L397.479 20.6643L397.436 18.7405C397.433 18.5943 397.488 18.4528 397.589 18.3471C397.69 18.2414 397.828 18.1801 397.974 18.1766L401.705 18.0925C401.85 18.0936 401.989 18.15 402.094 18.2502C402.199 18.3504 402.262 18.4869 402.269 18.6317L402.312 20.5529L404.041 19.8807C404.179 19.828 404.331 19.8315 404.466 19.8904C404.532 19.9199 404.592 19.9623 404.642 20.0152C404.692 20.0681 404.731 20.1304 404.757 20.1985L406.087 23.6919C406.113 23.7594 406.125 23.8314 406.123 23.9037C406.121 23.976 406.105 24.0473 406.076 24.1133C406.046 24.1793 406.004 24.2389 405.951 24.2886C405.899 24.3383 405.837 24.3771 405.769 24.4028L404.082 25.0481L405.306 26.4188C405.354 26.4731 405.391 26.5364 405.415 26.605C405.439 26.6737 405.449 26.7463 405.445 26.8189C405.441 26.8914 405.422 26.9624 405.39 27.0278C405.358 27.0931 405.314 27.1516 405.26 27.1998L402.431 29.6951C402.319 29.7905 402.176 29.8394 402.029 29.832C401.956 29.8272 401.885 29.8079 401.82 29.7754C401.755 29.7428 401.696 29.6976 401.649 29.6424L400.057 27.8025L398.538 29.7134C398.493 29.7704 398.437 29.8178 398.373 29.853C398.309 29.8883 398.24 29.9106 398.167 29.9187C398.147 29.9208 398.126 29.9219 398.106 29.9219ZM395.948 26.9273L398.02 28.5932L399.607 26.5961C399.657 26.5326 399.721 26.4811 399.793 26.445C399.866 26.409 399.946 26.3894 400.027 26.3876C400.108 26.3844 400.189 26.4 400.263 26.433C400.337 26.4661 400.403 26.5158 400.455 26.5783L402.119 28.4995L404.114 26.7393L402.727 25.186C402.667 25.1194 402.625 25.0394 402.603 24.9527C402.581 24.866 402.581 24.7753 402.602 24.6884C402.623 24.6016 402.665 24.5212 402.724 24.4541C402.783 24.3871 402.858 24.3355 402.941 24.3037L404.861 23.5696L403.924 21.1097L401.979 21.866C401.897 21.8982 401.808 21.91 401.72 21.9005C401.631 21.8909 401.547 21.8602 401.473 21.811C401.399 21.7618 401.338 21.6955 401.296 21.6178C401.253 21.5401 401.23 21.4532 401.228 21.3646L401.179 19.2079L398.551 19.2672L398.599 21.427C398.601 21.5156 398.582 21.6035 398.543 21.6831C398.504 21.7626 398.446 21.8316 398.374 21.8841C398.303 21.9366 398.22 21.9711 398.132 21.9846C398.045 21.9981 397.955 21.9903 397.871 21.9619L395.893 21.2913L395.071 23.7878L397.041 24.4314C397.126 24.4593 397.203 24.5077 397.266 24.5724C397.329 24.637 397.374 24.716 397.399 24.8025C397.424 24.8889 397.428 24.9801 397.409 25.0682C397.391 25.1563 397.351 25.2385 397.294 25.3077L395.948 26.9273Z" fill="#01004C"/>
<path d="M169.23 62.4419C169.153 62.4419 169.076 62.4258 169.006 62.3945C168.935 62.3633 168.872 62.3175 168.82 62.2603L137.716 27.8461C137.618 27.7376 137.567 27.5945 137.574 27.4483C137.582 27.3022 137.647 27.1649 137.755 27.0668C137.864 26.9686 138.007 26.9176 138.153 26.925C138.299 26.9324 138.436 26.9975 138.535 27.1061L169.639 61.5203C169.711 61.5995 169.758 61.6977 169.775 61.8031C169.791 61.9086 169.777 62.0166 169.734 62.1142C169.691 62.2118 169.62 62.2947 169.53 62.3528C169.441 62.411 169.336 62.4419 169.23 62.4419Z" fill="#01004C"/>
<path d="M171.715 59.7074L167.685 60.1697L168.147 64.1994L172.177 63.7371L171.715 59.7074Z" fill="#F2F1F6"/>
<path d="M168.146 64.7507C168.011 64.7506 167.881 64.7008 167.78 64.6107C167.679 64.5206 167.615 64.3966 167.599 64.2622L167.137 60.2324C167.129 60.1604 167.135 60.0875 167.155 60.0179C167.174 59.9482 167.208 59.8832 167.253 59.8265C167.298 59.7697 167.354 59.7224 167.417 59.6873C167.48 59.6521 167.55 59.6298 167.622 59.6216L171.652 59.1595C171.724 59.1505 171.797 59.1559 171.867 59.1755C171.937 59.195 172.002 59.2284 172.059 59.2735C172.116 59.3187 172.163 59.3747 172.198 59.4384C172.233 59.502 172.255 59.572 172.262 59.6442L172.725 63.674C172.733 63.746 172.727 63.8189 172.707 63.8886C172.687 63.9582 172.654 64.0233 172.609 64.08C172.564 64.1367 172.508 64.1841 172.445 64.2192C172.381 64.2544 172.312 64.2767 172.24 64.2849L168.21 64.747C168.189 64.7496 168.168 64.7508 168.146 64.7507ZM168.296 60.6546L168.632 63.5884L171.566 63.2518L171.229 60.3181L168.296 60.6546Z" fill="#01004C"/>
<path d="M154.07 26.1462C154.453 29.4841 153.837 32.8606 152.301 35.8487C150.765 38.8368 148.378 41.3023 145.44 42.9334C142.503 44.5645 139.148 45.2879 135.799 45.0123C132.451 44.7366 129.259 43.4742 126.628 41.3846C123.997 39.2951 122.045 36.4723 121.018 33.2733C119.992 30.0742 119.937 26.6425 120.86 23.4121C121.784 20.1818 123.645 17.2979 126.207 15.1251C128.77 12.9523 131.919 11.5882 135.257 11.2053C139.733 10.6919 144.23 11.9776 147.758 14.7796C151.286 17.5815 153.557 21.6702 154.07 26.1462Z" fill="#2AAFEB"/>
<path d="M137.159 45.6234C132.582 45.6212 128.187 43.8352 124.905 40.6446C121.624 37.454 119.716 33.1101 119.586 28.5353C119.455 23.9605 121.113 19.515 124.207 16.1427C127.302 12.7705 131.588 10.7371 136.158 10.4744C140.727 10.2116 145.218 11.7401 148.679 14.7354C152.139 17.7307 154.296 21.9568 154.691 26.5164C155.086 31.0761 153.688 35.6101 150.794 39.1558C147.9 42.7015 143.738 44.9796 139.192 45.5065C138.517 45.5842 137.838 45.6232 137.159 45.6234ZM137.205 11.6455C136.575 11.6454 135.946 11.6814 135.32 11.7532C131.072 12.2418 127.182 14.3673 124.476 17.678C121.77 20.9887 120.461 25.224 120.828 29.4842C121.194 33.7444 123.207 37.694 126.438 40.494C129.67 43.2941 133.866 44.7241 138.135 44.4803C142.404 44.2365 146.41 42.3381 149.301 39.1884C152.193 36.0386 153.743 31.8855 153.622 27.6113C153.501 23.3371 151.719 19.2784 148.653 16.2973C145.588 13.3161 141.481 11.6474 137.205 11.6455Z" fill="#01004C"/>
<path d="M140.376 29.4638L142.078 31.5141L139.139 33.8789L137.207 31.4472L135.179 33.7897L132.35 31.2947L134.106 29.3271L131.673 28.3962L133.002 24.9026L135.466 25.8604L135.526 23.1525L139.257 23.2362L139.197 25.9477L141.701 25.0988L142.871 28.6482L140.376 29.4638Z" fill="#F2F1F6"/>
<path d="M139.139 34.4305C139.119 34.4305 139.098 34.4294 139.078 34.4273C139.006 34.4193 138.936 34.397 138.872 34.3618C138.808 34.3265 138.752 34.279 138.707 34.222L137.188 32.3105L135.595 34.1504C135.548 34.2055 135.49 34.2506 135.424 34.2832C135.359 34.3157 135.288 34.335 135.216 34.3401C135.069 34.3474 134.925 34.2985 134.814 34.2033L131.985 31.7084C131.931 31.6603 131.886 31.6019 131.854 31.5366C131.822 31.4712 131.804 31.4002 131.799 31.3276C131.795 31.2551 131.805 31.1823 131.829 31.1136C131.853 31.0449 131.89 30.9817 131.938 30.9274L133.162 29.5562L131.476 28.9109C131.339 28.8588 131.229 28.7546 131.169 28.6213C131.11 28.488 131.105 28.3364 131.157 28.2L132.487 24.7066C132.513 24.6385 132.552 24.5762 132.602 24.5234C132.652 24.4705 132.712 24.428 132.778 24.3985C132.845 24.3689 132.917 24.3529 132.989 24.3512C133.062 24.3495 133.135 24.3623 133.202 24.3888L134.932 25.061L134.975 23.1398C134.978 22.9936 135.039 22.8547 135.145 22.7536C135.197 22.7022 135.258 22.6621 135.326 22.6358C135.394 22.6094 135.466 22.5975 135.539 22.6006L139.269 22.6846C139.416 22.688 139.554 22.7493 139.655 22.855C139.757 22.9608 139.812 23.1023 139.808 23.2485L139.765 25.1724L141.524 24.5762C141.593 24.5529 141.666 24.5435 141.738 24.5485C141.811 24.5535 141.882 24.5728 141.947 24.6053C142.012 24.6377 142.07 24.6828 142.118 24.7378C142.166 24.7928 142.202 24.8566 142.225 24.9257L143.395 28.4752C143.418 28.5441 143.427 28.6168 143.421 28.6892C143.416 28.7615 143.396 28.8321 143.363 28.8968C143.33 28.9616 143.285 29.0192 143.23 29.0665C143.175 29.1137 143.111 29.1496 143.042 29.1721L141.319 29.7355L142.503 31.1617C142.55 31.218 142.585 31.283 142.606 31.3529C142.627 31.4229 142.635 31.4964 142.627 31.5692C142.62 31.642 142.598 31.7126 142.564 31.7769C142.529 31.8412 142.481 31.8979 142.424 31.9438L139.485 34.3088C139.387 34.3875 139.265 34.4305 139.139 34.4305ZM137.206 30.8956H137.218C137.299 30.8975 137.379 30.9171 137.452 30.9531C137.524 30.9891 137.588 31.0407 137.638 31.1041L139.226 33.1012L141.297 31.4354L139.951 29.8157C139.894 29.7465 139.854 29.6643 139.836 29.5762C139.817 29.4882 139.821 29.397 139.846 29.3105C139.87 29.2241 139.916 29.1451 139.979 29.0804C140.041 29.0157 140.119 28.9673 140.204 28.9395L142.174 28.2958L141.352 25.7994L139.374 26.4699C139.29 26.4985 139.2 26.5063 139.112 26.4928C139.025 26.4793 138.942 26.4448 138.87 26.3923C138.798 26.3398 138.741 26.2709 138.701 26.1912C138.662 26.1116 138.643 26.0237 138.645 25.935L138.693 23.7752L136.066 23.716L136.017 25.8726C136.015 25.9613 135.992 26.0481 135.949 26.1259C135.907 26.2036 135.846 26.2699 135.772 26.3191C135.698 26.3683 135.614 26.399 135.526 26.4086C135.438 26.4182 135.348 26.4063 135.266 26.3741L133.32 25.6179L132.384 28.0776L134.303 28.8118C134.387 28.8437 134.461 28.8954 134.52 28.9625C134.579 29.0295 134.621 29.1099 134.642 29.1967C134.663 29.2835 134.663 29.3741 134.641 29.4607C134.619 29.5474 134.577 29.6274 134.518 29.6941L133.131 31.248L135.126 33.0076L136.789 31.0864C136.841 31.0265 136.905 30.9785 136.977 30.9456C137.049 30.9127 137.127 30.8957 137.206 30.8956Z" fill="#01004C"/>
<path d="M167.723 108.73H125.556V109.833H167.723V108.73Z" fill="#01004C"/>
<path d="M166.825 102.581V115.982L173.522 109.283L166.825 102.581Z" fill="#01004C"/>
<path d="M173.522 120.536H131.355V121.639H173.522V120.536Z" fill="#01004C"/>
<path d="M132.253 127.789V114.388L125.556 121.087L132.253 127.789Z" fill="#01004C"/>
<path d="M102.721 150.837C120.625 132.933 120.625 103.904 102.721 86.0003C84.8164 68.0961 55.788 68.0961 37.8839 86.0003C19.9797 103.904 19.9797 132.933 37.8839 150.837C55.788 168.741 84.8164 168.741 102.721 150.837Z" fill="#01004C"/>
<path d="M70.2705 164.82C61.3569 164.814 52.6337 162.241 45.1439 157.409C37.654 152.576 31.7146 145.689 28.0359 137.57C24.3572 129.451 23.0949 120.444 24.3999 111.626C25.705 102.809 29.5221 94.5538 35.3949 87.8485C41.2677 81.1431 48.9476 76.2712 57.5161 73.8154C66.0847 71.3596 75.1793 71.4237 83.7123 74.0002C92.2454 76.5767 99.8557 81.5565 105.633 88.344C111.411 95.1316 115.111 103.44 116.292 112.275C117.164 118.831 116.625 125.497 114.712 131.828C112.798 138.159 109.554 144.008 105.197 148.983C100.839 153.959 95.4687 157.945 89.4452 160.677C83.4218 163.408 76.8842 164.821 70.2705 164.82ZM70.334 73.1201C68.3176 73.1204 66.3035 73.2549 64.3049 73.5225C55.4253 74.7087 47.0969 78.5014 40.3728 84.4209C33.6487 90.3404 28.8309 98.1209 26.5287 106.778C24.2265 115.436 24.5433 124.582 27.439 133.059C30.3347 141.537 35.6793 148.966 42.7969 154.406C49.9145 159.846 58.4854 163.053 67.4257 163.622C76.3661 164.191 85.2744 162.096 93.0242 157.602C100.774 153.108 107.017 146.417 110.964 138.375C114.911 130.333 116.385 121.301 115.198 112.421C113.733 101.554 108.381 91.5864 100.133 84.3613C91.8848 77.1361 81.2991 73.1428 70.334 73.1201Z" fill="#01004C"/>
<path d="M98.0567 146.173C115.961 128.269 115.961 99.2404 98.0567 81.3362C80.1526 63.4321 51.1242 63.4321 33.2201 81.3362C15.3159 99.2403 15.3159 128.269 33.2201 146.173C51.1242 164.077 80.1526 164.077 98.0567 146.173Z" fill="#2AAFEB"/>
<path d="M65.5427 160.161C56.6316 160.143 47.9142 157.56 40.4322 152.72C32.9502 147.879 27.0201 140.987 23.3506 132.867C19.6811 124.747 18.4274 115.741 19.7393 106.927C21.0513 98.1135 24.8734 89.8638 30.7489 83.1641C36.6244 76.4645 44.3047 71.5984 52.872 69.1473C61.4393 66.6962 70.5312 66.7639 79.0611 69.3421C87.5909 71.9204 95.198 76.9003 100.973 83.6866C106.748 90.4729 110.447 98.7786 111.628 107.611C113.243 119.806 109.954 132.143 102.484 141.917C95.0145 151.69 83.9728 158.102 71.7818 159.744C69.7136 160.021 67.6293 160.16 65.5427 160.161ZM65.7323 68.4523C63.6951 68.4529 61.6603 68.5887 59.6412 68.8589C50.7616 70.0451 42.4331 73.8377 35.709 79.7572C28.9849 85.6767 24.1671 93.4572 21.8649 102.115C19.5627 110.772 19.8795 119.918 22.7752 128.396C25.6709 136.873 31.0154 144.302 38.133 149.742C45.2506 155.182 53.8215 158.389 62.7619 158.958C71.7023 159.527 80.6106 157.432 88.3603 152.938C96.1101 148.444 102.353 141.753 106.3 133.711C110.247 125.669 111.721 116.637 110.535 107.758C109.082 96.8961 103.743 86.929 95.5052 79.7022C87.2677 72.4754 76.6904 68.4787 65.7323 68.4523Z" fill="#01004C"/>
<path d="M72.5103 102.157L71.8342 100.462C72.9803 99.7485 73.9587 98.7957 74.7023 97.6688L76.3791 98.3895C76.7869 98.5648 77.2477 98.5709 77.6601 98.4064C78.0724 98.242 78.4026 97.9204 78.5779 97.5126C78.7532 97.1047 78.7592 96.6439 78.5948 96.2316C78.4303 95.8192 78.1088 95.4891 77.701 95.3138L76.0242 94.5931C76.3301 93.2781 76.3482 91.9125 76.0771 90.5899L77.7723 89.9138C77.9765 89.8324 78.1627 89.7116 78.3201 89.5582C78.4776 89.4049 78.6034 89.222 78.6902 89.02C78.777 88.8181 78.8231 88.601 78.826 88.3812C78.8289 88.1614 78.7885 87.9432 78.7071 87.739C78.5426 87.3267 78.2211 86.9965 77.8133 86.8212C77.4054 86.6459 76.9446 86.6398 76.5323 86.8042L74.837 87.4804C74.1234 86.3342 73.1706 85.3559 72.0437 84.6123L72.7643 82.9354C72.8511 82.7335 72.8973 82.5164 72.9002 82.2966C72.9031 82.0768 72.8626 81.8586 72.7812 81.6544C72.6998 81.4502 72.5789 81.2641 72.4256 81.1067C72.2722 80.9492 72.0893 80.8235 71.8874 80.7367C71.6854 80.6499 71.4684 80.6037 71.2486 80.6008C71.0288 80.5979 70.8106 80.6383 70.6064 80.7198C70.4022 80.8012 70.2161 80.922 70.0586 81.0754C69.9012 81.2288 69.7754 81.4116 69.6886 81.6136L68.968 83.2904C67.653 82.9845 66.2874 82.9664 64.9648 83.2374L64.2887 81.5421C64.1243 81.1298 63.8027 80.7997 63.3949 80.6244C62.987 80.4491 62.5262 80.443 62.1139 80.6075C61.7015 80.7719 61.3714 81.0935 61.1961 81.5013C61.0208 81.9092 61.0147 82.37 61.1792 82.7823L61.8552 84.4775C60.7091 85.1911 59.7308 86.1439 58.9871 87.2708L57.3103 86.5502C56.9025 86.3753 56.4419 86.3695 56.0299 86.534C55.6178 86.6986 55.2879 87.02 55.1127 87.4277C54.9375 87.8353 54.9314 88.2959 55.0956 88.7081C55.2598 89.1203 55.581 89.4504 55.9885 89.6259L57.6652 90.3466C57.3594 91.6616 57.3413 93.0272 57.6123 94.3498L55.9171 95.0259C55.7129 95.1073 55.5268 95.2281 55.3693 95.3815C55.2118 95.5349 55.0861 95.7177 54.9993 95.9197C54.9125 96.1216 54.8663 96.3387 54.8634 96.5585C54.8605 96.7783 54.9009 96.9965 54.9824 97.2007C55.0638 97.4049 55.1846 97.591 55.338 97.7485C55.4913 97.906 55.6742 98.0317 55.8762 98.1185C56.0781 98.2053 56.2952 98.2514 56.515 98.2543C56.7348 98.2573 56.953 98.2168 57.1572 98.1354L58.8525 97.4593C59.566 98.6055 60.5189 99.5839 61.6458 100.327L60.9251 102.004C60.8383 102.206 60.7922 102.423 60.7893 102.643C60.7863 102.863 60.8268 103.081 60.9082 103.285C60.9896 103.489 61.1105 103.676 61.2638 103.833C61.4172 103.99 61.6 104.116 61.802 104.203C62.004 104.29 62.221 104.336 62.4408 104.339C62.6606 104.342 62.8788 104.301 63.083 104.22C63.2872 104.139 63.4733 104.018 63.6308 103.864C63.7883 103.711 63.914 103.528 64.0008 103.326L64.7214 101.649C66.0365 101.955 67.402 101.973 68.7247 101.702L69.4008 103.397C69.4822 103.602 69.603 103.788 69.7564 103.945C69.9097 104.103 70.0926 104.228 70.2945 104.315C70.4965 104.402 70.7136 104.448 70.9334 104.451C71.1532 104.454 71.3714 104.414 71.5755 104.332C71.9879 104.168 72.318 103.846 72.4933 103.438C72.6686 103.03 72.6747 102.57 72.5103 102.157ZM61.3589 94.6577C60.9262 93.5727 60.8249 92.3837 61.0679 91.2412C61.3109 90.0986 61.8873 89.0538 62.7241 88.2388C63.5609 87.4238 64.6206 86.8753 65.7692 86.6626C66.9178 86.4499 68.1036 86.5825 69.1768 87.0437C70.25 87.505 71.1623 88.2741 71.7984 89.2538C72.4344 90.2336 72.7657 91.3799 72.7502 92.5479C72.7348 93.7159 72.3734 94.8531 71.7116 95.8157C71.0499 96.7783 70.1176 97.523 69.0325 97.9557C68.3121 98.243 67.5422 98.3857 66.7667 98.3754C65.9911 98.3652 65.2252 98.2022 64.5126 97.896C63.8001 97.5897 63.1548 97.1461 62.6137 96.5905C62.0726 96.0349 61.6462 95.3781 61.3589 94.6577Z" fill="#7FD6C3"/>
<path d="M70.955 105.004C70.5098 105.003 70.075 104.869 69.7067 104.62C69.3383 104.37 69.0533 104.015 68.8884 103.602L68.3794 102.325C67.275 102.499 66.1491 102.484 65.0497 102.281L64.5073 103.544C64.392 103.812 64.2249 104.055 64.0155 104.259C63.8062 104.463 63.5588 104.624 63.2873 104.732C63.0159 104.84 62.7258 104.894 62.4336 104.89C62.1414 104.886 61.8528 104.825 61.5843 104.71C61.3158 104.594 61.0727 104.427 60.8688 104.218C60.6649 104.008 60.5042 103.761 60.3959 103.49C60.2877 103.218 60.2339 102.928 60.2377 102.636C60.2416 102.344 60.3029 102.055 60.4183 101.787L60.9612 100.524C60.0568 99.8663 59.2711 99.0598 58.6376 98.1386L57.3612 98.6476C57.0896 98.7564 56.7992 98.8106 56.5067 98.8071C56.2142 98.8036 55.9252 98.7424 55.6564 98.6271C55.3875 98.5118 55.144 98.3447 54.9399 98.1352C54.7357 97.9257 54.5748 97.6779 54.4665 97.4062C54.3581 97.1345 54.3044 96.844 54.3084 96.5515C54.3125 96.259 54.3741 95.9701 54.4899 95.7015C54.6057 95.4328 54.7733 95.1896 54.9832 94.9858C55.193 94.782 55.441 94.6216 55.7129 94.5137L56.9895 94.0048C56.8149 92.9007 56.8296 91.7749 57.0331 90.6757L55.7706 90.1328C55.2288 89.8994 54.8019 89.4605 54.5835 88.9125C54.3651 88.3645 54.3733 87.7523 54.6061 87.2102C54.839 86.6682 55.2775 86.2409 55.8253 86.022C56.3731 85.8031 56.9854 85.8107 57.5276 86.0431L58.7912 86.586C59.4482 85.6817 60.2548 84.8961 61.1761 84.263L60.6666 82.987C60.558 82.7155 60.504 82.4253 60.5077 82.1329C60.5114 81.8405 60.5726 81.5517 60.6879 81.283C60.8033 81.0142 60.9704 80.7709 61.1798 80.5668C61.3893 80.3627 61.6368 80.2019 61.9084 80.0936C62.18 79.9852 62.4703 79.9315 62.7627 79.9354C63.0551 79.9393 63.3439 80.0008 63.6125 80.1163C63.8811 80.2319 64.1243 80.3992 64.3282 80.6088C64.5321 80.8184 64.6928 81.0661 64.8009 81.3378L65.3098 82.6144C66.4139 82.4391 67.5399 82.4541 68.639 82.6585L69.1819 81.3955C69.2973 81.127 69.4644 80.8839 69.6738 80.68C69.8831 80.4761 70.1306 80.3154 70.4021 80.2072C70.6735 80.0989 70.9636 80.0452 71.2558 80.0491C71.5481 80.0529 71.8366 80.1143 72.1051 80.2297C72.3736 80.3451 72.6168 80.5122 72.8207 80.7216C73.0246 80.9309 73.1852 81.1784 73.2935 81.4499C73.4017 81.7213 73.4555 82.0114 73.4516 82.3036C73.4477 82.5958 73.3864 82.8844 73.271 83.1529L72.7281 84.416C73.6324 85.0731 74.418 85.8797 75.0511 86.801L76.3281 86.2919C76.5996 86.1833 76.8899 86.1292 77.1823 86.1328C77.4747 86.1364 77.7636 86.1977 78.0323 86.313C78.3011 86.4283 78.5445 86.5955 78.7486 86.805C78.9526 87.0144 79.1134 87.2621 79.2217 87.5337C79.33 87.8054 79.3837 88.0957 79.3797 88.3882C79.3757 88.6806 79.3141 88.9693 79.1985 89.2379C79.0828 89.5065 78.9153 89.7497 78.7056 89.9535C78.4958 90.1573 78.248 90.3178 77.9762 90.4258L76.6997 90.9353C76.8744 92.0394 76.8595 93.1653 76.6556 94.2644L77.9186 94.8068C78.4609 95.0399 78.8885 95.4788 79.1071 96.0271C79.3258 96.5754 79.3177 97.188 79.0847 97.7304C78.8516 98.2727 78.4127 98.7002 77.8644 98.9189C77.3161 99.1376 76.7034 99.1295 76.1611 98.8964L74.8981 98.3535C74.241 99.2578 73.4344 100.043 72.5131 100.677L73.0221 101.953C73.1564 102.291 73.206 102.656 73.1666 103.017C73.1272 103.379 73.0001 103.725 72.7963 104.026C72.5924 104.326 72.318 104.573 71.9971 104.743C71.6762 104.914 71.3184 105.003 70.955 105.004ZM69.0661 101.069L69.9128 103.193C69.9671 103.331 70.0481 103.456 70.1509 103.562C70.2537 103.668 70.3764 103.753 70.512 103.811C70.6476 103.87 70.7935 103.901 70.9411 103.903C71.0888 103.905 71.2354 103.878 71.3725 103.823C71.5097 103.768 71.6347 103.687 71.7403 103.584C71.846 103.481 71.9303 103.358 71.9884 103.222C72.0465 103.086 72.0772 102.94 72.0788 102.792C72.0804 102.645 72.0528 102.498 71.9977 102.361L71.151 100.238L71.5426 99.9941C72.6221 99.3235 73.5432 98.4265 74.2421 97.3651L74.4964 96.9801L76.5964 97.8827C76.8699 98.0002 77.1788 98.0043 77.4553 97.8941C77.7318 97.7839 77.9533 97.5685 78.0711 97.2951C78.1882 97.0215 78.192 96.7126 78.0818 96.4362C77.9715 96.1598 77.7562 95.9383 77.4829 95.8204L75.3823 94.9178L75.4868 94.4679C75.7763 93.2306 75.7934 91.9451 75.5369 90.7004L75.4442 90.2485L77.5674 89.4013C77.7046 89.347 77.8298 89.2662 77.9358 89.1634C78.0418 89.0606 78.1264 88.938 78.1849 88.8024C78.2433 88.6669 78.2745 88.5212 78.2766 88.3736C78.2787 88.226 78.2516 88.0794 78.197 87.9423C78.1423 87.8052 78.0611 87.6802 77.9581 87.5745C77.8551 87.4688 77.7322 87.3844 77.5965 87.3263C77.4608 87.2682 77.315 87.2373 77.1674 87.2356C77.0198 87.2339 76.8733 87.2613 76.7364 87.3163L74.6126 88.163L74.3686 87.7715C73.698 86.692 72.801 85.771 71.7397 85.072L71.3546 84.8178L72.2573 82.7178C72.3749 82.4443 72.3791 82.1354 72.2689 81.859C72.1586 81.5825 71.9431 81.3611 71.6697 81.2436C71.3963 81.126 71.0873 81.1219 70.8109 81.2321C70.5344 81.3423 70.3131 81.5578 70.1955 81.8312L69.2918 83.9318L68.8426 83.8273C67.6051 83.5382 66.3196 83.5213 65.075 83.7777L64.6232 83.8704L63.7765 81.7461C63.6657 81.4701 63.45 81.2494 63.1767 81.1323C62.9033 81.0152 62.5947 81.0113 62.3185 81.1215C62.0423 81.2317 61.8211 81.447 61.7035 81.7201C61.5859 81.9932 61.5814 82.3018 61.691 82.5782L62.5387 84.7014L62.1467 84.9454C61.0672 85.616 60.1461 86.513 59.4471 87.5743L59.1929 87.9595L57.0923 87.0568C56.8188 86.9392 56.5099 86.9351 56.2333 87.0454C55.9568 87.1556 55.7355 87.3712 55.6179 87.6447C55.5003 87.9181 55.4962 88.2271 55.6065 88.5036C55.7167 88.7801 55.9323 89.0015 56.2058 89.1191L58.3063 90.0218L58.2025 90.471C57.9129 91.7087 57.8958 92.9946 58.1524 94.2396L58.245 94.6915L56.1213 95.5383C55.9844 95.5929 55.8596 95.6739 55.754 95.7767C55.6484 95.8796 55.5642 96.0022 55.506 96.1376C55.4478 96.273 55.4168 96.4185 55.4149 96.5659C55.4129 96.7133 55.44 96.8596 55.4946 96.9965C55.5493 97.1334 55.6303 97.2582 55.7331 97.3638C55.836 97.4694 55.9586 97.5536 56.094 97.6118C56.2294 97.67 56.3749 97.701 56.5223 97.7029C56.6697 97.7049 56.816 97.6777 56.9529 97.6231L59.0761 96.7764L59.3201 97.168C59.9904 98.2477 60.8877 99.1687 61.9496 99.867L62.3346 100.121L61.4319 102.222C61.3145 102.495 61.3105 102.804 61.4207 103.08C61.5309 103.357 61.7464 103.578 62.0197 103.695C62.2931 103.813 62.6019 103.817 62.8783 103.707C63.1547 103.597 63.3761 103.382 63.4938 103.108L64.3964 101.008L64.8461 101.112C66.0836 101.401 67.3691 101.418 68.6137 101.162L69.0661 101.069ZM66.8433 98.9308C65.2317 98.9338 63.6769 98.3359 62.4827 97.2538C61.2885 96.1716 60.5407 94.6831 60.3854 93.0791C60.23 91.475 60.6784 89.8706 61.6428 88.5795C62.6072 87.2883 64.0183 86.4032 65.6005 86.0969C67.1827 85.7907 68.8223 86.0854 70.1988 86.9234C71.5753 87.7615 72.5899 89.0827 73.0443 90.6288C73.4988 92.175 73.3604 93.8351 72.6562 95.2846C71.952 96.7342 70.7326 97.8691 69.2363 98.4677C68.4754 98.773 67.6632 98.9302 66.8433 98.9308ZM66.8454 87.1123C65.516 87.1098 64.2331 87.6009 63.2451 88.4903C62.2571 89.3798 61.6344 90.6042 61.4976 91.9265C61.3609 93.2488 61.7198 94.5748 62.5048 95.6477C63.2898 96.7205 64.4451 97.4637 65.7468 97.7335C67.0485 98.0032 68.404 97.7802 69.5506 97.1076C70.6973 96.435 71.5535 95.3608 71.9534 94.093C72.3533 92.8252 72.2684 91.4541 71.7152 90.2453C71.162 89.0366 70.1798 88.0762 68.9589 87.5502C68.2914 87.2623 67.5723 87.1133 66.8454 87.1123Z" fill="#01004C"/>
<path d="M40.6523 90.8732H92.305C92.6855 90.8732 93.0504 91.0243 93.3195 91.2934C93.5886 91.5625 93.7397 91.9274 93.7397 92.3079V129.064C93.7397 129.198 93.6868 129.325 93.5927 129.419C93.4986 129.513 93.3709 129.566 93.2378 129.566H39.7194C39.5863 129.566 39.4587 129.513 39.3645 129.419C39.2704 129.325 39.2175 129.198 39.2175 129.064V92.3079C39.2175 91.9274 39.3687 91.5625 39.6378 91.2934C39.9068 91.0243 40.2718 90.8732 40.6523 90.8732Z" fill="#CACAE5"/>
<path d="M93.2376 130.118H39.7196C39.4402 130.117 39.1724 130.006 38.9749 129.809C38.7773 129.611 38.6663 129.343 38.666 129.064V92.3079C38.6666 91.7813 38.876 91.2764 39.2484 90.904C39.6208 90.5316 40.1258 90.3222 40.6524 90.3217H92.3047C92.8314 90.3222 93.3363 90.5316 93.7088 90.904C94.0812 91.2764 94.2906 91.7813 94.2911 92.3079V129.064C94.2909 129.343 94.1799 129.611 93.9823 129.809C93.7848 130.006 93.517 130.117 93.2376 130.118ZM40.6524 91.4247C40.4183 91.425 40.1938 91.5182 40.0282 91.6837C39.8626 91.8493 39.7694 92.0738 39.7691 92.3079V129.064L93.1881 129.015V92.3079C93.1877 92.0738 93.0946 91.8493 92.929 91.6837C92.7634 91.5182 92.5389 91.425 92.3047 91.4247H40.6524Z" fill="#01004C"/>
<path d="M89.7527 94.5853H43.2048V125.854H89.7527V94.5853Z" fill="white"/>
<path d="M89.7524 126.406H43.2051C43.1327 126.406 43.0609 126.391 42.994 126.364C42.927 126.336 42.8662 126.295 42.815 126.244C42.7638 126.193 42.7232 126.132 42.6955 126.065C42.6678 125.998 42.6535 125.926 42.6536 125.854V94.5852C42.6535 94.5128 42.6677 94.441 42.6954 94.3741C42.7231 94.3072 42.7638 94.2463 42.815 94.1951C42.8662 94.1439 42.927 94.1033 42.994 94.0756C43.0609 94.0479 43.1327 94.0336 43.2051 94.0337H89.7524C89.8249 94.0336 89.8966 94.0479 89.9635 94.0756C90.0305 94.1033 90.0913 94.1439 90.1425 94.1951C90.1937 94.2463 90.2344 94.3072 90.2621 94.3741C90.2898 94.441 90.304 94.5128 90.304 94.5852V125.854C90.304 125.926 90.2898 125.998 90.2621 126.065C90.2344 126.132 90.1937 126.193 90.1425 126.244C90.0913 126.295 90.0305 126.336 89.9635 126.364C89.8966 126.391 89.8249 126.406 89.7524 126.406ZM43.7566 125.302H89.2009V95.1368H43.7566V125.302Z" fill="#01004C"/>
<path d="M31.8627 129.231H101.095V132.94C101.095 133.474 100.883 133.986 100.505 134.364C100.127 134.742 99.6151 134.954 99.0809 134.954H33.8769C33.3427 134.954 32.8303 134.742 32.4526 134.364C32.0749 133.986 31.8627 133.474 31.8627 132.94V129.231Z" fill="#CACAE5"/>
<path d="M99.0806 135.505H33.8769C33.1967 135.505 32.5445 135.234 32.0635 134.753C31.5825 134.272 31.3119 133.62 31.311 132.94V129.232C31.311 129.159 31.3252 129.088 31.3529 129.021C31.3806 128.954 31.4212 128.893 31.4725 128.842C31.5237 128.79 31.5845 128.75 31.6515 128.722C31.7184 128.694 31.7901 128.68 31.8626 128.68H101.095C101.167 128.68 101.239 128.694 101.306 128.722C101.373 128.75 101.434 128.79 101.485 128.842C101.536 128.893 101.577 128.954 101.605 129.021C101.632 129.088 101.646 129.159 101.646 129.232V132.94C101.646 133.62 101.375 134.272 100.894 134.753C100.413 135.234 99.7608 135.505 99.0806 135.505ZM32.4141 129.783V132.94C32.4146 133.328 32.5689 133.699 32.8431 133.974C33.1173 134.248 33.4891 134.402 33.8769 134.402H99.0806C99.4683 134.402 99.8401 134.248 100.114 133.974C100.389 133.699 100.543 133.328 100.543 132.94V129.783H32.4141Z" fill="#01004C"/>
<path d="M77.1604 113.202C78.5648 107.28 74.9025 101.341 68.9804 99.9367C63.0584 98.5323 57.1192 102.195 55.7148 108.117C54.3104 114.039 57.9728 119.978 63.8948 121.382C69.8169 122.787 75.7561 119.124 77.1604 113.202Z" fill="#2AAFEB"/>
<path d="M66.4377 122.231C64.149 122.232 61.9116 121.553 60.0085 120.282C58.1054 119.01 56.6221 117.203 55.7461 115.088C54.8702 112.974 54.641 110.647 55.0874 108.402C55.5338 106.157 56.6359 104.096 58.2543 102.477C59.8726 100.859 61.9346 99.7565 64.1793 99.3099C66.4241 98.8634 68.7508 99.0925 70.8654 99.9683C72.9799 100.844 74.7873 102.327 76.0588 104.23C77.3304 106.133 78.0091 108.371 78.0091 110.66C78.0056 113.727 76.7854 116.669 74.6161 118.838C72.4468 121.008 69.5056 122.228 66.4377 122.231ZM66.4377 100.191C64.3671 100.19 62.343 100.804 60.6213 101.955C58.8997 103.105 57.5577 104.74 56.7653 106.653C55.9728 108.566 55.7654 110.671 56.1693 112.701C56.5731 114.732 57.5701 116.598 59.0342 118.062C60.4983 119.526 62.3637 120.523 64.3944 120.927C66.4252 121.331 68.5302 121.124 70.4432 120.332C72.3562 119.539 73.9912 118.197 75.1416 116.476C76.292 114.754 76.906 112.73 76.906 110.66C76.903 107.884 75.7991 105.223 73.8366 103.26C71.8741 101.298 69.2132 100.194 66.4377 100.191Z" fill="#01004C"/>
<path d="M69.6534 110.659C69.6534 116.746 68.1824 121.679 66.3677 121.679C64.553 121.679 63.0818 116.746 63.0818 110.659C63.0818 104.573 64.553 99.639 66.3677 99.639C68.1824 99.639 69.6534 104.573 69.6534 110.659Z" fill="#2AAFEB"/>
<path d="M66.3678 122.231C63.8482 122.231 62.5303 116.41 62.5303 110.66C62.5303 104.909 63.8482 99.0875 66.3678 99.0875C68.8869 99.0875 70.2048 104.909 70.2048 110.66C70.2048 116.41 68.8869 122.231 66.3678 122.231ZM66.3678 100.191C65.2261 100.191 63.6333 104.173 63.6333 110.66C63.6333 117.146 65.2261 121.128 66.3678 121.128C67.5097 121.128 69.1018 117.146 69.1018 110.66C69.1018 104.173 67.5097 100.191 66.3678 100.191Z" fill="#01004C"/>
<path d="M76.77 107.68H55.9248C55.7785 107.68 55.6383 107.622 55.5348 107.519C55.4314 107.415 55.3733 107.275 55.3733 107.129C55.3733 106.983 55.4314 106.842 55.5348 106.739C55.6383 106.635 55.7785 106.577 55.9248 106.577H76.77C76.9163 106.577 77.0565 106.635 77.16 106.739C77.2634 106.842 77.3215 106.983 77.3215 107.129C77.3215 107.275 77.2634 107.415 77.16 107.519C77.0565 107.622 76.9163 107.68 76.77 107.68Z" fill="#01004C"/>
<path d="M76.77 115.133H55.9248C55.7785 115.133 55.6383 115.075 55.5348 114.972C55.4314 114.868 55.3733 114.728 55.3733 114.582C55.3733 114.435 55.4314 114.295 55.5348 114.192C55.6383 114.088 55.7785 114.03 55.9248 114.03H76.77C76.9163 114.03 77.0565 114.088 77.16 114.192C77.2634 114.295 77.3215 114.435 77.3215 114.582C77.3215 114.728 77.2634 114.868 77.16 114.972C77.0565 115.075 76.9163 115.133 76.77 115.133Z" fill="#01004C"/>
<path d="M410.167 113.74H373.801V114.843H410.167V113.74Z" fill="#01004C"/>
<path d="M374.698 107.591V120.992L368 114.292L374.698 107.591Z" fill="#01004C"/>
<path d="M409.269 107.591V120.992L415.967 114.292L409.269 107.591Z" fill="#01004C"/>
<path d="M517.033 132.708C524.924 108.648 511.818 82.7474 487.759 74.8559C463.7 66.9643 437.799 80.0706 429.907 104.13C422.016 128.189 435.122 154.09 459.181 161.981C483.24 169.873 509.141 156.767 517.033 132.708Z" fill="#01004C"/>
<path d="M473.374 164.824C464.463 164.807 455.746 162.223 448.264 157.383C440.782 152.543 434.851 145.651 431.182 137.531C427.512 129.41 426.259 120.405 427.571 111.591C428.883 102.777 432.705 94.5276 438.58 87.828C444.456 81.1284 452.136 76.2622 460.703 73.8111C469.271 71.36 478.362 71.4277 486.892 74.0059C495.422 76.5842 503.029 81.5641 508.804 88.3503C514.58 95.1366 518.278 103.442 519.459 112.275C521.074 124.47 517.786 136.807 510.316 146.581C502.846 156.354 491.804 162.765 479.613 164.408C477.545 164.685 475.461 164.824 473.374 164.824ZM473.502 73.1203C471.486 73.1206 469.472 73.255 467.473 73.5227C455.834 75.0851 445.257 81.1097 437.977 90.3245C430.697 99.5392 427.282 111.223 428.455 122.908C429.628 134.592 435.296 145.364 444.263 152.948C453.229 160.532 464.792 164.335 476.51 163.552C488.227 162.77 499.182 157.465 507.061 148.757C514.941 140.049 519.127 128.619 518.737 116.882C518.346 105.145 513.41 94.0187 504.969 85.8532C496.529 77.6877 485.246 73.122 473.502 73.1203Z" fill="#01004C"/>
<path d="M476.089 159.019C501.088 154.996 518.093 131.47 514.07 106.471C510.048 81.4725 486.521 64.468 461.522 68.4905C436.524 72.513 419.519 96.0394 423.542 121.038C427.564 146.037 451.091 163.041 476.089 159.019Z" fill="#2AAFEB"/>
<path d="M468.774 160.156C456.73 160.155 445.159 155.473 436.502 147.099C427.846 138.725 422.783 127.315 422.383 115.278C421.982 103.241 426.276 91.5196 434.356 82.589C442.437 73.6583 453.672 68.2177 465.689 67.416C477.706 66.6143 489.564 70.5144 498.759 78.2925C507.954 86.0707 513.767 97.118 514.969 109.102C516.171 121.085 512.668 133.067 505.201 142.516C497.734 151.966 486.887 158.143 474.95 159.744C472.903 160.019 470.839 160.156 468.774 160.156ZM468.9 68.4521C466.863 68.4527 464.828 68.5885 462.808 68.8587C451.209 70.4264 440.673 76.4392 433.423 85.6282C426.173 94.8171 422.777 106.463 423.951 118.109C425.126 129.754 430.778 140.488 439.717 148.045C448.655 155.601 460.18 159.39 471.858 158.61C483.537 157.831 494.456 152.544 502.311 143.867C510.165 135.189 514.342 123.8 513.958 112.101C513.574 100.403 508.66 89.3115 500.253 81.1676C491.847 73.0236 480.605 68.4644 468.9 68.4521Z" fill="#01004C"/>
<path d="M475.608 137.006C475.536 137.007 475.464 136.992 475.397 136.965C475.33 136.937 475.269 136.896 475.218 136.845C475.167 136.794 475.126 136.733 475.099 136.666C475.071 136.599 475.057 136.527 475.057 136.455V124.099C475.057 123.952 475.115 123.812 475.218 123.709C475.322 123.605 475.462 123.547 475.608 123.547C475.754 123.547 475.895 123.605 475.998 123.709C476.102 123.812 476.16 123.952 476.16 124.099V136.455C476.16 136.527 476.145 136.599 476.118 136.666C476.09 136.733 476.049 136.794 475.998 136.845C475.947 136.896 475.886 136.937 475.819 136.965C475.752 136.992 475.681 137.007 475.608 137.006Z" fill="white"/>
<path d="M480.886 136.051C480.814 136.052 480.742 136.037 480.675 136.01C480.608 135.982 480.548 135.941 480.496 135.89C480.445 135.839 480.405 135.778 480.377 135.711C480.349 135.644 480.335 135.572 480.335 135.5V131.535H475.679C475.533 131.535 475.393 131.477 475.289 131.374C475.186 131.27 475.128 131.13 475.128 130.984C475.128 130.837 475.186 130.697 475.289 130.594C475.393 130.49 475.533 130.432 475.679 130.432H480.886C480.959 130.432 481.031 130.446 481.098 130.474C481.164 130.502 481.225 130.542 481.277 130.594C481.328 130.645 481.368 130.706 481.396 130.773C481.424 130.839 481.438 130.911 481.438 130.984V135.5C481.438 135.572 481.424 135.644 481.396 135.711C481.368 135.778 481.328 135.839 481.277 135.89C481.225 135.941 481.164 135.982 481.098 136.01C481.031 136.037 480.959 136.052 480.886 136.051Z" fill="white"/>
<path d="M480.872 137.424C480.633 137.424 480.398 137.353 480.199 137.22C480 137.087 479.845 136.898 479.753 136.676C479.661 136.455 479.637 136.211 479.684 135.976C479.731 135.741 479.846 135.526 480.016 135.356C480.185 135.187 480.401 135.071 480.636 135.025C480.871 134.978 481.115 135.002 481.336 135.093C481.557 135.185 481.747 135.34 481.88 135.54C482.013 135.739 482.084 135.973 482.084 136.213C482.084 136.534 481.956 136.842 481.729 137.069C481.502 137.296 481.194 137.424 480.872 137.424ZM480.872 136.104C480.858 136.104 480.844 136.107 480.831 136.112C480.817 136.118 480.806 136.126 480.795 136.136C480.785 136.146 480.777 136.158 480.772 136.171C480.766 136.184 480.763 136.198 480.763 136.213C480.763 136.332 480.981 136.332 480.981 136.213C480.981 136.198 480.978 136.184 480.973 136.171C480.967 136.158 480.959 136.146 480.949 136.136C480.939 136.126 480.927 136.118 480.914 136.112C480.901 136.107 480.887 136.104 480.872 136.104Z" fill="white"/>
<path d="M469.74 142.957C469.668 142.957 469.596 142.943 469.529 142.916C469.462 142.888 469.402 142.847 469.35 142.796C469.299 142.745 469.259 142.684 469.231 142.617C469.203 142.55 469.189 142.478 469.189 142.406V124.056C469.189 123.91 469.247 123.77 469.35 123.666C469.454 123.563 469.594 123.505 469.74 123.505C469.887 123.505 470.027 123.563 470.13 123.666C470.234 123.77 470.292 123.91 470.292 124.056V142.406C470.292 142.478 470.278 142.55 470.25 142.617C470.222 142.684 470.182 142.745 470.131 142.796C470.079 142.847 470.019 142.888 469.952 142.916C469.885 142.943 469.813 142.957 469.74 142.957Z" fill="white"/>
<path d="M475.617 139.343C475.288 139.344 474.968 139.247 474.695 139.064C474.422 138.882 474.209 138.623 474.084 138.32C473.958 138.017 473.925 137.684 473.989 137.362C474.053 137.04 474.211 136.744 474.442 136.512C474.674 136.28 474.97 136.122 475.292 136.058C475.613 135.994 475.947 136.027 476.25 136.152C476.553 136.278 476.812 136.49 476.995 136.763C477.177 137.036 477.274 137.356 477.274 137.685C477.274 138.124 477.099 138.546 476.788 138.857C476.478 139.168 476.056 139.343 475.617 139.343ZM475.617 137.129C475.507 137.129 475.399 137.161 475.308 137.222C475.216 137.283 475.145 137.37 475.103 137.472C475.06 137.573 475.049 137.685 475.071 137.793C475.092 137.901 475.145 138 475.223 138.077C475.3 138.155 475.399 138.208 475.507 138.23C475.615 138.251 475.727 138.24 475.828 138.198C475.93 138.156 476.017 138.085 476.078 137.993C476.139 137.902 476.171 137.795 476.171 137.685C476.171 137.537 476.113 137.396 476.009 137.292C475.905 137.188 475.764 137.129 475.617 137.129Z" fill="white"/>
<path d="M463.688 137.006C463.615 137.007 463.544 136.992 463.477 136.965C463.41 136.937 463.349 136.896 463.298 136.845C463.246 136.794 463.206 136.733 463.178 136.666C463.15 136.599 463.136 136.527 463.136 136.455V124.099C463.136 123.952 463.194 123.812 463.298 123.709C463.401 123.605 463.541 123.547 463.688 123.547C463.834 123.547 463.974 123.605 464.078 123.709C464.181 123.812 464.239 123.952 464.239 124.099V136.455C464.239 136.527 464.225 136.599 464.197 136.666C464.17 136.733 464.129 136.794 464.078 136.845C464.027 136.896 463.966 136.937 463.899 136.965C463.832 136.992 463.76 137.007 463.688 137.006Z" fill="white"/>
<path d="M458.409 136.051C458.337 136.052 458.265 136.037 458.198 136.01C458.131 135.982 458.071 135.941 458.019 135.89C457.968 135.839 457.927 135.778 457.9 135.711C457.872 135.644 457.858 135.572 457.858 135.5V130.984C457.858 130.911 457.872 130.839 457.9 130.773C457.927 130.706 457.968 130.645 458.019 130.594C458.071 130.542 458.131 130.502 458.198 130.474C458.265 130.446 458.337 130.432 458.409 130.432H463.617C463.763 130.432 463.903 130.49 464.007 130.594C464.11 130.697 464.168 130.837 464.168 130.984C464.168 131.13 464.11 131.27 464.007 131.374C463.903 131.477 463.763 131.535 463.617 131.535H458.961V135.5C458.961 135.572 458.947 135.644 458.919 135.711C458.891 135.778 458.851 135.839 458.799 135.89C458.748 135.941 458.687 135.982 458.621 136.01C458.554 136.037 458.482 136.052 458.409 136.051Z" fill="white"/>
<path d="M458.422 137.424C458.182 137.424 457.948 137.353 457.749 137.22C457.55 137.087 457.395 136.898 457.303 136.676C457.211 136.455 457.187 136.211 457.234 135.976C457.281 135.741 457.396 135.526 457.566 135.356C457.735 135.187 457.951 135.071 458.186 135.025C458.421 134.978 458.664 135.002 458.886 135.093C459.107 135.185 459.296 135.34 459.43 135.54C459.563 135.739 459.634 135.973 459.634 136.213C459.634 136.534 459.506 136.842 459.279 137.069C459.052 137.297 458.743 137.424 458.422 137.424ZM458.422 136.104C458.393 136.104 458.366 136.116 458.346 136.136C458.326 136.156 458.314 136.184 458.314 136.213C458.314 136.333 458.531 136.331 458.531 136.213C458.531 136.198 458.528 136.184 458.523 136.171C458.517 136.158 458.509 136.146 458.499 136.136C458.489 136.126 458.477 136.118 458.464 136.112C458.45 136.107 458.436 136.104 458.422 136.104Z" fill="white"/>
<path d="M463.679 139.343C463.351 139.343 463.03 139.246 462.758 139.064C462.485 138.882 462.272 138.623 462.147 138.319C462.021 138.016 461.988 137.683 462.052 137.361C462.116 137.039 462.274 136.744 462.506 136.512C462.738 136.28 463.034 136.122 463.356 136.058C463.677 135.994 464.011 136.027 464.314 136.152C464.617 136.278 464.876 136.49 465.058 136.763C465.24 137.036 465.338 137.357 465.338 137.685C465.338 138.124 465.163 138.546 464.852 138.857C464.541 139.168 464.119 139.343 463.679 139.343ZM463.679 137.129C463.569 137.129 463.462 137.162 463.37 137.223C463.279 137.284 463.208 137.371 463.166 137.472C463.124 137.574 463.113 137.686 463.134 137.793C463.156 137.901 463.209 138 463.286 138.078C463.364 138.156 463.463 138.208 463.571 138.23C463.679 138.251 463.79 138.24 463.892 138.198C463.994 138.156 464.08 138.085 464.141 137.993C464.202 137.902 464.235 137.794 464.235 137.685C464.235 137.612 464.22 137.539 464.192 137.472C464.165 137.405 464.124 137.343 464.072 137.292C464.02 137.24 463.959 137.199 463.892 137.171C463.824 137.143 463.752 137.129 463.679 137.129Z" fill="white"/>
<path d="M469.73 145.73C469.361 145.73 469.001 145.621 468.694 145.416C468.387 145.211 468.148 144.92 468.007 144.579C467.866 144.239 467.829 143.864 467.901 143.502C467.973 143.14 468.151 142.808 468.411 142.547C468.672 142.286 469.004 142.109 469.366 142.037C469.728 141.965 470.103 142.002 470.443 142.143C470.784 142.284 471.075 142.523 471.28 142.83C471.485 143.136 471.595 143.497 471.595 143.866C471.594 144.36 471.397 144.834 471.048 145.183C470.698 145.533 470.224 145.73 469.73 145.73ZM469.73 143.104C469.579 143.104 469.432 143.149 469.307 143.232C469.182 143.316 469.084 143.435 469.026 143.574C468.969 143.713 468.954 143.866 468.983 144.014C469.012 144.162 469.085 144.298 469.191 144.404C469.298 144.511 469.434 144.583 469.581 144.613C469.729 144.642 469.882 144.627 470.021 144.569C470.16 144.512 470.279 144.414 470.363 144.289C470.447 144.164 470.491 144.016 470.491 143.866C470.491 143.664 470.411 143.47 470.268 143.327C470.125 143.185 469.932 143.104 469.73 143.104Z" fill="white"/>
<path d="M502.515 112.565C502.505 112.429 502.517 112.293 502.515 112.157C502.453 110.106 501.926 108.097 500.974 106.279C500.022 104.462 498.669 102.885 497.018 101.666C495.367 100.448 493.461 99.6215 491.444 99.248C489.426 98.8745 487.35 98.9643 485.373 99.5106C483.769 95.6138 480.877 92.3857 477.178 90.3666C473.48 88.3474 469.2 87.6598 465.055 88.4186C460.91 89.1774 457.152 91.3367 454.408 94.5352C451.665 97.7337 450.103 101.777 449.985 105.989H446.902C444.208 105.989 441.625 107.059 439.72 108.964C437.816 110.869 436.746 113.452 436.746 116.146V116.282C436.746 117.616 437.008 118.936 437.519 120.169C438.029 121.401 438.777 122.521 439.72 123.464C440.663 124.407 441.783 125.155 443.015 125.665C444.247 126.176 445.568 126.438 446.902 126.438H490.342C498.027 126.438 503.014 119.154 502.515 112.565Z" fill="white"/>
<path d="M490.342 126.99H446.902C444.063 126.987 441.341 125.858 439.334 123.85C437.326 121.843 436.197 119.121 436.194 116.282V116.146C436.197 113.307 437.326 110.585 439.334 108.578C441.341 106.57 444.063 105.441 446.902 105.438H449.456C449.696 101.192 451.358 97.1498 454.175 93.9632C456.991 90.7765 460.798 88.6305 464.983 87.8708C469.167 87.1111 473.486 87.7819 477.243 89.7751C481 91.7682 483.977 94.9679 485.694 98.8587C486.77 98.601 487.872 98.4706 488.977 98.4705C492.632 98.509 496.131 99.95 498.753 102.495C501.375 105.041 502.919 108.496 503.066 112.148L503.065 112.336C503.062 112.398 503.062 112.46 503.065 112.522L503.066 112.524C503.185 114.432 502.915 116.344 502.274 118.145C501.633 119.946 500.633 121.598 499.335 123.002C498.196 124.256 496.808 125.258 495.26 125.945C493.711 126.632 492.036 126.988 490.342 126.99ZM446.902 106.541C444.355 106.544 441.914 107.557 440.113 109.357C438.313 111.158 437.3 113.599 437.297 116.146V116.282C437.3 118.828 438.313 121.27 440.113 123.07C441.914 124.871 444.355 125.884 446.902 125.887H490.342C491.884 125.884 493.409 125.559 494.818 124.933C496.227 124.307 497.49 123.394 498.526 122.252C499.722 120.96 500.643 119.44 501.234 117.782C501.825 116.124 502.074 114.363 501.965 112.607C501.958 112.508 501.96 112.408 501.962 112.309L501.963 112.17C501.904 110.203 501.398 108.276 500.484 106.533C499.571 104.79 498.273 103.277 496.689 102.109C495.106 100.941 493.277 100.148 491.342 99.7903C489.407 99.4323 487.416 99.5186 485.52 100.043C485.39 100.078 485.252 100.065 485.131 100.006C485.01 99.9469 484.915 99.8455 484.864 99.7211C483.309 95.941 480.503 92.8096 476.915 90.8509C473.327 88.8922 469.176 88.225 465.155 88.9609C461.135 89.6969 457.489 91.7913 454.827 94.8938C452.166 97.9962 450.651 101.919 450.536 106.004C450.532 106.148 450.472 106.284 450.369 106.385C450.266 106.485 450.128 106.541 449.985 106.541H446.902Z" fill="#01004C"/>
<path d="M474.843 117.936L474.166 116.241C475.313 115.528 476.291 114.575 477.035 113.448L478.711 114.168C479.119 114.344 479.58 114.35 479.992 114.185C480.405 114.021 480.735 113.699 480.91 113.292C481.085 112.884 481.091 112.423 480.927 112.011C480.763 111.598 480.441 111.268 480.033 111.093L478.356 110.372C478.662 109.057 478.68 107.691 478.409 106.369L480.105 105.693C480.309 105.611 480.495 105.491 480.652 105.337C480.81 105.184 480.936 105.001 481.022 104.799C481.109 104.597 481.155 104.38 481.158 104.16C481.161 103.94 481.121 103.722 481.039 103.518C480.875 103.106 480.553 102.776 480.146 102.6C479.738 102.425 479.277 102.419 478.865 102.583L477.169 103.259C476.456 102.113 475.503 101.135 474.376 100.391L475.097 98.7144C475.184 98.5124 475.23 98.2951 475.234 98.0751C475.237 97.855 475.197 97.6365 475.115 97.432C475.034 97.2275 474.913 97.0411 474.76 96.8833C474.606 96.7256 474.423 96.5997 474.221 96.5128C474.019 96.4259 473.801 96.3797 473.581 96.3769C473.361 96.3741 473.143 96.4147 472.939 96.4964C472.734 96.5781 472.548 96.6993 472.391 96.8531C472.233 97.0068 472.108 97.1902 472.021 97.3925L471.3 99.0693C469.985 98.7634 468.62 98.7454 467.297 99.0164L466.621 97.3211C466.457 96.9088 466.135 96.5787 465.727 96.4034C465.319 96.2281 464.859 96.222 464.446 96.3864C464.034 96.5508 463.704 96.8724 463.528 97.2803C463.353 97.6881 463.347 98.1489 463.511 98.5613L464.187 100.256C463.041 100.97 462.063 101.923 461.319 103.05L459.643 102.329C459.441 102.242 459.224 102.196 459.004 102.193C458.784 102.19 458.566 102.231 458.362 102.312C458.157 102.394 457.971 102.514 457.814 102.668C457.656 102.821 457.531 103.004 457.444 103.206C457.357 103.408 457.311 103.625 457.308 103.845C457.305 104.065 457.345 104.283 457.427 104.487C457.508 104.691 457.629 104.877 457.783 105.035C457.936 105.192 458.119 105.318 458.321 105.405L459.997 106.126C459.692 107.441 459.674 108.806 459.945 110.129L458.249 110.805C457.837 110.969 457.507 111.291 457.332 111.699C457.156 112.107 457.15 112.567 457.315 112.98C457.479 113.392 457.801 113.722 458.209 113.897C458.616 114.073 459.077 114.079 459.49 113.914L461.185 113.238C461.898 114.384 462.851 115.363 463.978 116.106L463.257 117.783C463.17 117.985 463.124 118.202 463.121 118.422C463.117 118.642 463.158 118.861 463.239 119.065C463.32 119.27 463.441 119.456 463.595 119.614C463.748 119.772 463.931 119.897 464.133 119.984C464.335 120.071 464.553 120.117 464.773 120.12C464.993 120.123 465.211 120.082 465.416 120.001C465.62 119.919 465.806 119.798 465.963 119.644C466.121 119.491 466.247 119.307 466.333 119.105L467.054 117.428C468.369 117.734 469.734 117.752 471.057 117.481L471.733 119.176C471.898 119.589 472.219 119.919 472.627 120.094C473.035 120.27 473.496 120.276 473.908 120.111C474.32 119.947 474.65 119.625 474.826 119.217C475.001 118.809 475.007 118.349 474.843 117.936ZM463.691 110.437C463.258 109.352 463.157 108.163 463.4 107.02C463.643 105.878 464.219 104.833 465.056 104.018C465.893 103.203 466.953 102.654 468.101 102.441C469.25 102.229 470.436 102.361 471.509 102.823C472.582 103.284 473.494 104.053 474.131 105.033C474.767 106.012 475.098 107.159 475.082 108.327C475.067 109.495 474.706 110.632 474.044 111.595C473.382 112.557 472.45 113.302 471.365 113.735C469.91 114.315 468.284 114.293 466.845 113.675C465.406 113.056 464.271 111.892 463.691 110.437Z" fill="#7FD6C3"/>
<path d="M473.287 120.783C472.842 120.782 472.408 120.648 472.039 120.398C471.671 120.148 471.386 119.794 471.22 119.381L470.711 118.104C469.607 118.278 468.481 118.263 467.382 118.06L466.839 119.322C466.606 119.865 466.168 120.292 465.619 120.51C465.071 120.729 464.459 120.721 463.917 120.488C463.375 120.255 462.947 119.816 462.729 119.268C462.51 118.72 462.518 118.108 462.751 117.566L463.293 116.302C462.389 115.645 461.604 114.839 460.971 113.918L459.694 114.427C459.146 114.645 458.533 114.637 457.991 114.404C457.449 114.171 457.021 113.732 456.803 113.184C456.584 112.636 456.592 112.023 456.825 111.481C457.058 110.939 457.497 110.511 458.045 110.293L459.322 109.783C459.147 108.679 459.162 107.553 459.366 106.454L458.103 105.912C457.835 105.796 457.591 105.629 457.388 105.42C457.184 105.211 457.023 104.963 456.915 104.692C456.806 104.42 456.752 104.13 456.756 103.838C456.76 103.546 456.821 103.257 456.937 102.988C457.052 102.72 457.219 102.477 457.429 102.273C457.638 102.069 457.885 101.908 458.157 101.8C458.428 101.691 458.718 101.638 459.011 101.641C459.303 101.645 459.592 101.707 459.86 101.822L461.124 102.365C461.781 101.461 462.587 100.676 463.507 100.042L462.998 98.766C462.779 98.2176 462.787 97.6048 463.021 97.0624C463.254 96.52 463.693 96.0924 464.241 95.8737C464.79 95.655 465.402 95.6631 465.945 95.8962C466.487 96.1293 466.915 96.5684 467.133 97.1168L467.643 98.3938C468.747 98.2181 469.873 98.2329 470.971 98.4375L471.514 97.1749C471.747 96.6328 472.186 96.2055 472.734 95.9869C473.282 95.7683 473.895 95.7764 474.437 96.0094C474.979 96.2423 475.406 96.6812 475.625 97.2292C475.844 97.7773 475.835 98.3898 475.602 98.9319L475.061 100.195C475.965 100.852 476.75 101.659 477.383 102.58L478.66 102.071C478.931 101.962 479.222 101.908 479.514 101.911C479.807 101.915 480.096 101.976 480.365 102.091C480.633 102.207 480.877 102.374 481.081 102.583C481.285 102.793 481.446 103.04 481.554 103.312C481.663 103.584 481.717 103.874 481.712 104.167C481.708 104.459 481.647 104.748 481.531 105.017C481.415 105.286 481.248 105.529 481.038 105.733C480.828 105.936 480.58 106.097 480.308 106.205L479.032 106.714C479.207 107.818 479.192 108.944 478.988 110.043L480.251 110.586C480.793 110.819 481.22 111.258 481.439 111.806C481.658 112.354 481.65 112.967 481.417 113.509C481.184 114.051 480.745 114.479 480.197 114.698C479.649 114.916 479.036 114.908 478.494 114.675L477.23 114.132C476.573 115.036 475.766 115.822 474.845 116.455L475.355 117.732C475.489 118.07 475.539 118.435 475.499 118.796C475.46 119.158 475.333 119.504 475.129 119.805C474.925 120.106 474.651 120.352 474.33 120.523C474.009 120.693 473.651 120.782 473.287 120.783ZM471.398 116.848L472.246 118.972C472.3 119.11 472.381 119.235 472.484 119.341C472.587 119.447 472.709 119.531 472.845 119.589C472.98 119.648 473.126 119.679 473.274 119.681C473.421 119.683 473.568 119.656 473.705 119.601C473.842 119.546 473.967 119.465 474.072 119.362C474.178 119.259 474.262 119.136 474.32 119C474.378 118.864 474.409 118.719 474.41 118.571C474.412 118.424 474.384 118.277 474.329 118.14L473.484 116.017L473.875 115.773C474.954 115.103 475.875 114.206 476.574 113.144L476.828 112.759L478.929 113.662C479.202 113.779 479.511 113.783 479.788 113.673C480.064 113.563 480.286 113.347 480.403 113.074C480.521 112.8 480.525 112.491 480.415 112.215C480.304 111.938 480.089 111.717 479.815 111.599L477.714 110.697L477.818 110.247C478.109 109.01 478.126 107.724 477.869 106.479L477.777 106.027L479.899 105.18C480.036 105.126 480.161 105.045 480.267 104.942C480.372 104.839 480.457 104.717 480.515 104.581C480.573 104.446 480.604 104.3 480.606 104.153C480.608 104.006 480.581 103.859 480.527 103.722C480.472 103.586 480.391 103.461 480.288 103.355C480.186 103.25 480.063 103.165 479.928 103.107C479.792 103.049 479.647 103.018 479.499 103.016C479.352 103.014 479.206 103.041 479.069 103.095L476.945 103.942L476.7 103.55C476.03 102.471 475.133 101.55 474.072 100.852L473.686 100.597L474.59 98.4967C474.707 98.2232 474.712 97.9141 474.601 97.6376C474.491 97.361 474.275 97.1396 474.002 97.022C473.728 96.9045 473.419 96.9004 473.143 97.0107C472.866 97.121 472.645 97.3366 472.527 97.6102L471.624 99.7108L471.175 99.6062C469.938 99.3168 468.653 99.2999 467.408 99.5567L466.956 99.6493L466.108 97.525C466.053 97.3882 465.972 97.2634 465.869 97.1579C465.766 97.0524 465.644 96.9682 465.508 96.91C465.373 96.8519 465.227 96.8211 465.08 96.8192C464.933 96.8173 464.786 96.8445 464.649 96.8992C464.512 96.9539 464.388 97.035 464.282 97.1379C464.177 97.2408 464.092 97.3634 464.034 97.4989C463.976 97.6343 463.945 97.7799 463.944 97.9272C463.942 98.0746 463.969 98.2209 464.024 98.3577L464.87 100.48L464.479 100.724C463.4 101.395 462.479 102.292 461.78 103.353L461.526 103.738L459.425 102.836C459.221 102.748 458.996 102.723 458.777 102.763C458.559 102.803 458.357 102.908 458.198 103.063C458.039 103.218 457.93 103.416 457.884 103.634C457.838 103.851 457.857 104.077 457.939 104.283C457.994 104.42 458.074 104.545 458.177 104.651C458.28 104.756 458.403 104.84 458.538 104.898L460.638 105.801L460.534 106.25C460.245 107.488 460.228 108.773 460.485 110.018L460.576 110.47L458.454 111.317C458.178 111.427 457.956 111.643 457.839 111.916C457.721 112.189 457.717 112.498 457.827 112.775C457.937 113.051 458.153 113.273 458.426 113.39C458.699 113.508 459.008 113.512 459.285 113.402L461.409 112.555L461.654 112.947C462.323 114.027 463.22 114.948 464.282 115.646L464.668 115.9L463.764 118.001C463.647 118.274 463.644 118.582 463.755 118.858C463.865 119.134 464.08 119.355 464.353 119.472C464.626 119.589 464.935 119.594 465.211 119.484C465.487 119.374 465.709 119.16 465.827 118.887L466.729 116.787L467.179 116.891C468.416 117.181 469.701 117.197 470.946 116.941L471.398 116.848ZM469.184 114.707C467.892 114.706 466.628 114.319 465.558 113.594C464.487 112.87 463.658 111.841 463.178 110.641C462.666 109.358 462.58 107.944 462.931 106.609C463.282 105.273 464.052 104.085 465.128 103.219C466.204 102.353 467.53 101.855 468.91 101.798C470.29 101.741 471.652 102.128 472.795 102.902C473.939 103.677 474.805 104.797 475.265 106.1C475.724 107.402 475.755 108.818 475.35 110.138C474.946 111.459 474.129 112.616 473.02 113.438C471.91 114.26 470.566 114.705 469.184 114.707ZM464.203 110.232C464.596 111.216 465.271 112.062 466.144 112.662C467.016 113.262 468.048 113.59 469.107 113.604C470.166 113.618 471.205 113.317 472.093 112.741C472.982 112.164 473.679 111.337 474.097 110.364C474.516 109.391 474.636 108.315 474.443 107.274C474.25 106.233 473.753 105.272 473.014 104.513C472.275 103.754 471.328 103.232 470.292 103.011C469.256 102.791 468.177 102.883 467.194 103.275C465.876 103.803 464.821 104.831 464.26 106.136C463.7 107.44 463.679 108.913 464.203 110.232Z" fill="#01004C"/>
</svg>
