<svg width="359" height="299" viewBox="0 0 359 299" fill="none" xmlns="http://www.w3.org/2000/svg">
<path d="M313.963 257.82C313.963 257.82 307.39 250.151 313.558 245.28C313.558 245.28 318.064 242.552 321.738 242.773C321.738 242.773 316.532 251.503 318.216 252.371C319.9 253.239 323.315 242.226 323.315 242.226C323.315 242.226 333.569 241.232 336.867 242.817C336.867 242.817 328.102 249.99 329.948 250.417C331.794 250.844 341.261 243.804 341.261 243.804C341.261 243.804 350.804 245.428 350.295 251.249C349.787 257.071 346.498 258.868 345.053 258.714C343.608 258.559 335.154 255.332 334.97 256.516C334.786 257.7 339.875 261.57 343.438 261.751C343.438 261.751 336.71 269.171 332.239 267.029C327.767 264.888 327.385 261.493 324.598 260.22C321.811 258.947 319.432 258.95 320.582 260.249C321.733 261.547 326.778 262.809 328.372 265.629C329.966 268.448 331.396 270.35 326.77 269.654C322.144 268.957 314.624 265.573 314.294 261.696L313.963 257.82Z" fill="#BBD0FF"/>
<path d="M345.606 251.406C345.606 251.406 319.688 250.408 313.964 257.82C313.964 257.82 312.698 261.611 308.802 265.064L308.195 266.718C308.195 266.718 312.687 261.983 314.294 261.696C314.294 261.696 311.78 252.513 345.606 251.406Z" fill="#BBD0FF"/>
<path d="M308.802 265.064C308.802 265.064 303.239 269.178 302.853 276.529L303.863 276.62C303.863 276.62 305.639 269.018 308.851 266.046C312.062 263.073 308.802 265.064 308.802 265.064Z" fill="#BBD0FF"/>
<path d="M290.98 248.175C290.98 248.175 301.437 242.319 296.557 234.372C296.557 234.372 292.653 229.492 288.47 228.237C288.47 228.237 290.701 240.088 288.47 240.367C286.239 240.646 286.936 226.982 286.936 226.982C286.936 226.982 275.922 221.684 271.6 222.102C271.6 222.102 278.431 233.675 276.201 233.396C273.97 233.117 266.301 221.405 266.301 221.405C266.301 221.405 255.008 219.314 253.195 226.007C251.383 232.699 254.311 236.045 255.984 236.464C257.657 236.882 268.393 236.742 268.114 238.137C267.835 239.531 260.585 241.762 256.541 240.507C256.541 240.507 261.003 251.521 266.859 250.964C272.715 250.406 274.528 246.781 278.153 246.502C281.778 246.223 284.427 247.199 282.614 248.175C280.802 249.151 274.667 248.495 271.739 250.984C268.811 253.474 266.441 255.007 271.878 256.123C277.316 257.238 287.076 256.541 289.028 252.358L290.98 248.175Z" fill="#AEC3FF"/>
<path d="M258.354 228.098C258.354 228.098 287.634 237.579 290.98 248.175C290.98 248.175 290.841 252.916 293.768 258.353V260.445C293.768 260.445 290.701 253.334 289.028 252.358C289.028 252.358 295.581 243.156 258.354 228.098Z" fill="#AEC3FF"/>
<path d="M293.768 258.353C293.768 258.353 298.284 265.21 295.71 273.557L294.548 273.245C294.548 273.245 295.676 264.052 293.313 259.428C290.951 254.804 293.768 258.353 293.768 258.353Z" fill="#AEC3FF"/>
<path d="M307.616 240.099C307.616 240.099 293.832 232.38 300.265 221.904C300.265 221.904 305.411 215.471 310.924 213.817C310.924 213.817 307.984 229.439 310.924 229.807C313.865 230.175 312.946 212.163 312.946 212.163C312.946 212.163 327.465 205.179 333.163 205.73C333.163 205.73 324.157 220.985 327.098 220.617C330.039 220.25 340.147 204.811 340.147 204.811C340.147 204.811 355.034 202.055 357.423 210.877C359.813 219.699 355.953 224.109 353.748 224.661C351.542 225.212 337.39 225.028 337.758 226.866C338.125 228.704 347.682 231.645 353.013 229.991C353.013 229.991 347.131 244.51 339.412 243.775C331.693 243.04 329.303 238.261 324.525 237.894C319.746 237.526 316.254 238.813 318.644 240.099C321.033 241.386 329.12 240.521 332.979 243.802C336.839 247.083 339.963 249.105 332.795 250.575C325.628 252.046 312.762 251.127 310.189 245.613L307.616 240.099Z" fill="#D2E0FF"/>
<path d="M350.623 213.633C350.623 213.633 312.027 226.131 307.616 240.099C307.616 240.099 307.8 246.348 303.94 253.516V256.273C303.94 256.273 307.984 246.899 310.189 245.613C310.189 245.613 301.551 233.483 350.623 213.633Z" fill="#D2E0FF"/>
<path d="M303.94 253.516C303.94 253.516 297.988 262.554 301.382 273.557L302.913 273.146C302.913 273.146 301.427 261.027 304.541 254.932C307.655 248.837 303.94 253.516 303.94 253.516Z" fill="#D2E0FF"/>
<path d="M307.152 297.417C314.313 297.417 321.181 294.572 326.244 289.508C331.308 284.444 334.153 277.576 334.153 270.415H280.15C280.15 277.576 282.995 284.444 288.059 289.508C293.123 294.572 299.99 297.416 307.152 297.417Z" fill="#C0D4FF"/>
<path d="M334.526 298.79H279.778C279.778 298.353 279.864 297.92 280.031 297.516C280.199 297.111 280.444 296.744 280.753 296.435C281.063 296.126 281.43 295.88 281.834 295.713C282.238 295.545 282.671 295.459 283.109 295.459H331.195C332.078 295.459 332.925 295.81 333.55 296.435C334.175 297.06 334.526 297.907 334.526 298.79Z" fill="#C0D4FF"/>
<path d="M334.767 270.415H279.263V271.243H334.767V270.415Z" fill="#86A2E2"/>
<path d="M5.35146 156.367C5.34471 156.394 5.33335 156.407 5.3175 156.407C5.3266 156.387 5.33335 156.371 5.33786 156.36C5.3582 156.319 5.36284 156.319 5.35146 156.367Z" fill="#ABDDDA"/>
<path d="M165.961 0.666504H7.26843C3.34581 0.666504 0.165894 3.84642 0.165894 7.76905V230.005C0.165894 233.927 3.34581 237.107 7.26843 237.107H165.961C169.884 237.107 173.064 233.927 173.064 230.005V7.76904C173.064 3.84642 169.884 0.666504 165.961 0.666504Z" fill="#739AF0"/>
<path d="M165.697 7.04651H7.5332V230.592H165.697V7.04651Z" fill="#F3FAFF"/>
<path d="M53.8247 0.666504V8.72068C53.8242 9.77786 54.032 10.8248 54.4361 11.8017C54.8402 12.7786 55.4328 13.6663 56.18 14.4142C56.9272 15.1621 57.8144 15.7555 58.7909 16.1605C59.7674 16.5655 60.8142 16.7742 61.8713 16.7747H105.094C106.151 16.7742 107.197 16.5655 108.174 16.1605C109.15 15.7555 110.038 15.1621 110.785 14.4142C111.532 13.6663 112.125 12.7786 112.529 11.8017C112.933 10.8248 113.141 9.77786 113.14 8.72068V0.666504H53.8247Z" fill="#FFA561"/>
<path d="M45.4613 208.763H25.8929V210.744H45.4613V208.763Z" fill="#AEC3FF"/>
<path d="M69.562 208.763H49.9938V210.744H69.562V208.763Z" fill="#AEC3FF"/>
<path d="M53.032 213.158H25.8929V215.139H53.032V213.158Z" fill="#AEC3FF"/>
<path d="M153.695 81.5012H20.8623V84.2921H153.695V81.5012Z" fill="#AEC3FF"/>
<path d="M143.279 93.9667H20.8623V96.7576H143.279V93.9667Z" fill="#AEC3FF"/>
<path d="M105.384 87.7339H69.1737V90.5248H105.384V87.7339Z" fill="#AEC3FF"/>
<path d="M153.695 87.7339H111.654V90.5248H153.695V87.7339Z" fill="#AEC3FF"/>
<path d="M63.7848 87.7339H20.8623V90.5248H63.7848V87.7339Z" fill="#AEC3FF"/>
<path d="M105.384 74.4305H69.1737V77.2214H105.384V74.4305Z" fill="#AEC3FF"/>
<path d="M153.695 74.4305H111.654V77.2214H153.695V74.4305Z" fill="#AEC3FF"/>
<path d="M63.7848 74.4305H20.8623V77.2214H63.7848V74.4305Z" fill="#AEC3FF"/>
<path d="M153.695 118.817H20.8623V121.607H153.695V118.817Z" fill="#AEC3FF"/>
<path d="M123.354 131.282H20.8623V134.073H123.354V131.282Z" fill="#AEC3FF"/>
<path d="M105.384 111.746H69.1737V114.537H105.384V111.746Z" fill="#AEC3FF"/>
<path d="M153.695 111.746H111.654V114.537H153.695V111.746Z" fill="#AEC3FF"/>
<path d="M63.7848 111.746H20.8623V114.537H63.7848V111.746Z" fill="#AEC3FF"/>
<path d="M146.274 35.3107H114.391V38.1016H146.274V35.3107Z" fill="#AEC3FF"/>
<path d="M98.5812 41.1693H71.8525V43.9602H98.5812V41.1693Z" fill="#AEC3FF"/>
<path d="M139.314 41.1693H103.043V43.9602H139.314V41.1693Z" fill="#AEC3FF"/>
<path d="M104.455 47.9381H71.8525V50.729H104.455V47.9381Z" fill="#AEC3FF"/>
<path d="M127.552 47.9381H109.769V50.729H127.552V47.9381Z" fill="#AEC3FF"/>
<path d="M109.646 35.3107H71.8525V38.1016H109.646V35.3107Z" fill="#AEC3FF"/>
<path d="M85.454 157.13H55.4292V158.938H85.454V157.13Z" fill="#AEC3FF"/>
<path d="M83.0998 165.204H55.4292V167.012H83.0998V165.204Z" fill="#AEC3FF"/>
<path d="M85.4539 161.167H77.2693V162.975H85.4539V161.167Z" fill="#AEC3FF"/>
<path d="M75.0014 161.167H55.4292V162.975H75.0014V161.167Z" fill="#AEC3FF"/>
<path d="M156.049 157.13H126.024V158.938H156.049V157.13Z" fill="#AEC3FF"/>
<path d="M153.695 165.204H126.024V167.012H153.695V165.204Z" fill="#AEC3FF"/>
<path d="M156.049 161.167H147.864V162.975H156.049V161.167Z" fill="#AEC3FF"/>
<path d="M145.596 161.167H126.024V162.975H145.596V161.167Z" fill="#AEC3FF"/>
<path d="M98.2573 215.088C95.4654 215.082 92.7605 214.116 90.5963 212.352C88.4321 210.588 86.9403 208.133 86.3711 205.4C86.3273 205.184 86.3709 204.96 86.4924 204.776C86.6138 204.592 86.8032 204.465 87.019 204.42C87.2347 204.376 87.4592 204.42 87.643 204.541C87.8269 204.662 87.955 204.851 87.9994 205.067C88.4843 207.42 89.7631 209.534 91.6215 211.056C93.4799 212.578 95.8049 213.415 98.2069 213.426C100.609 213.438 102.942 212.623 104.815 211.119C106.688 209.616 107.987 207.514 108.494 205.166C108.517 205.059 108.561 204.958 108.623 204.868C108.685 204.778 108.764 204.702 108.856 204.642C108.947 204.583 109.05 204.543 109.157 204.523C109.265 204.503 109.375 204.505 109.482 204.528C109.588 204.551 109.689 204.594 109.779 204.656C109.869 204.719 109.946 204.798 110.005 204.889C110.064 204.981 110.105 205.083 110.124 205.191C110.144 205.298 110.142 205.408 110.119 205.515C109.524 208.221 108.025 210.644 105.869 212.384C103.713 214.124 101.028 215.078 98.2573 215.088Z" fill="#AEC3FF"/>
<path d="M87.1633 201.626C87.0408 201.626 86.9197 201.599 86.8088 201.547C86.6979 201.494 86.5999 201.418 86.5219 201.324C86.4438 201.229 86.3876 201.119 86.3573 201C86.327 200.881 86.3234 200.757 86.3466 200.637C86.8745 197.929 88.3094 195.482 90.4147 193.698C92.52 191.915 95.1701 190.903 97.928 190.828C100.686 190.753 103.387 191.62 105.586 193.286C107.785 194.952 109.351 197.318 110.025 199.993C110.052 200.099 110.058 200.209 110.042 200.317C110.026 200.425 109.989 200.529 109.933 200.623C109.877 200.717 109.803 200.798 109.715 200.863C109.627 200.929 109.528 200.976 109.422 201.002C109.316 201.029 109.206 201.034 109.098 201.018C108.99 201.002 108.886 200.965 108.792 200.909C108.698 200.853 108.617 200.779 108.552 200.691C108.487 200.603 108.44 200.503 108.413 200.397C107.831 198.089 106.48 196.048 104.582 194.61C102.684 193.172 100.353 192.424 97.9732 192.489C95.5932 192.554 93.3063 193.427 91.4894 194.966C89.6725 196.505 88.4341 198.616 87.9781 200.953C87.9414 201.142 87.8401 201.313 87.6914 201.436C87.5428 201.558 87.3561 201.626 87.1633 201.626Z" fill="#AEC3FF"/>
<path d="M98.2575 220.203C94.8464 220.203 91.5118 219.191 88.6756 217.296C85.8393 215.401 83.6287 212.708 82.3234 209.556C81.018 206.405 80.6764 202.937 81.3419 199.591C82.0074 196.246 83.65 193.172 86.062 190.76C88.474 188.348 91.5471 186.706 94.8927 186.04C98.2383 185.375 101.706 185.716 104.858 187.022C108.009 188.327 110.703 190.538 112.598 193.374C114.493 196.21 115.504 199.545 115.504 202.956C115.499 207.528 113.681 211.912 110.447 215.146C107.214 218.379 102.83 220.198 98.2575 220.203ZM98.2575 188.071C95.3136 188.071 92.4359 188.944 89.9882 190.58C87.5404 192.215 85.6327 194.54 84.5061 197.26C83.3796 199.98 83.0848 202.972 83.6591 205.86C84.2334 208.747 85.6511 211.399 87.7327 213.481C89.8143 215.562 92.4665 216.98 95.3538 217.554C98.2411 218.129 101.234 217.834 103.954 216.707C106.673 215.581 108.998 213.673 110.633 211.225C112.269 208.777 113.142 205.9 113.142 202.956C113.137 199.01 111.568 195.226 108.777 192.436C105.987 189.646 102.204 188.076 98.2575 188.071Z" fill="#AEC3FF"/>
<path d="M101.673 200.795H94.8418V201.889H101.673V200.795Z" fill="#AEC3FF"/>
<path d="M101.673 205.27H94.8418V206.363H101.673V205.27Z" fill="#AEC3FF"/>
<path d="M103.285 202.956H93.2302V204.049H103.285V202.956Z" fill="#AEC3FF"/>
<path d="M49.0035 174.126H28.4731V153.595H49.0035V174.126ZM29.4402 173.159H48.0366V154.562H29.4402V173.159Z" fill="#AFCDFB"/>
<path d="M39.2483 169.999C39.0347 169.999 38.8238 169.952 38.6305 169.861C38.4373 169.77 38.2665 169.638 38.1304 169.473L31.7951 161.809C31.55 161.513 31.4327 161.131 31.469 160.748C31.5054 160.365 31.6924 160.012 31.9889 159.767C32.2854 159.522 32.6671 159.405 33.0501 159.441C33.4331 159.477 33.7859 159.664 34.031 159.961L39.0554 166.039L48.1447 150.783C48.3416 150.453 48.6617 150.214 49.0347 150.12C49.4076 150.025 49.8028 150.083 50.1333 150.28C50.4638 150.477 50.7025 150.797 50.7969 151.17C50.8913 151.543 50.8338 151.938 50.6368 152.268L40.4945 169.291C40.3756 169.491 40.2104 169.659 40.0128 169.782C39.8153 169.904 39.5912 169.977 39.3595 169.995C39.3223 169.998 39.2853 169.999 39.2483 169.999Z" fill="#F99746"/>
<path d="M120.981 174.126H100.451V153.595H120.981V174.126ZM101.418 173.159H120.014V154.562H101.418V173.159Z" fill="#AFCDFB"/>
<path d="M111.226 169.999C111.013 169.999 110.802 169.952 110.608 169.861C110.415 169.77 110.244 169.638 110.108 169.473L103.773 161.809C103.528 161.513 103.411 161.131 103.447 160.748C103.483 160.365 103.67 160.012 103.967 159.767C104.263 159.522 104.645 159.405 105.028 159.441C105.411 159.477 105.764 159.664 106.009 159.961L111.033 166.039L120.122 150.783C120.32 150.453 120.64 150.215 121.012 150.12C121.385 150.026 121.78 150.084 122.111 150.28C122.441 150.477 122.68 150.797 122.774 151.17C122.869 151.543 122.811 151.938 122.615 152.268L112.472 169.291C112.353 169.491 112.188 169.659 111.991 169.782C111.793 169.904 111.569 169.977 111.337 169.995C111.3 169.998 111.263 169.999 111.226 169.999Z" fill="#F99746"/>
<path d="M62.0908 43.7665C62.0907 47.9077 60.8627 51.9559 58.562 55.3992C56.2612 58.8424 52.9911 61.5262 49.1651 63.1109C45.3392 64.6957 41.1292 65.1103 37.0675 64.3024C33.0059 63.4945 29.2751 61.5003 26.3468 58.572C23.4185 55.6437 21.4243 51.9129 20.6164 47.8512C19.8085 43.7896 20.2232 39.5796 21.808 35.7536C23.3928 31.9277 26.0765 28.6575 29.5198 26.3568C32.9631 24.0561 37.0113 22.8281 41.1525 22.8281C43.9054 22.8165 46.6333 23.3502 49.1789 24.3983C51.7245 25.4465 54.0373 26.9884 55.9839 28.935C57.9306 30.8816 59.4724 33.1944 60.5206 35.74C61.5687 38.2856 62.1024 41.0136 62.0908 43.7665Z" fill="#FFA561"/>
<path d="M41.2004 27.6575C41.2004 27.6575 33.3285 27.0393 29.1839 35.4438C25.4778 42.9589 24.0597 43.4766 25.6575 45.8586C27.2553 48.2406 42.5941 52.5539 53.9384 47.6487C53.9384 47.6487 58.0509 45.8586 56.474 42.7437C54.8972 39.6288 50.6718 26.8635 41.2004 27.6575Z" fill="#2B478B"/>
<path d="M49.6241 41.7738C50.7286 37.0948 47.831 32.4062 43.152 31.3017C38.473 30.1971 33.7845 33.0948 32.6799 37.7738C31.5754 42.4528 34.473 47.1413 39.152 48.2458C43.831 49.3504 48.5195 46.4528 49.6241 41.7738Z" fill="#FFC9A4"/>
<path d="M56.0667 58.4581C54.1188 60.4357 51.7972 62.0062 49.2367 63.0782C46.6763 64.1502 43.9282 64.7023 41.1523 64.7023C38.3765 64.7023 35.6285 64.1502 33.068 63.0782C30.5076 62.0062 28.1859 60.4357 26.238 58.4581C27.0029 55.0739 28.8959 52.0505 31.6062 49.8844C34.3165 47.7183 37.6828 46.5384 41.1523 46.5384C44.6219 46.5384 47.9882 47.7183 50.6985 49.8844C53.4088 52.0505 55.3018 55.0739 56.0667 58.4581Z" fill="#FFC9A4"/>
<path d="M41.8665 30.6268C41.8665 30.6268 39.2015 37.609 32.4472 37.3438C32.4472 37.3438 31.526 29.3011 41.8665 30.6268Z" fill="#2B478B"/>
<path d="M40.4165 30.6268C40.4165 30.6268 43.0816 37.609 49.8359 37.3438C49.8359 37.3438 50.7571 29.3011 40.4165 30.6268Z" fill="#2B478B"/>
<path d="M238.868 170.432C237.229 174.481 229.927 189.31 229.927 189.31L226.2 186.749C226.2 186.749 231.67 169.562 231.375 167.102C231.08 164.642 229.155 154.148 229.155 154.148L228.638 131.287C228.638 131.287 233.949 133.381 234.975 139.069C235.999 144.757 240.51 166.382 238.868 170.432Z" fill="#FFB27D"/>
<path d="M231.375 144.293L224.463 174.971L199.955 173.835C199.955 173.835 198.226 152.343 201.767 143.937C205.308 135.532 207.534 132.295 207.534 132.295C207.534 132.295 211.6 127.744 228.639 131.286L231.375 144.293Z" fill="#FFB27D"/>
<path d="M197.149 222.158C197.154 225.01 199.461 240.514 200.62 279.794C200.643 280.582 201.392 281.183 203.686 280.535C206.869 279.636 207.245 280.206 207.245 280.206C207.245 280.206 210.91 255.227 211.637 230.213C212.001 217.669 197.138 215.916 197.149 222.158Z" fill="#FFB27D"/>
<path d="M222.899 131.401C222.472 129.234 222.345 123.709 222.928 119.903L222.359 119.929L212.785 120.379C212.785 120.379 212.559 123.337 212.153 126.095C212.15 126.118 212.147 126.14 212.143 126.163C211.796 128.559 211.487 130.482 211.641 131.171C212.182 133.602 223.253 133.201 222.899 131.401Z" fill="#FFB27D"/>
<path d="M212.785 120.379C212.785 120.379 212.559 123.337 212.153 126.095C217.378 126.726 220.838 122.391 222.359 119.929L212.785 120.379Z" fill="#E8945B"/>
<path d="M210.657 122.73C210.657 122.73 222.937 124.774 224.093 117.108C225.248 109.441 227.612 104.541 219.82 102.912C212.029 101.282 210.061 103.977 209.053 106.442C208.045 108.908 207.493 122 210.657 122.73Z" fill="#FFB27D"/>
<path d="M214.271 222.32C214.203 225.171 216.116 240.729 216.278 280.026C216.282 280.814 217.014 281.434 219.324 280.844C222.529 280.026 222.891 280.605 222.891 280.605C222.891 280.605 227.188 255.727 228.549 230.74C229.232 218.209 214.418 216.079 214.271 222.32Z" fill="#FFB27D"/>
<path d="M224.074 288.707C223.96 291.287 221.347 290.788 217.212 290.43C213.078 290.072 214.608 290.841 208.84 291.089C203.073 291.338 202.094 290.394 201.791 289.578C201.521 288.853 202.685 288.338 205.637 287.527C206.008 287.426 213.819 284.212 215.475 282.133C217.707 279.331 217.494 259.116 217.494 259.116L223.393 266.854C223.393 266.854 223.159 276.076 222.89 280.606C222.781 282.461 224.248 284.648 224.614 286.248C224.81 287.119 224.115 287.799 224.074 288.707Z" fill="#FFB27D"/>
<path d="M217.086 291.273C212.951 290.915 214.077 291.926 208.31 292.175C202.542 292.424 200.498 290.575 200.194 289.759C199.924 289.034 202.685 288.338 205.637 287.527L205.674 287.58C208.344 288.764 211.285 289.203 214.185 288.849C218.046 288.348 221.951 286.616 224.614 286.248C224.85 287.119 224.968 288.016 224.965 288.918C224.852 291.497 221.221 291.631 217.086 291.273Z" fill="#E5803C"/>
<path d="M208.634 288.275C208.585 290.857 205.96 290.424 201.818 290.172C197.676 289.919 199.224 290.648 193.465 291.043C187.706 291.438 186.704 290.519 186.38 289.711C186.091 288.993 187.242 288.448 190.172 287.563C190.541 287.453 198.268 284.042 199.871 281.921C202.031 279.063 201.306 258.86 201.306 258.86L207.399 266.447C207.399 266.447 207.399 275.671 207.245 280.206C207.182 282.064 208.705 284.213 209.111 285.804C209.329 286.669 208.652 287.366 208.634 288.275Z" fill="#FFB27D"/>
<path d="M201.713 291.018C197.57 290.765 198.722 291.747 192.962 292.142C187.203 292.537 185.112 290.74 184.788 289.932C184.5 289.215 187.242 288.448 190.172 287.563L190.211 287.615C192.91 288.731 195.862 289.095 198.751 288.668C202.599 288.069 206.458 286.239 209.111 285.804C209.369 286.668 209.51 287.562 209.53 288.463C209.482 291.045 205.856 291.27 201.713 291.018Z" fill="#F49656"/>
<path d="M208.614 174.971C208.614 174.971 205.477 168.065 205.866 162.561C206.379 155.314 208.265 144.655 205.745 145.68C200.107 147.973 199.788 173.148 199.788 173.148L208.614 174.971Z" fill="#F4A671"/>
<path d="M199.788 173.148C199.788 173.148 193.004 212.029 190.337 234.41C187.67 256.791 185.654 265.451 185.654 265.451C185.654 265.451 202.816 269.208 216.123 267.787C229.43 266.365 231.329 271.416 241.292 265.722C241.292 265.722 233.448 244.597 235.249 221.266C237.805 188.147 225.366 172.683 225.366 172.683C225.366 172.683 220.395 175.027 199.788 173.148Z" fill="#F99746"/>
<path d="M217.256 170.893C217.165 170.893 217.075 170.866 216.999 170.815C216.923 170.764 216.864 170.692 216.829 170.607C216.747 170.406 214.826 165.62 216.366 160.38C216.4 160.263 216.48 160.164 216.587 160.105C216.694 160.047 216.821 160.033 216.938 160.068C217.055 160.102 217.154 160.182 217.213 160.289C217.271 160.396 217.285 160.523 217.251 160.64C215.805 165.56 217.664 170.211 217.683 170.257C217.712 170.327 217.722 170.403 217.715 170.479C217.707 170.554 217.681 170.626 217.639 170.689C217.597 170.752 217.54 170.803 217.473 170.839C217.406 170.874 217.332 170.893 217.256 170.893Z" fill="#F4A671"/>
<path d="M188.597 196.772C187.988 198.6 184.394 201.18 184.394 203.23C184.394 205.279 185.496 210.649 186.207 210.66C188.879 210.702 188.033 206.868 189.058 205.638C190.083 204.408 192.235 203.691 192.338 202.666C192.44 201.641 192.799 196.567 192.799 196.567C192.799 196.567 189.16 195.081 188.597 196.772Z" fill="#FFB27D"/>
<path d="M192.338 202.666C192.338 202.666 189.878 207.79 189.801 207.483C189.724 207.175 189.801 204.254 189.801 204.254L192.338 202.666Z" fill="#FFB27D"/>
<path d="M225.366 172.683C225.366 172.683 222.163 177.196 201.716 173.276V171.047C201.716 171.047 219.597 173.763 225.486 170.432L225.366 172.683Z" fill="#2B478B"/>
<path d="M207.919 130.36C207.919 130.36 200.695 132.25 198.589 138.505C196.648 144.274 196.613 165.589 194.965 169.535C193.658 172.665 188.238 197.496 188.238 197.496L192.799 196.567C192.799 196.567 202.407 174.122 203.791 169.356C205.175 164.59 204.175 153.367 206.328 149.37C208.48 145.372 207.919 130.36 207.919 130.36Z" fill="#FFB27D"/>
<path d="M231.375 167.102C231.08 164.642 229.155 154.148 229.155 154.148C229.155 154.148 230.874 147.842 231.901 147.94C232.925 148.038 232.491 165.872 231.375 167.102Z" fill="#F4A671"/>
<path d="M213.473 101.403C213.473 101.403 208.634 101.864 206.943 104.939C205.251 108.014 206.88 111.242 211.6 114.01C216.321 116.777 216.152 123.504 212.383 124.368C208.614 125.233 201.526 128.969 203.713 132.294C205.901 135.618 213.108 133.45 211.6 138.198C208.736 147.217 221.701 150.245 226.775 147.939C231.848 145.633 232.591 139.269 236.614 139.325C243.993 139.428 241.695 127.972 237.075 122.695C230.817 115.547 236.922 112.696 232.288 107.091C227.923 101.813 221.387 98.3283 213.473 101.403Z" fill="#163560"/>
</svg>
