<svg width="94" height="50" viewBox="0 0 94 50" fill="none" xmlns="http://www.w3.org/2000/svg">
<path d="M17.2076 29.8572L33.6476 46.2172L50.0977 29.8572L66.5376 46.2172L82.9776 29.8572L97.4776 44.2872L111.988 29.8572L128.428 46.2172L144.878 29.8572L161.318 46.2172L177.758 29.8572L194.078 46.0972L192.258 47.9172L177.758 33.4872L161.318 49.8472L144.878 33.4872L128.428 49.8472L111.988 33.4872L97.4776 47.9272L82.9776 33.4872L66.5376 49.8472L50.0977 33.4872L33.6476 49.8472L17.2076 33.4872L2.69763 47.9172L0.887634 46.0972L17.2076 29.8572Z" fill="#0B315E"/>
<path d="M17.2076 0.607239L33.6476 16.9672L50.0976 0.607239L66.5376 16.9672L82.9776 0.607239L96.0176 13.5872L96.0276 17.2272L82.9776 4.23724L66.5376 20.5972L50.0976 4.23724L33.6476 20.5972L17.2076 4.23724L2.69757 18.6672L0.887573 16.8372L17.2076 0.607239Z" fill="#FF9D00"/>
</svg>
