<svg width="562" height="396" viewBox="0 0 562 396" fill="none" xmlns="http://www.w3.org/2000/svg">
<path d="M298.511 11.7419L55.489 42.1419C43.1134 43.69 34.336 54.9773 35.8841 67.3529L49.3238 174.791C50.8719 187.167 62.1592 195.944 74.5347 194.396L317.557 163.996C329.932 162.448 338.71 151.161 337.162 138.785L323.722 31.3467C322.174 18.9712 310.887 10.1938 298.511 11.7419Z" fill="#6A97F8"/>
<g opacity="0.54">
<path opacity="0.54" d="M277.475 98.3958L281.745 103.769L283.732 89.5584L303.6 91.6909" stroke="white" stroke-width="2.25298" stroke-linecap="round" stroke-linejoin="round"/>
</g>
<path opacity="0.5" d="M220.689 121.424C228.662 121.424 235.125 114.961 235.125 106.988C235.125 99.0158 228.662 92.5529 220.689 92.5529C212.717 92.5529 206.254 99.0158 206.254 106.988C206.254 114.961 212.717 121.424 220.689 121.424Z" stroke="white" stroke-width="2.25298" stroke-linecap="round" stroke-linejoin="round"/>
<path opacity="0.5" d="M290.306 95.125C297.871 93.8094 296.556 98.414 293.266 99.7296C293.266 99.7296 301.16 103.676 297.213 104.663C294.871 105.25 292.391 104.896 290.306 103.676" stroke="white" stroke-width="2.25298" stroke-linecap="round" stroke-linejoin="round"/>
<path d="M303.832 3.40238L60.8095 33.8024C48.434 35.3505 39.6566 46.6379 41.2047 59.0134L54.6443 166.452C56.1924 178.828 67.4797 187.605 79.8553 186.057L322.877 155.657C335.253 154.109 344.03 142.821 342.482 130.446L329.043 23.0073C327.495 10.6317 316.207 1.85431 303.832 3.40238Z" stroke="#4A6DD9" stroke-width="2.25298" stroke-linecap="round" stroke-linejoin="round"/>
<g opacity="0.5">
<path opacity="0.5" d="M100.102 83.4191C100.784 80.2333 104.511 75.546 106.656 79.3784C108.802 83.2107 104.215 89.2577 104.215 89.2577L112.415 86.8292" stroke="white" stroke-width="2.25298" stroke-linecap="round" stroke-linejoin="round"/>
<path opacity="0.5" d="M123.201 73.0894C123.883 69.9036 127.61 65.2164 129.756 69.0487C131.901 72.881 127.272 80.2775 127.272 80.2775L135.514 76.4996" stroke="white" stroke-width="2.25298" stroke-linecap="round" stroke-linejoin="round"/>
<path opacity="0.5" d="M114.965 75.8759L117.646 81.5703" stroke="white" stroke-width="2.25298" stroke-linecap="round" stroke-linejoin="round"/>
<path opacity="0.5" d="M112.67 80.7074L120.298 76.7748" stroke="white" stroke-width="2.25298" stroke-linecap="round" stroke-linejoin="round"/>
</g>
<g opacity="0.5">
<path opacity="0.5" d="M102.949 146.053L113.477 149.841L104.042 128.435L133.417 114.348" stroke="white" stroke-width="2.25298" stroke-linecap="round" stroke-linejoin="round"/>
<path opacity="0.5" d="M117.605 135.938L120.044 125.274L127.929 141.751" stroke="white" stroke-width="2.25298" stroke-linecap="round" stroke-linejoin="round"/>
</g>
<g opacity="0.5">
<path opacity="0.5" d="M153.882 62.472L152.521 80.2029L169.452 81.0579L170.856 62.9057L153.882 62.472Z" stroke="white" stroke-width="2.25298" stroke-linecap="round" stroke-linejoin="round"/>
<path opacity="0.5" d="M153.882 62.472L160.755 55.9417L175.607 56.5061L173.864 73.8011L169.453 81.0579" stroke="white" stroke-width="2.25298" stroke-linecap="round" stroke-linejoin="round"/>
<path opacity="0.5" d="M170.856 62.9056L175.606 56.5058" stroke="white" stroke-width="2.25298" stroke-linecap="round" stroke-linejoin="round"/>
</g>
<g opacity="0.5">
<path opacity="0.5" d="M289.07 31.944C289.752 28.7582 293.479 24.0709 295.625 27.9033C297.77 31.7356 293.141 39.132 293.141 39.132L301.383 35.3541" stroke="white" stroke-width="2.25298" stroke-linecap="round" stroke-linejoin="round"/>
<path opacity="0.5" d="M250.356 44.6633L253.037 50.3576" stroke="white" stroke-width="2.25298" stroke-linecap="round" stroke-linejoin="round"/>
<path opacity="0.5" d="M248.061 49.4948L255.69 45.5622" stroke="white" stroke-width="2.25298" stroke-linecap="round" stroke-linejoin="round"/>
<path opacity="0.5" d="M233.508 44.0272L233.597 53.6917C235.759 52.7049 238.048 52.0239 240.397 51.6683" stroke="white" stroke-width="2.25298" stroke-linecap="round" stroke-linejoin="round"/>
<path opacity="0.5" d="M237.507 45.4844L244.062 60.1452" stroke="white" stroke-width="2.25298" stroke-linecap="round" stroke-linejoin="round"/>
<path opacity="0.5" d="M279.74 35.5616L282.421 41.2559" stroke="white" stroke-width="2.25298" stroke-linecap="round" stroke-linejoin="round"/>
<path opacity="0.5" d="M277.446 40.3931L285.074 36.4605" stroke="white" stroke-width="2.25298" stroke-linecap="round" stroke-linejoin="round"/>
<path opacity="0.5" d="M262.893 34.9255L262.981 44.59C265.143 43.6033 267.432 42.9222 269.782 42.5666" stroke="white" stroke-width="2.25298" stroke-linecap="round" stroke-linejoin="round"/>
<path opacity="0.5" d="M266.892 36.3827L273.447 51.0435" stroke="white" stroke-width="2.25298" stroke-linecap="round" stroke-linejoin="round"/>
</g>
<path d="M154.949 121.258C158.484 110.654 173.801 102.996 174.39 109.476C174.979 115.956 162.608 135.985 173.801 134.218C184.994 132.451 198.543 117.723 198.543 117.723" stroke="#5686F7" stroke-width="2.25298" stroke-miterlimit="10"/>
<path d="M0.900757 371.673L62.5254 358.174L119.814 378.717L59.5165 395.545L0.900757 371.673Z" fill="#6A97F8"/>
<path d="M3.34412 368.957L64.9687 355.458L120.016 376.365L63.3285 392.373L3.34412 368.957Z" stroke="#4A6DD9" stroke-width="2.25298" stroke-linecap="round" stroke-linejoin="round"/>
<path d="M26.7814 372.783C25.6673 371.929 29.1726 370.456 31.814 370.963C34.4555 371.471 43.3436 369.205 45.3677 368.603C47.3919 368.001 66.7048 363.227 66.7048 363.227" stroke="#4A6DD9" stroke-width="2.25298" stroke-linecap="round" stroke-linejoin="round"/>
<path d="M33.0134 375.725C33.0134 375.725 51.8945 371.942 68.0599 366.811" stroke="#4A6DD9" stroke-width="2.25298" stroke-linecap="round" stroke-linejoin="round"/>
<path d="M42.9175 379.084C42.9175 379.084 70.4753 373.582 78.1382 369.202" stroke="#4A6DD9" stroke-width="2.25298" stroke-linecap="round" stroke-linejoin="round"/>
<path d="M66.7284 378.141C66.7284 378.141 84.1378 373.784 86.8923 371.393" stroke="#4A6DD9" stroke-width="2.25298" stroke-linecap="round" stroke-linejoin="round"/>
<path d="M51.8342 381.747C55.2797 381.148 58.685 380.337 62.031 379.32" stroke="#4A6DD9" stroke-width="2.25298" stroke-linecap="round" stroke-linejoin="round"/>
<path d="M61.0161 384.331C61.0161 384.331 82.2807 379.909 95.6628 373.466" stroke="#4A6DD9" stroke-width="2.25298" stroke-linecap="round" stroke-linejoin="round"/>
<path d="M77.4421 384.069C77.4421 384.069 99.4515 378.647 106.032 375.351" stroke="#4A6DD9" stroke-width="2.25298" stroke-linecap="round" stroke-linejoin="round"/>
<path d="M146.103 280.718L134.332 233.967L94.8295 233.714L84.6438 279.057L146.103 280.718Z" fill="#6A97F8"/>
<path d="M117.906 277.089L89.9474 276.334L98.6439 229.674L136.171 230.688L138.103 230.74" stroke="#4A6DD9" stroke-width="2.25298" stroke-linecap="round" stroke-linejoin="round"/>
<path d="M112.287 275.188L98.644 229.674L138.103 230.74L151.95 276.26L112.287 275.188Z" stroke="#4A6DD9" stroke-width="2.25298" stroke-linecap="round" stroke-linejoin="round"/>
<path d="M98.6431 229.675C98.5231 229.225 98.8198 225.203 101.769 225.283C104.846 225.366 105.059 229.534 105.059 229.534" stroke="#4A6DD9" stroke-width="2.25298" stroke-linecap="round" stroke-linejoin="round"/>
<path d="M105.196 229.852C105.076 229.402 105.373 225.38 108.322 225.46C111.399 225.543 111.612 229.711 111.612 229.711" stroke="#4A6DD9" stroke-width="2.25298" stroke-linecap="round" stroke-linejoin="round"/>
<path d="M111.75 230.028C111.63 229.578 111.926 225.557 114.875 225.637C117.953 225.72 118.165 229.888 118.165 229.888" stroke="#4A6DD9" stroke-width="2.25298" stroke-linecap="round" stroke-linejoin="round"/>
<path d="M118.303 230.206C118.183 229.755 118.479 225.734 121.429 225.814C124.506 225.897 124.719 230.065 124.719 230.065" stroke="#4A6DD9" stroke-width="2.25298" stroke-linecap="round" stroke-linejoin="round"/>
<path d="M124.856 230.383C124.737 229.933 125.033 225.911 127.982 225.991C131.06 226.074 131.272 230.242 131.272 230.242" stroke="#4A6DD9" stroke-width="2.25298" stroke-linecap="round" stroke-linejoin="round"/>
<path d="M131.41 230.56C131.29 230.11 131.586 226.088 134.535 226.168C137.613 226.251 137.825 230.419 137.825 230.419" stroke="#4A6DD9" stroke-width="2.25298" stroke-linecap="round" stroke-linejoin="round"/>
<path d="M297.28 133.292L289.778 149.417L305.331 156.163L313.021 139.66L297.28 133.292Z" stroke="#5686F7" stroke-width="2.25298" stroke-miterlimit="10"/>
<path d="M297.28 133.292L306.008 129.591L319.716 135.337L312.01 150.918L305.331 156.163" stroke="#5686F7" stroke-width="2.25298" stroke-miterlimit="10"/>
<path d="M313.02 139.661L319.716 135.337" stroke="#5686F7" stroke-width="2.25298" stroke-miterlimit="10"/>
<path d="M230.8 359.507C187.066 350.572 54.7175 369.142 72.2601 372.578C135.976 385.059 334.686 367.383 335.156 360.799C335.626 354.215 230.8 359.507 230.8 359.507Z" fill="#242424"/>
<path d="M441.014 282.084C453.468 281.593 481.012 284.311 493.919 294.841C493.919 294.841 505.922 295.464 509.8 302.063C509.8 302.063 552.768 321.079 551.091 329.863L538.495 335.886L550.586 340.537L550.888 352.176C550.888 352.176 528.403 368.93 495.051 367.296C461.7 365.662 385.88 354.435 385.88 354.435C385.88 354.435 380.323 331.608 388.361 321.606L395.236 314.626C395.236 314.626 385.436 284.275 441.014 282.084Z" fill="#6A97F8"/>
<path d="M458.234 330.679L443.924 334.538L443.368 347.835L513.343 363.358L557.528 352.809L557.741 340.016" stroke="#4A6DD9" stroke-width="2.25298" stroke-linecap="round" stroke-linejoin="round"/>
<path d="M453.396 338.214L513.099 350.83L557.742 340.016L545.413 334.151" stroke="#4A6DD9" stroke-width="2.25298" stroke-linecap="round" stroke-linejoin="round"/>
<path d="M443.558 345.057C443.558 345.057 439.512 341.897 441.093 333.366C442.576 325.366 452.729 327.806 452.729 327.806C472.624 335.967 493.845 340.416 515.342 340.933C521.906 341.08 559.213 334.506 552.04 322.073C547.457 314.13 533.555 306.479 516.653 297.293C507.098 292.101 503.546 290.244 475.349 284.115C452.395 279.127 420.138 288.552 410.31 296.026C403.09 301.516 398.978 307.79 398.109 317.54C398.003 318.72 392.959 323.873 392.74 327.054C391.676 342.506 398.12 357.734 398.12 357.734C398.12 357.734 434.835 360.954 445.444 361.899C445.444 361.899 490.978 368.184 500.374 368.228C509.771 368.272 541.603 361.582 547.604 355.5" stroke="#4A6DD9" stroke-width="2.25298" stroke-linecap="round" stroke-linejoin="round"/>
<path d="M419.725 301.104C419.725 301.104 447.055 302.966 464.415 317.127C464.415 317.127 499.166 297.492 515.644 298.287" stroke="#4A6DD9" stroke-width="2.25298" stroke-linecap="round" stroke-linejoin="round"/>
<path d="M431.879 320.749C431.879 320.749 422.068 329.87 427.14 346.385L398.646 340.275" stroke="#4A6DD9" stroke-width="2.25298" stroke-linecap="round" stroke-linejoin="round"/>
<path d="M468.203 308.216C468.203 308.216 480.618 295.08 504.434 294.205" stroke="#4A6DD9" stroke-width="2.25298" stroke-linecap="round" stroke-linejoin="round"/>
<path d="M552.991 325.174C552.991 325.174 557.635 320.429 559.604 322.012C561.574 323.594 552.991 325.174 552.991 325.174Z" stroke="#4A6DD9" stroke-width="2.25298" stroke-linecap="round" stroke-linejoin="round"/>
<path d="M513.099 350.83L512.622 359.199" stroke="#4A6DD9" stroke-width="2.25298" stroke-linecap="round" stroke-linejoin="round"/>
<path d="M525.404 354.607L556.775 346.801" stroke="#4A6DD9" stroke-width="2.25298" stroke-linecap="round" stroke-linejoin="round"/>
<path d="M443.695 342.553L483.676 351.127" stroke="#4A6DD9" stroke-width="2.25298" stroke-linecap="round" stroke-linejoin="round"/>
<path d="M489.356 352.969L502.326 355.462" stroke="#4A6DD9" stroke-width="2.25298" stroke-linecap="round" stroke-linejoin="round"/>
<path d="M399.331 317.173C399.331 317.173 406.555 313.534 425.36 318.78" stroke="#4A6DD9" stroke-width="2.25298" stroke-linecap="round" stroke-linejoin="round"/>
<path d="M479.506 327.437C479.506 327.437 499.438 332.274 519.342 332.256C523.954 332.252 539.906 328.092 543.518 326.206C555.474 319.959 530.885 305.809 530.885 305.809" stroke="#4A6DD9" stroke-width="2.25298" stroke-linecap="round" stroke-linejoin="round"/>
<path d="M402.075 334.789L401.903 331.343C401.903 331.343 382.309 330.723 374.051 331.136C374.051 331.136 370.125 328.689 369.652 321.7C369.338 317.06 368.846 308.528 372.55 307.39C376.255 306.252 402.326 309.25 402.326 309.25L402.277 305.123L372.517 303.58L287.547 305.982C284.041 306.648 281.543 312.701 281.913 319.872C282.447 324.762 284.046 329.476 286.598 333.683L369.66 335.233L402.075 334.789Z" fill="#76D43E"/>
<path d="M366.257 309.245L288.065 310.498" stroke="#2D2D2D" stroke-width="1.12649" stroke-linecap="round" stroke-linejoin="round"/>
<path d="M400.286 331.134C395.23 331.408 380.88 330.795 374.051 331.136C374.051 331.136 370.125 328.689 369.653 321.701C369.338 317.06 368.846 308.528 372.551 307.39C375.593 306.456 393.654 307.646 400.086 308.831C400.483 308.904 401.309 331.079 400.286 331.134Z" fill="white"/>
<path d="M397.994 313.674L376.863 314.409C378.851 315.979 381.224 316.987 383.735 317.328C388.107 317.999 397.994 313.674 397.994 313.674Z" fill="#2D2D2D"/>
<path d="M391.275 324.958L369.949 323.652C371.937 325.222 374.31 326.23 376.821 326.571C381.193 327.242 391.275 324.958 391.275 324.958Z" fill="#2D2D2D"/>
<path d="M374.051 331.136C374.051 331.136 370.125 328.689 369.653 321.701C369.338 317.06 368.846 308.528 372.551 307.39C375.593 306.456 393.654 307.646 400.086 308.831L378.09 310.572C374.048 310.517 370.83 315.078 371.162 320.59L371.173 320.756C371.322 324.391 372.307 327.943 374.051 331.136Z" fill="#2D2D2D"/>
<path d="M292.016 335.529H411.282C413.128 335.529 414.624 336.267 414.624 337.177V356.675C414.624 357.586 413.128 358.324 411.282 358.324H293.214C291.408 358.324 289.928 357.616 289.873 356.725L288.675 337.227C288.618 336.298 290.131 335.529 292.016 335.529Z" fill="#F3D43E"/>
<path d="M242.47 231.351C197.37 226.948 135.228 347.015 140.199 366.897H289.312C289.312 366.897 296.37 345.641 304.548 325.195C313.476 302.874 323.441 280.782 319.549 269.973C312.094 249.262 297.821 240.396 297.821 240.396L242.47 231.351Z" fill="#E06A4F"/>
<path d="M299.988 303.458C299.988 303.458 307.102 331.042 319.546 346.353C327.754 356.452 335.395 356.416 352.955 356.416C379.515 356.416 315.822 280.328 315.822 280.328L299.988 303.458Z" fill="white"/>
<path d="M308.128 318.575L320.667 289.481L347.848 353.9C343.668 352.517 339.625 350.748 335.773 348.617" fill="#242424"/>
<path d="M259.351 271.766L275.248 270.511L268.974 303.56L259.351 271.766Z" fill="#242424"/>
<path d="M200.357 255.158C188.759 280.839 210.389 320.974 210.389 320.974L220.033 315.67C220.73 318.069 221.659 320.393 222.808 322.611C220.357 325.002 209.404 330.205 209.404 330.205C205.121 324.878 197.111 308.04 195.441 287.703C194.555 276.621 196.237 265.484 200.357 255.158Z" fill="#242424"/>
<path d="M290.432 243.824C290.432 243.824 301.522 240.931 304.415 242.378C307.308 243.824 327.078 275.649 327.078 275.649L308.128 318.575L303.867 298.894L299.847 305.307L290.432 243.824Z" fill="#242424"/>
<path d="M220.033 315.67L266.899 289.295L282.106 342.988C282.106 342.988 288.93 372.237 266.217 375.01C240.266 378.179 220.033 315.67 220.033 315.67Z" fill="white"/>
<path d="M324.106 206.185C330.733 198.729 330.801 198.238 339.445 202.329C342.206 203.636 342.36 214.879 337.444 223C333.705 229.177 322.379 242.677 320.768 243.214C319.884 243.509 322.805 249.756 327.614 259.178C343.085 289.486 368.056 351.907 358.799 355.392C323.592 368.646 304.638 250.919 302.567 246.363C301.533 244.086 306.908 234.056 312.547 224.587C318.195 215.104 324.106 206.185 324.106 206.185Z" fill="white"/>
<path d="M314.235 247.021L327.614 259.178C322.805 249.756 319.884 243.509 320.768 243.214L314.235 247.021Z" fill="#242424"/>
<path d="M302.567 246.363C301.533 244.086 306.908 234.056 312.547 224.587C318.195 215.104 324.106 206.185 324.106 206.185C324.106 206.185 327.606 201.486 329.442 204.547C331.279 207.608 329.136 225.054 325.463 229.339C321.79 233.623 302.567 246.363 302.567 246.363Z" fill="#242424"/>
<path d="M237.921 235.937L230.496 246.777C230.496 246.777 260.101 275.264 269.419 273.982C280.313 272.484 297.822 240.396 297.822 240.396L237.921 235.937Z" fill="white"/>
<path d="M280.687 260.47L242.093 243.877L275.248 270.511L280.687 260.47Z" fill="#242424"/>
<path d="M239.561 237.307C224.441 229.973 207.355 239.663 200.357 255.158C188.759 280.839 210.389 320.975 210.389 320.975L220.033 315.671L271.627 292.043C271.627 292.043 262.752 248.554 239.561 237.307Z" fill="#E06A4F"/>
<path d="M269.495 287.11C263.565 313.146 255.263 331.379 258 351.534C258.391 354.414 259.299 371.387 253.034 358.582C238.458 328.79 269.495 287.11 269.495 287.11Z" fill="#242424"/>
<path d="M219.884 160.178C231.655 136.214 259.789 99.4039 292.707 107.844C309.61 112.178 302.912 121.912 297.152 129.955C297.152 129.955 309.228 124.656 312.467 133.342C315.707 142.029 299.789 160.657 297.005 162.615C294.22 164.572 219.884 160.178 219.884 160.178Z" fill="#242424"/>
<path d="M300.081 157.216C301.447 152.448 306.943 154.379 309.729 158.752C312.514 163.126 310.785 173.324 310.785 173.324L300.081 157.216Z" fill="#242424"/>
<path d="M257.42 145.171C235.102 146.596 212.092 164.528 219.274 198.138C226.724 233.004 242.175 249.862 276.326 250.968C288.718 251.37 298.096 248.997 305.182 245.016C313.682 240.24 319.083 232.474 322.232 225.082C325.759 216.804 329.773 206.696 331.484 201.075C334.983 189.576 325.941 191.632 325.795 190.983C321.93 173.898 306.724 142.024 257.42 145.171Z" fill="white"/>
<path d="M269.999 234.669C271.29 234.406 272.628 234.498 273.87 234.937C275.112 235.375 276.212 236.143 277.051 237.158C279.748 240.062 287.63 250.018 287.63 250.018L277.259 248.774L269.999 234.669Z" fill="#242424"/>
<path d="M297.725 225.668C311.292 219.295 316.703 210.799 315.612 196.116C285.461 191.293 264.932 205.092 264.932 205.092C264.932 205.092 263.195 208.295 270.985 218.133C283.234 233.603 297.725 225.668 297.725 225.668Z" fill="#242424"/>
<path d="M297.725 225.668C297.725 225.668 283.235 233.603 270.985 218.133C270.985 218.133 284.126 215.244 290.269 219.292C296.412 223.341 297.725 225.668 297.725 225.668Z" fill="#EBB3B0"/>
<g style="mix-blend-mode:multiply">
<path d="M264.694 191.473C265.274 185.053 260.902 179.412 254.93 178.873C248.958 178.333 243.647 183.101 243.067 189.52C242.488 195.94 246.859 201.581 252.832 202.12C258.804 202.659 264.115 197.892 264.694 191.473Z" fill="#EBB3B0"/>
</g>
<g style="mix-blend-mode:multiply">
<path d="M321.511 197.739C324.061 196.988 324.88 192.139 323.339 186.909C321.798 181.678 318.482 178.047 315.932 178.798C313.382 179.549 312.564 184.398 314.105 189.628C315.645 194.859 318.962 198.491 321.511 197.739Z" fill="#EBB3B0"/>
</g>
<path d="M228.401 197.965C232.117 204.715 236.916 203.644 235.681 198.811C235.319 197.395 225.867 173.078 225.867 173.078C225.867 173.078 240.069 163.651 244.198 156.452C248.328 149.254 243.441 142.041 237.947 144.916C237.947 144.916 238.565 106.012 219.55 135.53C208.323 152.958 207.107 179.045 207.107 179.045C207.107 179.045 201.385 179.855 201.147 188.74C200.909 197.626 230.722 231.706 233.361 233.984C255.113 252.763 228.401 197.965 228.401 197.965Z" fill="#242424"/>
<path d="M270.31 202.08C266.337 202.808 262.257 202.7 258.328 201.765C254.399 200.829 250.708 199.086 247.49 196.646C244.271 194.206 241.596 191.122 239.635 187.592C237.673 184.062 236.468 180.162 236.096 176.14C235.59 171.467 236.465 166.748 238.613 162.567C239.697 160.493 241.18 158.654 242.976 157.154C244.772 155.654 246.846 154.523 249.08 153.826C251.639 153.145 254.309 152.98 256.932 153.343C265.738 154.398 273.632 159.73 279.272 166.576C284.105 172.442 287.101 178.69 286.341 186.254C285.581 193.817 279.761 199.319 271.683 201.579" stroke="#E06A4F" stroke-width="4.56335" stroke-linecap="round" stroke-linejoin="round"/>
<path d="M322.23 196.686C316.254 197.729 311.042 194.739 306.767 191.393C302.94 188.398 301.022 183.633 299.363 179.066C297.57 174.13 295.863 169.012 296.077 163.765C296.291 158.519 298.823 153.053 303.55 150.766C308.542 148.35 314.646 150.026 319.276 153.077C323.859 156.19 327.498 160.502 329.798 165.542C332.098 170.582 332.97 176.156 332.318 181.658C331.581 187.218 328.96 192.851 324.121 195.688" stroke="#E06A4F" stroke-width="4.56335" stroke-linecap="round" stroke-linejoin="round"/>
<path d="M283.773 173.038C284.652 171.697 285.886 170.626 287.337 169.944C288.788 169.261 290.4 168.995 291.993 169.174C295.163 169.576 296.801 171.885 297.784 174.925" stroke="#E06A4F" stroke-width="4.56335" stroke-linecap="round" stroke-linejoin="round"/>
<path d="M291.275 170.317L301.511 178.253C301.904 178.557 302.219 178.951 302.429 179.402C302.639 179.853 302.738 180.347 302.719 180.844C302.7 181.34 302.562 181.825 302.318 182.258C302.074 182.691 301.73 183.06 301.314 183.333L295.3 187.29" fill="white"/>
<path d="M291.275 170.317L301.511 178.253C301.904 178.557 302.219 178.951 302.429 179.402C302.639 179.853 302.738 180.347 302.719 180.844C302.7 181.34 302.562 181.825 302.318 182.258C302.074 182.691 301.73 183.06 301.314 183.333L295.3 187.29" stroke="white" stroke-width="0.760561" stroke-miterlimit="10"/>
<path d="M291.275 170.317L301.511 178.253C301.904 178.557 302.219 178.951 302.429 179.402C302.639 179.853 302.738 180.347 302.719 180.844C302.7 181.34 302.562 181.825 302.318 182.258C302.074 182.691 301.73 183.06 301.314 183.333L295.3 187.29" stroke="#242424" stroke-width="1.52112" stroke-linecap="round" stroke-linejoin="round"/>
<path d="M305.075 163.118C307.219 159.648 313.994 166.777 315.946 167.867C317.484 168.726 320.043 167.248 319.246 165.331C317.706 161.63 314.035 158.866 310.256 157.579C306.683 156.361 302.269 157.395 301.621 161.662C301.314 163.684 303.874 165.061 305.075 163.118V163.118Z" fill="#242424"/>
<path d="M266.416 158.551C263.37 155.844 259.441 154.342 255.366 154.328C251.291 154.313 247.351 155.787 244.286 158.471C241.388 161.049 239.31 164.421 238.309 168.168C237.553 171.122 237.165 176.396 239.096 178.943C239.193 179.101 239.329 179.231 239.491 179.321C239.652 179.411 239.834 179.459 240.02 179.459C240.205 179.459 240.387 179.411 240.548 179.321C240.71 179.231 240.846 179.101 240.943 178.943C242.137 176.839 242.159 174.246 243.052 171.98C244.016 169.301 245.359 166.774 247.04 164.476C252.036 158.129 257.575 160.358 264.092 162.543C264.598 162.669 265.13 162.627 265.61 162.424C266.089 162.222 266.49 161.869 266.752 161.419C267.014 160.969 267.123 160.446 267.062 159.929C267.002 159.411 266.775 158.928 266.416 158.551H266.416Z" fill="#242424"/>
<path d="M230.438 199.299C221.437 192.589 217.903 201.641 220.363 206.764C222.823 211.888 231.363 220.921 238.954 216.488" fill="white"/>
<path d="M230.438 199.299C221.437 192.589 217.903 201.641 220.363 206.764C222.823 211.888 231.363 220.921 238.954 216.488" fill="white"/>
<path d="M268.142 205.729C268.142 205.729 284.88 193.725 314.271 198.41L313.582 200.96C313.302 201.989 312.702 202.902 311.869 203.568C311.035 204.233 310.012 204.617 308.946 204.662C305.318 204.828 301.008 205.412 296.985 206.02C285.991 207.682 276.572 211.181 271.141 214.391C269.454 211.337 268.029 208.599 268.142 205.729Z" fill="white"/>
<path d="M264.06 172.074C263.184 172.537 262.494 173.285 262.103 174.195C261.713 175.105 261.646 176.121 261.913 177.075C262.283 178.874 263.348 181.761 265.606 181.638C267.907 181.513 268.697 179.054 268.357 177.118C268.159 176.09 267.747 175.115 267.148 174.257C266.548 173.398 265.775 172.676 264.878 172.136C264.616 171.986 264.305 171.944 264.013 172.021C263.721 172.097 263.471 172.286 263.317 172.546C262.34 174.606 261.919 178.931 264.648 179.988C268.119 181.332 266.924 175.372 266.291 173.953C266.189 173.783 266.045 173.642 265.872 173.544C265.699 173.446 265.504 173.394 265.306 173.394C265.107 173.394 264.912 173.446 264.739 173.544C264.567 173.642 264.422 173.783 264.321 173.953C263.855 174.805 263.742 175.805 264.005 176.739C264.269 177.673 264.888 178.466 265.73 178.949C265.991 179.099 266.302 179.141 266.594 179.064C266.886 178.987 267.136 178.799 267.29 178.54C267.522 178.088 267.648 177.59 267.659 177.083C267.669 176.575 267.564 176.072 267.351 175.612C267.138 175.151 266.823 174.745 266.43 174.424C266.036 174.103 265.575 173.877 265.081 173.761C263.65 173.45 263.038 175.649 264.474 175.961C264.633 175.981 264.785 176.037 264.919 176.125C265.052 176.213 265.164 176.33 265.246 176.468C265.327 176.606 265.376 176.76 265.389 176.919C265.402 177.079 265.379 177.239 265.32 177.388L266.881 176.979C266.719 176.895 266.575 176.78 266.457 176.64C266.34 176.501 266.251 176.339 266.196 176.165C266.141 175.991 266.121 175.807 266.138 175.625C266.154 175.444 266.206 175.267 266.291 175.105H264.321C264.465 175.427 265.272 177.797 264.817 178.003L265.696 177.888C264.266 177.687 264.918 174.475 265.287 173.697L263.726 174.107C264.509 174.58 265.153 175.249 265.597 176.049C265.885 176.581 266.753 178.796 265.846 179.191C265.253 179.449 264.786 178.4 264.638 178.06C264.399 177.553 264.223 177.018 264.113 176.468C263.978 176 264.014 175.498 264.215 175.054C264.416 174.609 264.77 174.251 265.211 174.044C266.549 173.446 265.39 171.479 264.06 172.074Z" fill="#242424"/>
<path d="M308.924 172.941C308.464 174.441 308.578 176.059 309.244 177.479C309.827 178.701 311.16 180.165 312.412 178.716C313.327 177.657 313.141 175.745 312.768 174.511C312.307 173.01 311.344 171.713 310.041 170.837C309.78 170.685 309.469 170.644 309.177 170.72C308.884 170.797 308.634 170.986 308.48 171.246C308.146 171.913 307.948 172.64 307.899 173.384C307.849 174.128 307.948 174.875 308.191 175.58C308.434 176.286 308.815 176.936 309.312 177.492C309.809 178.048 310.412 178.499 311.086 178.819C311.238 178.902 311.407 178.95 311.58 178.96C311.752 178.97 311.925 178.941 312.086 178.876C312.246 178.811 312.39 178.711 312.507 178.583C312.624 178.455 312.711 178.303 312.762 178.137L313.039 177.414C313.566 176.042 311.361 175.449 310.839 176.808L310.562 177.531L312.238 176.849C311.823 176.68 311.447 176.43 311.131 176.113C310.815 175.796 310.566 175.418 310.399 175.003C310.233 174.587 310.151 174.142 310.16 173.695C310.169 173.247 310.268 172.806 310.45 172.398L308.89 172.807C309.643 173.331 310.212 174.078 310.516 174.944C310.641 175.303 310.722 175.676 310.756 176.054C310.772 176.294 310.771 176.535 310.753 176.775C310.565 177.241 310.664 177.32 311.048 177.011L311.854 177.346C311.421 176.826 311.127 176.205 310.999 175.541C310.871 174.877 310.914 174.191 311.124 173.548C311.192 173.26 311.147 172.957 310.996 172.702C310.845 172.447 310.602 172.261 310.317 172.182C310.031 172.104 309.727 172.139 309.467 172.281C309.207 172.422 309.012 172.659 308.924 172.941Z" fill="#242424"/>
<path d="M198.684 159.932C198.684 159.932 197.635 166.306 204.02 174.101L198.684 159.932Z" fill="#242424"/>
<path d="M199.832 176.993C192.608 177.233 189.689 182.157 189.689 182.157L199.832 176.993Z" fill="#242424"/>
<path d="M242.093 243.877C236.285 238.648 238.779 223.996 248.72 227.309C258.661 230.623 270.259 230.623 272.744 234.351C275.229 238.079 275.644 245.12 275.644 245.12C275.644 245.12 293.455 250.091 293.455 255.475C293.455 260.86 299.205 320.296 298.193 343.058C297.319 362.73 296.856 375.122 264.605 375.122C245.507 375.122 261.059 324.152 269.495 287.111C273.041 271.539 276.058 260.446 276.058 260.446C276.058 260.446 249.114 250.199 242.093 243.877Z" fill="white"/>
<path d="M275.644 245.12C275.644 245.12 275.23 238.079 272.744 234.351C270.259 230.623 260.96 231.275 251.019 227.962C251.019 227.962 245.456 222.48 241.208 229.382" stroke="#242424" stroke-width="1.52112" stroke-linecap="round" stroke-linejoin="round"/>
<path d="M338.318 201.792C330.973 201.18 329.136 217.402 329.136 217.402C329.776 223.667 333.789 220.632 334.777 218.999" stroke="#242424" stroke-width="1.52112" stroke-linecap="round" stroke-linejoin="round"/>
<path d="M320.768 243.214C314.34 249.285 308.984 245.714 308.984 245.714" stroke="#242424" stroke-width="1.52112" stroke-linecap="round" stroke-linejoin="round"/>
<path d="M251.358 246.473C254.758 247.833 259.972 248.967 262.239 247.38" stroke="#242424" stroke-width="1.52112" stroke-linecap="round" stroke-linejoin="round"/>
<path d="M258.996 241.064C258.996 241.064 258.465 231.772 263.243 230.975" stroke="#242424" stroke-width="1.52112" stroke-linecap="round" stroke-linejoin="round"/>
<path d="M273.332 243.187C273.332 243.187 268.971 240.647 272.744 234.351" stroke="#242424" stroke-width="1.52112" stroke-linecap="round" stroke-linejoin="round"/>
<path d="M246.252 236.02C246.252 236.02 245.421 228.903 250.73 228.106" stroke="#242424" stroke-width="1.52112" stroke-linecap="round" stroke-linejoin="round"/>
<path d="M227.195 204.674C227.195 204.674 232.084 206.476 233.628 209.821C235.172 213.166 232.342 212.908 232.342 212.908" stroke="#242424" stroke-width="1.52112" stroke-linecap="round" stroke-linejoin="round"/>
<path d="M228.997 209.049C228.997 209.049 232.085 208.534 233.628 209.821" stroke="#242424" stroke-width="1.52112" stroke-linecap="round" stroke-linejoin="round"/>
<path d="M210.734 309.385C210.734 309.385 241.564 289.411 267.617 283.766" stroke="#242424" stroke-width="1.52112" stroke-linecap="round" stroke-linejoin="round"/>
<path d="M45.807 306.857L45.9106 303.408C45.9106 303.408 65.4881 302.398 73.7531 302.646C73.7531 302.646 77.6293 300.121 77.9629 293.125C78.1844 288.479 78.5066 279.939 74.7803 278.875C71.0541 277.811 45.0474 281.328 45.0474 281.328L45.0148 277.201L74.7381 275.066L158.622 278.761C162.14 279.357 164.759 285.359 164.532 292.535C164.095 297.436 162.59 302.181 160.123 306.437L78.2244 306.655L45.807 306.857Z" fill="#4A6DD9"/>
<path d="M81.1097 280.604L158.194 283.286" stroke="#2D2D2D" stroke-width="1.12649" stroke-linecap="round" stroke-linejoin="round"/>
<path d="M47.5235 303.166C52.5842 303.339 66.9194 302.44 73.7534 302.646C73.7534 302.646 77.6297 300.121 77.9632 293.125C78.1848 288.478 78.5069 279.939 74.7807 278.875C71.7207 278.001 53.6862 279.55 47.2793 280.864C46.8842 280.945 46.4994 303.131 47.5235 303.166Z" fill="white"/>
<path d="M49.4674 285.665L70.6085 285.979C68.6522 287.588 66.2998 288.643 63.7967 289.034C59.4385 289.792 49.4674 285.665 49.4674 285.665Z" fill="#2D2D2D"/>
<path d="M56.4095 296.813L77.7053 295.082C75.749 296.691 73.3966 297.746 70.8936 298.137C66.5353 298.895 56.4095 296.813 56.4095 296.813Z" fill="#2D2D2D"/>
<path d="M73.753 302.646C73.753 302.646 77.6292 300.121 77.9628 293.125C78.1843 288.478 78.5065 279.939 74.7802 278.875C71.7202 278.001 53.6857 279.55 47.2788 280.864L69.3052 282.166C73.3458 282.03 76.6535 286.527 76.431 292.044L76.4239 292.21C76.3468 295.847 75.4329 299.418 73.753 302.646Z" fill="#2D2D2D"/>
<path d="M44.8548 371.258L45.0271 367.812C45.0271 367.812 64.6209 367.191 72.8792 367.604C72.8792 367.604 76.805 365.157 77.2779 358.169C77.592 353.528 78.0841 344.996 74.3798 343.858C70.6755 342.72 44.604 345.718 44.604 345.718L44.6536 341.592L74.4136 340.049L159.383 342.451C162.889 343.117 165.387 349.17 165.018 356.34C164.483 361.231 162.884 365.945 160.332 370.151L77.2698 371.701L44.8548 371.258Z" fill="#76D43E"/>
<path d="M80.6736 345.713L158.865 346.966" stroke="#2D2D2D" stroke-width="1.12649" stroke-linecap="round" stroke-linejoin="round"/>
<path d="M46.644 367.603C51.7003 367.877 66.0505 367.263 72.8791 367.605C72.8791 367.605 76.8048 365.157 77.2778 358.169C77.5918 353.528 78.084 344.997 74.3797 343.859C71.3378 342.924 53.2759 344.114 46.8441 345.299C46.4475 345.372 45.6209 367.547 46.644 367.603Z" fill="white"/>
<path d="M48.9366 350.143L70.0673 350.877C68.0793 352.448 65.7064 353.456 63.1961 353.796C58.8235 354.467 48.9366 350.143 48.9366 350.143Z" fill="#2D2D2D"/>
<path d="M55.6549 361.427L76.9809 360.12C74.993 361.691 72.62 362.699 70.1097 363.039C65.7372 363.71 55.6549 361.427 55.6549 361.427Z" fill="#2D2D2D"/>
<path d="M72.8792 367.605C72.8792 367.605 76.8049 365.157 77.2778 358.169C77.5919 353.528 78.0841 344.997 74.3798 343.859C71.3378 342.924 53.276 344.114 46.8442 345.299L68.8403 347.04C72.8828 346.985 76.1002 351.547 75.768 357.058L75.7575 357.224C75.6079 360.859 74.6231 364.411 72.8792 367.605Z" fill="#2D2D2D"/>
<path d="M70.6392 312.091H155.333C155.869 312.037 156.404 312.194 156.826 312.529C157.247 312.865 157.521 313.351 157.588 313.885C159.194 316.685 160.183 319.797 160.488 323.01C160.888 327.647 159.877 332.296 157.588 336.348C157.544 336.842 157.307 337.298 156.928 337.617C156.47 337.966 155.909 338.152 155.333 338.143H71.4944C70.968 338.193 70.4421 338.041 70.0235 337.718C69.6049 337.395 69.325 336.925 69.2404 336.403L68.3851 313.94C68.4098 313.67 68.488 313.407 68.6151 313.167C68.7421 312.928 68.9156 312.716 69.1253 312.544C69.335 312.371 69.5769 312.243 69.8367 312.165C70.0966 312.087 70.3694 312.062 70.6392 312.091Z" fill="white"/>
<path d="M161.445 312.091H70.6392C70.6392 312.091 71.2001 313.919 76.4223 314.908C91.8246 317.827 147.157 318.631 147.157 318.631C147.157 318.631 156.562 334.639 157.87 334.274C161.794 333.179 161.445 312.091 161.445 312.091Z" fill="#242424"/>
<path d="M91.4121 320.41L156.185 321.34C156.185 321.34 139.259 323.702 134.923 324.578C130.587 325.453 91.4121 320.41 91.4121 320.41Z" fill="#2D2D2D"/>
<path d="M175.551 306.991C175.551 306.593 174.252 306.27 172.649 306.27H63.6742C62.0373 306.27 62.6595 312.194 64.2277 312.194H156.902C158.716 315.717 159.698 319.608 159.773 323.57C159.848 327.531 159.015 331.457 157.336 335.046H63.1273C61.4903 335.046 62.1754 335.334 62.2251 335.683L61.3275 340.637C61.375 340.971 62.6594 341.236 64.2277 341.236H172.102C173.705 341.236 175.004 340.96 175.004 340.618C175.004 340.618 177.941 335.681 177.941 322.293C177.941 310.099 175.551 306.991 175.551 306.991Z" fill="#F3D43E"/>
<path d="M155.81 382.255H146.001C143.636 382.255 141.347 381.417 139.54 379.89C137.734 378.362 136.527 376.244 136.134 373.912L128.98 331.491C135.961 334.758 143.575 336.452 151.283 336.452C158.99 336.452 166.604 334.758 173.585 331.491C170.939 345.688 168.293 359.885 165.647 374.082C165.219 376.378 164.001 378.452 162.204 379.945C160.408 381.438 158.145 382.255 155.81 382.255Z" fill="#4A6DD9"/>
<path d="M173.585 331.491C166.604 334.758 158.99 336.452 151.283 336.452C143.575 336.452 135.961 334.758 128.98 331.491C128.98 331.491 174.486 332.392 173.585 331.491Z" fill="#242424"/>
<path d="M348.511 360.85C339.827 357.194 332.865 345.9 340.143 336.407C345.208 329.801 352.255 333.765 355.477 334.865C358.055 332.496 362.848 329.436 368.922 331.674C377.606 334.873 377.606 350.413 366.18 359.097C361.965 362.301 353.255 362.847 348.511 360.85Z" fill="#DB2A2A"/>
<path d="M151.122 336.447L148.927 284.754C148.907 284.296 148.796 283.847 148.6 283.433C148.403 283.019 148.126 282.649 147.784 282.344C147.441 282.039 147.041 281.806 146.608 281.659C146.174 281.512 145.715 281.453 145.258 281.487C144.364 281.552 143.533 281.965 142.94 282.637C142.348 283.309 142.043 284.186 142.091 285.08L144.814 336.447L151.122 336.447Z" fill="#76D43E"/>
<path d="M139.793 335.096L132.548 286.084C132.438 285.338 132.627 284.579 133.073 283.972C133.52 283.365 134.188 282.958 134.932 282.841C135.306 282.782 135.688 282.798 136.055 282.888C136.423 282.978 136.769 283.14 137.073 283.364C137.378 283.588 137.635 283.871 137.829 284.196C138.024 284.52 138.152 284.88 138.207 285.254L145.651 336.447L139.793 335.096Z" fill="#E06A4F"/>
<path d="M355.118 338.169C355.118 338.169 351.815 328.7 357.54 324.516" stroke="#242424" stroke-width="1.52112" stroke-linecap="round" stroke-linejoin="round"/>
<path d="M353.796 330.461C350.934 328.92 348.071 326.498 348.511 321.213C348.511 321.213 352.035 322.093 353.136 324.736C353.803 326.566 354.029 328.527 353.796 330.461Z" fill="#90BA3A"/>
<path d="M332.112 140.211L336.389 132.076C337.4 130.152 334.484 128.442 333.471 130.37L329.194 138.506C328.183 140.429 331.098 142.139 332.112 140.211Z" fill="white"/>
<path d="M338.118 147.994L347.547 142.957C349.466 141.932 347.761 139.013 345.841 140.039L336.412 145.076C334.493 146.101 336.198 149.02 338.118 147.994Z" fill="white"/>
<path d="M342.027 158.439C344.537 157.683 347.166 157.402 349.778 157.612C351.948 157.776 351.937 154.395 349.778 154.232C346.861 154.013 343.929 154.334 341.129 155.18C339.051 155.803 339.936 159.066 342.027 158.439Z" fill="white"/>
<path d="M192.436 182.337C190.436 180.915 190.231 170.038 181.601 164.461C163.713 152.9 148.926 176.843 162.359 188.644C172.342 197.416 183.712 190.032 186.345 192.345L192.436 182.337Z" fill="#F3D43E"/>
<path d="M191.677 191.631C191.677 191.631 194.821 195.899 197.586 192.899C199.724 190.578 198.974 188.817 196.614 187.679C192.367 185.63 191.677 191.631 191.677 191.631Z" fill="#2D2D2D"/>
<path d="M191.527 189.892C191.527 189.892 182.148 185.263 178.767 185.603C174.583 186.024 177.526 192 181.606 188.804C183.792 187.091 188.968 176.271 183.462 174.471C179.62 173.215 179.952 177.18 182.295 178.532C184.639 179.885 192.783 186.051 192.783 186.051" stroke="#2D2D2D" stroke-width="1.12649" stroke-miterlimit="10"/>
<path d="M170.041 189.954C170.041 189.954 160.057 186.158 160.256 177.346" stroke="white" stroke-width="1.12649" stroke-linecap="round" stroke-linejoin="round"/>
<path d="M186.346 192.345L192.437 182.337L195.2 183.818C195.583 184.023 195.921 184.304 196.193 184.642C196.465 184.981 196.666 185.371 196.784 185.79C196.902 186.208 196.935 186.645 196.88 187.076C196.825 187.507 196.683 187.923 196.464 188.298L193.83 192.806C193.409 193.526 192.726 194.056 191.924 194.284C191.121 194.512 190.262 194.422 189.525 194.031L186.346 192.345Z" fill="white"/>
<path d="M189.525 194.031L194.698 185.77" stroke="#2D2D2D" stroke-width="1.12649" stroke-linecap="round" stroke-linejoin="round"/>
<path d="M380.917 375.006L381.492 366.682L390.7 370.223L396.321 372.384L390.568 373.364L380.917 375.006Z" fill="white"/>
<path d="M390.7 370.223L396.321 372.384L390.568 373.364L390.7 370.223Z" fill="#242424"/>
<path d="M317.736 370.645L380.917 375.006L385.269 371.262L381.492 366.682L318.31 362.322L317.736 370.645Z" fill="#F3D43E"/>
<path d="M317.736 370.645C317.736 370.645 312.161 371.271 312.077 366.347C311.982 360.826 318.311 362.322 318.311 362.322L317.736 370.645Z" fill="#E06A4F"/>
<path d="M385.269 371.262L320.395 366.783" stroke="#242424" stroke-width="1.12649" stroke-linecap="round" stroke-linejoin="round"/>
<path d="M317.677 370.627L325.849 371.191L326.423 362.864L318.252 362.3L317.677 370.627Z" fill="#242424"/>
<path d="M78.7767 369.245C78.7859 369.468 78.7234 369.687 78.5985 369.871C78.4735 370.055 78.2928 370.195 78.0828 370.268C76.1356 370.946 70.007 372.686 56.9108 373.358C34.0497 374.531 6.24299 371.515 1.60459 370.984C1.40438 370.961 1.21515 370.88 1.05984 370.752C0.904522 370.624 0.78979 370.453 0.729553 370.261C0.681774 370.112 0.668096 369.954 0.689529 369.799C0.710962 369.644 0.766957 369.496 0.853378 369.365C0.939798 369.235 1.05443 369.125 1.18881 369.045C1.32318 368.965 1.47384 368.916 1.62967 368.902C9.02974 368.239 46.0524 364.962 57.1604 364.749C69.342 364.516 75.6387 365.231 77.786 365.55C78.0287 365.586 78.2514 365.705 78.4151 365.888C78.5789 366.07 78.6734 366.305 78.6823 366.55L78.7767 369.245Z" fill="#E06A4F"/>
<path d="M1.62968 368.902C1.47385 368.917 1.32318 368.966 1.1888 369.046C1.05443 369.126 0.939802 369.235 0.853381 369.366C0.76696 369.496 0.710961 369.644 0.689528 369.799C0.668095 369.954 0.681777 370.112 0.729557 370.261C0.789793 370.453 0.904521 370.624 1.05984 370.752C1.21515 370.881 1.40438 370.961 1.60459 370.984C6.24299 371.515 34.0497 374.532 56.9108 373.359C56.9108 373.359 15.1923 371.477 10.183 370.529C5.17364 369.582 1.62968 368.902 1.62968 368.902Z" fill="black"/>
<path d="M78.8032 369.992L78.6522 365.696L82.2998 365.546L82.56 369.472L78.8032 369.992Z" fill="#2D2D2D"/>
<path d="M82.5599 369.472C84.7174 372.488 89.0697 372.514 92.3498 371.41C97.898 369.542 100.907 362.875 104.661 363.811C104.661 363.811 102.504 360.795 95.7996 359.734C89.0956 358.673 82.9603 361.095 82.2996 365.546L82.5599 369.472Z" fill="white"/>
<path d="M95.8001 359.734C102.504 360.795 104.662 363.811 104.662 363.811C100.908 362.875 97.8985 369.542 92.3503 371.41C92.3503 371.41 90.5818 368.562 91.5616 367.37C92.5414 366.177 95.7009 363.157 95.7009 363.157C95.7009 363.157 86.2996 367.512 86.5566 366.122C86.8135 364.731 92.2517 362.585 93.98 362.064C94.4798 361.899 94.9196 361.59 95.2435 361.175C95.5675 360.76 95.7612 360.259 95.8001 359.734Z" fill="#2D2D2D"/>
</svg>
