<svg width="28" height="27" viewBox="0 0 28 27" fill="none" xmlns="http://www.w3.org/2000/svg">
<path fill-rule="evenodd" clip-rule="evenodd" d="M8.3253 0.138344C9.74268 0.0730937 10.1946 0.0585938 13.8051 0.0585938C17.4156 0.0585938 17.8675 0.0743021 19.2837 0.138344C20.6998 0.202385 21.6665 0.428344 22.5123 0.755802C23.3981 1.09051 24.2016 1.61372 24.8662 2.29039C25.5428 2.95376 26.0648 3.75609 26.3983 4.64301C26.727 5.48884 26.9518 6.45551 27.017 7.86926C27.0823 9.28905 27.0968 9.74097 27.0968 13.3503C27.0968 16.9608 27.0811 17.4127 27.017 18.8301C26.953 20.2438 26.727 21.2105 26.3983 22.0563C26.0648 22.9433 25.542 23.747 24.8662 24.4113C24.2016 25.088 23.3981 25.61 22.5123 25.9435C21.6665 26.2722 20.6998 26.4969 19.2861 26.5622C17.8675 26.6274 17.4156 26.6419 13.8051 26.6419C10.1946 26.6419 9.74268 26.6262 8.3253 26.5622C6.91155 26.4981 5.94489 26.2722 5.09905 25.9435C4.21204 25.61 3.40838 25.0871 2.74401 24.4113C2.0678 23.7476 1.54452 22.9443 1.21064 22.0575C0.883178 21.2117 0.658428 20.245 0.593178 18.8313C0.527928 17.4115 0.513428 16.9596 0.513428 13.3503C0.513428 9.73976 0.529136 9.28784 0.593178 7.87168C0.657219 6.45551 0.883178 5.48884 1.21064 4.64301C1.54501 3.75619 2.0687 2.95293 2.74522 2.28918C3.40864 1.61312 4.2115 1.08984 5.09784 0.755802C5.94368 0.428344 6.91035 0.203594 8.32409 0.138344H8.3253ZM19.1761 2.53084C17.7745 2.4668 17.354 2.45351 13.8051 2.45351C10.2562 2.45351 9.83572 2.4668 8.43405 2.53084C7.13751 2.59005 6.43426 2.80634 5.96543 2.9888C5.34555 3.23047 4.90209 3.51684 4.43689 3.98205C3.9959 4.41107 3.65652 4.93335 3.44364 5.51059C3.26118 5.97943 3.04489 6.68268 2.98568 7.97922C2.92164 9.38089 2.90834 9.80139 2.90834 13.3503C2.90834 16.8991 2.92164 17.3196 2.98568 18.7213C3.04489 20.0178 3.26118 20.7211 3.44364 21.1899C3.6563 21.7663 3.99584 22.2895 4.43689 22.7185C4.86584 23.1595 5.38905 23.4991 5.96543 23.7117C6.43426 23.8942 7.13751 24.1105 8.43405 24.1697C9.83572 24.2337 10.255 24.247 13.8051 24.247C17.3552 24.247 17.7745 24.2337 19.1761 24.1697C20.4727 24.1105 21.1759 23.8942 21.6448 23.7117C22.2646 23.4701 22.7081 23.1837 23.1733 22.7185C23.6143 22.2895 23.9539 21.7663 24.1666 21.1899C24.349 20.7211 24.5653 20.0178 24.6245 18.7213C24.6886 17.3196 24.7018 16.8991 24.7018 13.3503C24.7018 9.80139 24.6886 9.38089 24.6245 7.97922C24.5653 6.68268 24.349 5.97943 24.1666 5.51059C23.9249 4.89072 23.6385 4.44726 23.1733 3.98205C22.7443 3.5411 22.222 3.20172 21.6448 2.9888C21.1759 2.80634 20.4727 2.59005 19.1761 2.53084ZM12.1074 17.4477C13.0555 17.8424 14.1113 17.8957 15.0943 17.5984C16.0773 17.3012 16.9267 16.6719 17.4973 15.818C18.0679 14.9641 18.3243 13.9386 18.2228 12.9166C18.1213 11.8946 17.6681 10.9396 16.9407 10.2146C16.477 9.75121 15.9163 9.39637 15.299 9.17565C14.6817 8.95493 14.0231 8.87382 13.3707 8.93817C12.7183 9.00252 12.0882 9.21072 11.5259 9.54779C10.9636 9.88486 10.4831 10.3424 10.1188 10.8875C9.75459 11.4326 9.51574 12.0517 9.41947 12.7001C9.3232 13.3486 9.3719 14.0104 9.56208 14.6378C9.75226 15.2652 10.0792 15.8426 10.5193 16.3285C10.9594 16.8144 11.5018 17.1966 12.1074 17.4477ZM8.97418 8.51934C9.60858 7.88494 10.3617 7.3817 11.1906 7.03836C12.0195 6.69503 12.9079 6.51831 13.8051 6.51831C14.7023 6.51831 15.5907 6.69503 16.4196 7.03836C17.2485 7.3817 18.0016 7.88494 18.636 8.51934C19.2704 9.15375 19.7737 9.9069 20.117 10.7358C20.4603 11.5647 20.637 12.4531 20.637 13.3503C20.637 14.2474 20.4603 15.1358 20.117 15.9647C19.7737 16.7936 19.2704 17.5468 18.636 18.1812C17.3548 19.4624 15.617 20.1822 13.8051 20.1822C11.9931 20.1822 10.2554 19.4624 8.97418 18.1812C7.69294 16.8999 6.97315 15.1622 6.97315 13.3503C6.97315 11.5383 7.69294 9.80058 8.97418 8.51934ZM22.1523 7.53576C22.3095 7.38746 22.4353 7.20913 22.5224 7.01131C22.6094 6.8135 22.6559 6.60023 22.6591 6.38413C22.6622 6.16804 22.622 5.95351 22.5407 5.75324C22.4595 5.55297 22.3389 5.37104 22.186 5.21822C22.0332 5.0654 21.8513 4.9448 21.651 4.86355C21.4508 4.7823 21.2362 4.74206 21.0201 4.74521C20.804 4.74837 20.5908 4.79484 20.393 4.88189C20.1951 4.96895 20.0168 5.0948 19.8685 5.25201C19.5801 5.55775 19.4222 5.96387 19.4283 6.38413C19.4344 6.8044 19.6041 7.20574 19.9013 7.50295C20.1985 7.80015 20.5999 7.96983 21.0201 7.97596C21.4404 7.98208 21.8465 7.82418 22.1523 7.53576Z" fill="white"/>
</svg>
