<svg width="37" height="38" viewBox="0 0 37 38" fill="none" xmlns="http://www.w3.org/2000/svg">
<g clip-path="url(#clip0_71_332)">
<path d="M32.3255 16.7497H30.439V11.6769C30.439 5.77268 25.0783 0.96759 18.4913 0.96759C11.9043 0.96759 6.5435 5.77268 6.5435 11.6769V16.7497H4.65701C2.57401 16.7497 0.884033 18.2645 0.884033 20.1316L0.884033 33.6591C0.884033 35.5262 2.57401 37.041 4.65701 37.041H32.3255C34.4085 37.041 36.0985 35.5262 36.0985 33.6591V20.1316C36.0985 18.2645 34.4085 16.7497 32.3255 16.7497ZM24.1507 16.7497H12.8318V11.6769C12.8318 8.87978 15.3707 6.60405 18.4913 6.60405C21.6118 6.60405 24.1507 8.87978 24.1507 11.6769V16.7497Z" fill="#FF9A62"/>
</g>
<defs>
<clipPath id="clip0_71_332">
<rect width="35.2145" height="36.0734" fill="white" transform="translate(0.884033 0.96759)"/>
</clipPath>
</defs>
</svg>
