<svg width="317" height="120" viewBox="0 0 317 120" fill="none" xmlns="http://www.w3.org/2000/svg">
<path d="M88.9661 70.0901L89.1791 70.5424L88.9661 70.0901ZM303.239 35.9257L303.177 36.4219L303.239 35.9257ZM64.8978 81.9739C65.1477 81.8562 65.2549 81.5584 65.1372 81.3085C65.0196 81.0587 64.7217 80.9515 64.4719 81.0691L64.8978 81.9739ZM71.4094 77.803C71.1596 77.9206 71.0524 78.2185 71.17 78.4683C71.2876 78.7182 71.5855 78.8254 71.8353 78.7077L71.4094 77.803ZM78.7728 75.4416C79.0227 75.324 79.1299 75.0261 79.0122 74.7763C78.8946 74.5264 78.5967 74.4192 78.3469 74.5369L78.7728 75.4416ZM85.2844 71.2707C85.0346 71.3884 84.9274 71.6863 85.045 71.9361C85.1626 72.1859 85.4605 72.2931 85.7104 72.1755L85.2844 71.2707ZM92.7363 68.8896C92.9873 68.7745 93.0975 68.4777 92.9824 68.2267C92.8673 67.9756 92.5705 67.8655 92.3195 67.9806L92.7363 68.8896ZM99.4991 64.7754C99.2458 64.8854 99.1297 65.18 99.2397 65.4332C99.3497 65.6865 99.6442 65.8026 99.8975 65.6926L99.4991 64.7754ZM107.122 62.6405C107.377 62.5356 107.499 62.2435 107.394 61.9881C107.289 61.7326 106.997 61.6106 106.742 61.7155L107.122 62.6405ZM114.044 58.802C113.787 58.9018 113.659 59.1914 113.759 59.4489C113.858 59.7064 114.148 59.8343 114.405 59.7345L114.044 58.802ZM121.747 56.9756C122.006 56.881 122.14 56.5941 122.046 56.3346C121.951 56.0751 121.664 55.9414 121.405 56.036L121.747 56.9756ZM128.819 53.4187C128.558 53.508 128.419 53.7922 128.508 54.0535C128.597 54.3148 128.881 54.4543 129.143 54.365L128.819 53.4187ZM136.589 51.9039C136.852 51.8199 136.997 51.5386 136.913 51.2755C136.829 51.0125 136.548 50.8673 136.285 50.9514L136.589 51.9039ZM143.799 48.6348C143.534 48.7135 143.383 48.9919 143.462 49.2566C143.541 49.5213 143.819 49.6721 144.084 49.5934L143.799 48.6348ZM151.623 47.4342C151.889 47.3608 152.046 47.0856 151.972 46.8193C151.899 46.5531 151.624 46.3968 151.357 46.4701L151.623 47.4342ZM158.958 44.458C158.691 44.526 158.529 44.7981 158.597 45.0657C158.665 45.3334 158.937 45.4952 159.204 45.4273L158.958 44.458ZM166.825 43.5734C167.094 43.5108 167.261 43.242 167.198 42.9731C167.136 42.7041 166.867 42.5368 166.598 42.5994L166.825 43.5734ZM174.274 40.8949C174.004 40.952 173.831 41.2174 173.888 41.4875C173.945 41.7577 174.211 41.9304 174.481 41.8732L174.274 40.8949ZM182.17 40.3276C182.441 40.2759 182.619 40.0141 182.567 39.7428C182.516 39.4716 182.254 39.2936 181.982 39.3453L182.17 40.3276ZM189.721 37.9512C189.448 37.9974 189.265 38.2556 189.311 38.5278C189.358 38.8001 189.616 38.9833 189.888 38.9371L189.721 37.9512ZM197.633 37.7022C197.906 37.6615 198.094 37.4071 198.054 37.1339C198.013 36.8608 197.758 36.6724 197.485 36.7132L197.633 37.7022ZM205.273 35.6317C204.999 35.6669 204.806 35.9175 204.841 36.1914C204.876 36.4653 205.127 36.6588 205.401 36.6235L205.273 35.6317ZM213.189 35.7015C213.464 35.6718 213.662 35.4251 213.632 35.1506C213.603 34.876 213.356 34.6776 213.082 34.7073L213.189 35.7015ZM220.907 33.9402C220.632 33.9644 220.428 34.207 220.453 34.482C220.477 34.7571 220.719 34.9605 220.994 34.9364L220.907 33.9402ZM228.813 34.3286C229.089 34.3099 229.297 34.0715 229.278 33.796C229.26 33.5205 229.021 33.3122 228.746 33.3309L228.813 34.3286ZM236.595 32.8795C236.32 32.8925 236.107 33.1268 236.12 33.4026C236.133 33.6784 236.367 33.8914 236.643 33.8783L236.595 32.8795ZM244.48 33.5858C244.756 33.5783 244.974 33.3485 244.966 33.0724C244.959 32.7964 244.729 32.5787 244.453 32.5862L244.48 33.5858ZM252.314 32.4512C252.038 32.4532 251.816 32.6786 251.818 32.9548C251.82 33.2309 252.045 33.4532 252.321 33.4512L252.314 32.4512ZM260.164 33.4745C260.44 33.4781 260.667 33.2572 260.67 32.9811C260.674 32.7049 260.453 32.4782 260.177 32.4746L260.164 33.4745ZM268.038 32.6563C267.762 32.6471 267.531 32.8634 267.522 33.1394C267.512 33.4154 267.729 33.6466 268.005 33.6557L268.038 32.6563ZM275.84 33.9948C276.116 34.0095 276.351 33.7979 276.366 33.5221C276.381 33.2464 276.169 33.0109 275.894 32.9962L275.84 33.9948ZM283.74 33.4942C283.465 33.474 283.225 33.6808 283.205 33.9562C283.184 34.2316 283.391 34.4713 283.667 34.4915L283.74 33.4942ZM291.482 35.1457C291.757 35.1716 292 34.9696 292.026 34.6947C292.052 34.4197 291.85 34.1759 291.575 34.1501L291.482 35.1457ZM299.395 34.9636C299.121 34.9323 298.873 35.1293 298.842 35.4037C298.811 35.678 299.008 35.9258 299.282 35.9572L299.395 34.9636ZM306.403 36.8232C306.677 36.8573 306.927 36.6628 306.961 36.3888C306.995 36.1148 306.8 35.865 306.526 35.8309L306.403 36.8232ZM312.978 36.6337C312.704 36.5996 312.454 36.7941 312.42 37.0681C312.386 37.3421 312.581 37.5919 312.855 37.626L312.978 36.6337ZM61.4291 83.6069L64.8978 81.9739L64.4719 81.0691L61.0031 82.7022L61.4291 83.6069ZM71.8353 78.7077L78.7728 75.4416L78.3469 74.5369L71.4094 77.803L71.8353 78.7077ZM85.7104 72.1755L89.1791 70.5424L88.7532 69.6377L85.2844 71.2707L85.7104 72.1755ZM89.1791 70.5424C90.3625 69.9853 91.5482 69.4344 92.7363 68.8896L92.3195 67.9806C91.1283 68.5268 89.9396 69.0791 88.7532 69.6377L89.1791 70.5424ZM99.8975 65.6926C102.297 64.6504 104.705 63.633 107.122 62.6405L106.742 61.7155C104.319 62.7105 101.904 63.7305 99.4991 64.7754L99.8975 65.6926ZM114.405 59.7345C116.845 58.7898 119.292 57.8701 121.747 56.9756L121.405 56.036C118.943 56.9328 116.49 57.8549 114.044 58.802L114.405 59.7345ZM129.143 54.365C131.617 53.5193 134.1 52.699 136.589 51.9039L136.285 50.9514C133.789 51.7484 131.3 52.5709 128.819 53.4187L129.143 54.365ZM144.084 49.5934C146.59 48.8481 149.104 48.1284 151.623 47.4342L151.357 46.4701C148.831 47.1661 146.312 47.8877 143.799 48.6348L144.084 49.5934ZM159.204 45.4273C161.739 44.7836 164.279 44.1656 166.825 43.5734L166.598 42.5994C164.046 43.1932 161.499 43.8127 158.958 44.458L159.204 45.4273ZM174.481 41.8732C177.039 41.3322 179.602 40.8169 182.17 40.3276L181.982 39.3453C179.408 39.8359 176.838 40.3524 174.274 40.8949L174.481 41.8732ZM189.888 38.9371C192.465 38.4995 195.047 38.0878 197.633 37.7022L197.485 36.7132C194.893 37.0998 192.305 37.5125 189.721 37.9512L189.888 38.9371ZM205.401 36.6235C207.994 36.2901 210.59 35.9827 213.189 35.7015L213.082 34.7073C210.476 34.9892 207.873 35.2974 205.273 35.6317L205.401 36.6235ZM220.994 34.9364C223.598 34.7076 226.205 34.505 228.813 34.3286L228.746 33.3309C226.13 33.5077 223.517 33.7108 220.907 33.9402L220.994 34.9364ZM236.643 33.8783C239.253 33.7546 241.866 33.6571 244.48 33.5858L244.453 32.5862C241.832 32.6576 239.213 32.7554 236.595 32.8795L236.643 33.8783ZM252.321 33.4512C254.934 33.4327 257.549 33.4404 260.164 33.4745L260.177 32.4746C257.555 32.4404 254.934 32.4326 252.314 32.4512L252.321 33.4512ZM268.005 33.6557C270.616 33.7424 273.228 33.8554 275.84 33.9948L275.894 32.9962C273.275 32.8565 270.656 32.7432 268.038 32.6563L268.005 33.6557ZM283.667 34.4915C286.272 34.6833 288.877 34.9013 291.482 35.1457L291.575 34.1501C288.964 33.9051 286.352 33.6864 283.74 33.4942L283.667 34.4915ZM299.282 35.9572C300.581 36.1055 301.879 36.2604 303.177 36.4219L303.3 35.4295C301.999 35.2676 300.697 35.1123 299.395 34.9636L299.282 35.9572ZM303.177 36.4219L306.403 36.8232L306.526 35.8309L303.3 35.4295L303.177 36.4219ZM312.855 37.626L316.081 38.0274L316.204 37.035L312.978 36.6337L312.855 37.626Z" fill="#6A97F8"/>
<path d="M7.38266 116.009C5.90726 115.419 42.2022 85.3206 42.2022 85.3206L56.6612 82.0747L59.612 85.9108L69.9398 82.0748L77.907 83.5502L59.9071 92.1075L62.8579 102.73L7.38266 116.009Z" fill="#6A97F8"/>
<path d="M1.60645 118.466L66.6754 80.8511L84.8284 81.0071L1.60645 118.466Z" stroke="#4A6DD9" stroke-width="2" stroke-linecap="round" stroke-linejoin="round"/>
<path d="M64.6301 89.9351L66.6151 100.348L16.7441 111.681" stroke="#4A6DD9" stroke-width="2" stroke-linecap="round" stroke-linejoin="round"/>
<path d="M61.2161 83.772L60.5002 79.272L4.11914 116.916" stroke="#4A6DD9" stroke-width="2" stroke-linecap="round" stroke-linejoin="round"/>
<path d="M1.70703 118.471L60.5001 79.272L39.989 82.108L1.70703 118.471Z" stroke="#4A6DD9" stroke-width="2" stroke-linecap="round" stroke-linejoin="round"/>
</svg>
