<svg width="20" height="17" viewBox="0 0 20 17" fill="none" xmlns="http://www.w3.org/2000/svg">
<g clip-path="url(#clip0_75_5)">
<path d="M14.4671 5.82991C14.1208 5.63887 13.6755 5.63887 13.2796 5.82991L10.5088 7.40603L8.62858 8.40902L5.90723 9.98513C5.56087 10.1762 5.11556 10.1762 4.71973 9.98513L2.59212 8.74334C2.24577 8.5523 1.99837 8.17021 1.99837 7.74036V5.3523C1.99837 4.97021 2.19629 4.58812 2.59212 4.34931L4.71973 3.15528C5.06608 2.96424 5.51139 2.96424 5.90723 3.15528L8.03483 4.39707C8.38119 4.58812 8.62858 4.97021 8.62858 5.40006V6.97618L10.5088 5.92543V4.30155C10.5088 3.91946 10.3109 3.53737 9.91504 3.29857L5.95671 1.05379C5.61035 0.862746 5.16504 0.862746 4.76921 1.05379L0.711914 3.34633C0.316081 3.53737 0.118164 3.91946 0.118164 4.30155V8.7911C0.118164 9.17319 0.316081 9.55528 0.711914 9.79409L4.71973 12.0389C5.06608 12.2299 5.51139 12.2299 5.90723 12.0389L8.62858 10.5105L10.5088 9.45976L13.2301 7.9314C13.5765 7.74036 14.0218 7.74036 14.4176 7.9314L16.5452 9.12543C16.8916 9.31648 17.139 9.69857 17.139 10.1284V12.5165C17.139 12.8986 16.9411 13.2807 16.5452 13.5195L14.4671 14.7135C14.1208 14.9045 13.6755 14.9045 13.2796 14.7135L11.152 13.5195C10.8057 13.3284 10.5583 12.9463 10.5583 12.5165V10.9881L8.67806 12.0389V13.615C8.67806 13.9971 8.87598 14.3792 9.27181 14.618L13.2796 16.8627C13.626 17.0538 14.0713 17.0538 14.4671 16.8627L18.4749 14.618C18.8213 14.4269 19.0687 14.0448 19.0687 13.615V9.07767C19.0687 8.69558 18.8708 8.31349 18.4749 8.07469L14.4671 5.82991Z" fill="#545454"/>
</g>
<defs>
<clipPath id="clip0_75_5">
<rect width="19" height="16" fill="white" transform="translate(0.118164 0.958267)"/>
</clipPath>
</defs>
</svg>
