<svg width="310" height="315" viewBox="0 0 310 315" fill="none" xmlns="http://www.w3.org/2000/svg">
<rect x="0.293945" y="0.313629" width="308.996" height="314.544" rx="6" fill="#89C0FF"/>
<circle cx="154.792" cy="157.585" r="29.0871" fill="white"/>
<path d="M155.002 148.5C155.317 148.5 155.619 148.625 155.842 148.848C156.065 149.071 156.19 149.373 156.19 149.688V156.812H163.315C163.63 156.812 163.932 156.938 164.155 157.16C164.377 157.383 164.502 157.685 164.502 158C164.502 158.315 164.377 158.617 164.155 158.84C163.932 159.062 163.63 159.188 163.315 159.188H156.19V166.312C156.19 166.627 156.065 166.929 155.842 167.152C155.619 167.375 155.317 167.5 155.002 167.5C154.687 167.5 154.385 167.375 154.163 167.152C153.94 166.929 153.815 166.627 153.815 166.312V159.188H146.69C146.375 159.188 146.073 159.062 145.85 158.84C145.628 158.617 145.502 158.315 145.502 158C145.502 157.685 145.628 157.383 145.85 157.16C146.073 156.938 146.375 156.812 146.69 156.812H153.815V149.688C153.815 149.373 153.94 149.071 154.163 148.848C154.385 148.625 154.687 148.5 155.002 148.5Z" fill="#545454"/>
</svg>
