<svg width="58" height="58" viewBox="0 0 58 58" fill="none" xmlns="http://www.w3.org/2000/svg">
<circle cx="28.845" cy="28.8044" r="28.42" fill="black"/>
<circle cx="28.845" cy="28.8044" r="26.1373" fill="#F9F5E3"/>
<path d="M30.2713 25.1145C32.6267 25.4229 34.5614 26.3342 36.0756 27.8484C37.6178 29.3345 38.3889 31.3113 38.3889 33.7788C38.3889 36.5828 37.4215 38.798 35.4868 40.4243C33.58 42.0226 31.2527 42.8217 28.5048 42.8217C26.3177 42.8217 24.3689 42.317 22.6585 41.3076C20.948 40.2981 19.7423 38.8541 19.0413 36.9754L21.4808 35.5454C21.9575 37.0034 22.8127 38.111 24.0464 38.8681C25.2802 39.5971 26.7663 39.9617 28.5048 39.9617C30.5237 39.9617 32.178 39.4289 33.4679 38.3634C34.7858 37.2698 35.4447 35.7416 35.4447 33.7788C35.4447 31.816 34.7858 30.3019 33.4679 29.2364C32.178 28.1428 30.5237 27.596 28.5048 27.596V27.554L28.4627 27.596H27.6636L26.4018 25.6613L33.7202 15.651H19.8825V12.875H37.1271V15.651L30.2713 25.1145Z" fill="black"/>
</svg>
