<svg width="27" height="23" viewBox="0 0 27 23" fill="none" xmlns="http://www.w3.org/2000/svg">
<path d="M24.2041 6.22124C24.2215 6.45457 24.2215 6.68657 24.2215 6.91857C24.2215 14.0186 18.8175 22.1999 8.94148 22.1999C5.89881 22.1999 3.07215 21.3186 0.693481 19.7879C1.12548 19.8372 1.54148 19.8546 1.99081 19.8546C4.40814 19.8604 6.75701 19.0521 8.65881 17.5599C7.53804 17.5396 6.45158 17.1698 5.55113 16.5022C4.65068 15.8346 3.98119 14.9024 3.63615 13.8359C3.96815 13.8852 4.30148 13.9186 4.65081 13.9186C5.13215 13.9186 5.61615 13.8519 6.06548 13.7359C4.84916 13.4903 3.75545 12.831 2.97031 11.8701C2.18517 10.9093 1.75707 9.7061 1.75881 8.46524V8.39857C2.47481 8.79724 3.30548 9.04657 4.18548 9.0799C3.44827 8.59002 2.84377 7.92527 2.42593 7.14496C2.00809 6.36465 1.7899 5.49304 1.79081 4.6079C1.79081 3.61057 2.05615 2.6959 2.52148 1.89857C3.871 3.5586 5.55415 4.91665 7.46193 5.88478C9.36971 6.85291 11.4596 7.40952 13.5961 7.51857C13.5135 7.11857 13.4628 6.7039 13.4628 6.2879C13.4625 5.58252 13.6011 4.88398 13.8709 4.23222C14.1407 3.58047 14.5363 2.98827 15.0351 2.48949C15.5338 1.99071 16.126 1.59512 16.7778 1.32534C17.4296 1.05556 18.1281 0.916886 18.8335 0.917237C20.3801 0.917237 21.7761 1.56524 22.7575 2.61324C23.9598 2.38073 25.1129 1.9418 26.1655 1.3159C25.7647 2.55699 24.9252 3.60938 23.8041 4.2759C24.8705 4.15428 25.9127 3.87384 26.8961 3.4439C26.1617 4.5147 25.2515 5.4537 24.2041 6.22124Z" fill="white"/>
</svg>
