<svg width="58" height="58" viewBox="0 0 58 58" fill="none" xmlns="http://www.w3.org/2000/svg">
<circle cx="28.5925" cy="29.2394" r="28.42" fill="black"/>
<circle cx="28.5925" cy="29.2394" r="26.1373" fill="#F9F5E3"/>
<path d="M19.312 42.7521V40.1023L29.9111 29.4191C32.9395 26.3907 34.4536 23.797 34.4536 21.638C34.4536 19.7593 33.8648 18.3012 32.6871 17.2637C31.5375 16.1982 30.1495 15.6654 28.5232 15.6654C25.4948 15.6654 23.2937 17.0534 21.9197 19.8294L19.4382 18.3573C20.3635 16.5347 21.6253 15.1607 23.2236 14.2354C24.8219 13.282 26.5884 12.8054 28.5232 12.8054C30.8785 12.8054 32.9395 13.6045 34.706 15.2028C36.5005 16.773 37.3978 18.9181 37.3978 21.638C37.3978 23.3484 36.9211 24.9887 35.9678 26.559C35.0144 28.1292 33.6685 29.7836 31.93 31.5221L23.518 39.892H38.0287V42.7521H19.312Z" fill="black"/>
</svg>
